G04 DipTrace Beta 2.3.5.2*
%INsubMicroLRSv2.GTS*%
%MOIN*%
%ADD22R,0.0354X0.0276*%
%ADD23R,0.0276X0.0354*%
%ADD24R,0.0315X0.0315*%
%ADD25R,0.0472X0.0315*%
%ADD28R,0.0472X0.0217*%
%ADD29R,0.0394X0.0413*%
%ADD30R,0.0413X0.0866*%
%ADD31R,0.071X0.041*%
%ADD32R,0.049X0.024*%
%ADD34C,0.0394*%
%FSLAX44Y44*%
G04*
G70*
G90*
G75*
G01*
%LNTopMask*%
%LPD*%
G36*
X5895Y2915D2*
X6445D1*
X6461Y2914D1*
X6476Y2912D1*
X6491Y2908D1*
X6506Y2902D1*
X6520Y2895D1*
X6533Y2886D1*
X6545Y2876D1*
X6556Y2865D1*
X6566Y2853D1*
X6575Y2840D1*
X6582Y2826D1*
X6588Y2811D1*
X6592Y2796D1*
X6594Y2781D1*
X6595Y2765D1*
Y2215D1*
X6594Y2199D1*
X6592Y2184D1*
X6588Y2169D1*
X6582Y2154D1*
X6575Y2140D1*
X6566Y2127D1*
X6556Y2115D1*
X6545Y2104D1*
X6533Y2094D1*
X6520Y2085D1*
X6506Y2078D1*
X6491Y2072D1*
X6476Y2068D1*
X6461Y2066D1*
X6445Y2065D1*
X5895D1*
X5879Y2066D1*
X5864Y2068D1*
X5849Y2072D1*
X5834Y2078D1*
X5820Y2085D1*
X5807Y2094D1*
X5795Y2104D1*
X5784Y2115D1*
X5774Y2127D1*
X5765Y2140D1*
X5758Y2154D1*
X5752Y2169D1*
X5748Y2184D1*
X5746Y2199D1*
X5745Y2215D1*
Y2765D1*
X5746Y2781D1*
X5748Y2796D1*
X5752Y2811D1*
X5758Y2826D1*
X5765Y2840D1*
X5774Y2853D1*
X5784Y2865D1*
X5795Y2876D1*
X5807Y2886D1*
X5820Y2895D1*
X5834Y2902D1*
X5849Y2908D1*
X5864Y2912D1*
X5879Y2914D1*
X5895Y2915D1*
G37*
G36*
X5745Y1215D2*
Y1765D1*
X5746Y1781D1*
X5748Y1796D1*
X5752Y1811D1*
X5758Y1826D1*
X5765Y1840D1*
X5774Y1853D1*
X5784Y1865D1*
X5795Y1876D1*
X5807Y1886D1*
X5820Y1895D1*
X5834Y1902D1*
X5849Y1908D1*
X5864Y1912D1*
X5879Y1914D1*
X5895Y1915D1*
X6445D1*
X6461Y1914D1*
X6476Y1912D1*
X6491Y1908D1*
X6506Y1902D1*
X6520Y1895D1*
X6533Y1886D1*
X6545Y1876D1*
X6556Y1865D1*
X6566Y1853D1*
X6575Y1840D1*
X6582Y1826D1*
X6588Y1811D1*
X6592Y1796D1*
X6594Y1781D1*
X6595Y1765D1*
Y1215D1*
X6594Y1199D1*
X6592Y1184D1*
X6588Y1169D1*
X6582Y1154D1*
X6575Y1140D1*
X6566Y1127D1*
X6556Y1115D1*
X6545Y1104D1*
X6533Y1094D1*
X6520Y1085D1*
X6506Y1078D1*
X6491Y1072D1*
X6476Y1068D1*
X6461Y1066D1*
X6445Y1065D1*
X5895D1*
X5879Y1066D1*
X5864Y1068D1*
X5849Y1072D1*
X5834Y1078D1*
X5820Y1085D1*
X5807Y1094D1*
X5795Y1104D1*
X5784Y1115D1*
X5774Y1127D1*
X5765Y1140D1*
X5758Y1154D1*
X5752Y1169D1*
X5748Y1184D1*
X5746Y1199D1*
X5745Y1215D1*
G37*
G36*
X6445Y915D2*
X5895D1*
X5879Y914D1*
X5864Y912D1*
X5849Y908D1*
X5834Y902D1*
X5820Y895D1*
X5807Y886D1*
X5795Y876D1*
X5784Y865D1*
X5774Y853D1*
X5765Y840D1*
X5758Y826D1*
X5752Y811D1*
X5748Y796D1*
X5746Y781D1*
X5745Y765D1*
Y215D1*
X5746Y199D1*
X5748Y184D1*
X5752Y169D1*
X5758Y154D1*
X5765Y140D1*
X5774Y127D1*
X5784Y115D1*
X5795Y104D1*
X5807Y94D1*
X5820Y85D1*
X5834Y78D1*
X5849Y72D1*
X5864Y68D1*
X5879Y66D1*
X5895Y65D1*
X6445D1*
X6461Y66D1*
X6476Y68D1*
X6491Y72D1*
X6506Y78D1*
X6520Y85D1*
X6533Y94D1*
X6545Y104D1*
X6556Y115D1*
X6566Y127D1*
X6575Y140D1*
X6582Y154D1*
X6588Y169D1*
X6592Y184D1*
X6594Y199D1*
X6595Y215D1*
Y765D1*
X6594Y781D1*
X6592Y796D1*
X6588Y811D1*
X6582Y826D1*
X6575Y840D1*
X6566Y853D1*
X6556Y865D1*
X6545Y876D1*
X6533Y886D1*
X6520Y895D1*
X6506Y902D1*
X6491Y908D1*
X6476Y912D1*
X6461Y914D1*
X6445Y915D1*
G37*
G36*
X85Y245D2*
Y795D1*
X86Y811D1*
X88Y826D1*
X92Y841D1*
X98Y856D1*
X105Y870D1*
X114Y883D1*
X124Y895D1*
X135Y906D1*
X147Y916D1*
X160Y925D1*
X174Y932D1*
X189Y938D1*
X204Y942D1*
X219Y944D1*
X235Y945D1*
X785D1*
X801Y944D1*
X816Y942D1*
X831Y938D1*
X846Y932D1*
X860Y925D1*
X873Y916D1*
X885Y906D1*
X896Y895D1*
X906Y883D1*
X915Y870D1*
X922Y856D1*
X928Y841D1*
X932Y826D1*
X934Y811D1*
X935Y795D1*
Y245D1*
X934Y229D1*
X932Y214D1*
X928Y199D1*
X922Y184D1*
X915Y170D1*
X906Y157D1*
X896Y145D1*
X885Y134D1*
X873Y124D1*
X860Y115D1*
X846Y108D1*
X831Y102D1*
X816Y98D1*
X801Y96D1*
X785Y95D1*
X235D1*
X219Y96D1*
X204Y98D1*
X189Y102D1*
X174Y108D1*
X160Y115D1*
X147Y124D1*
X135Y134D1*
X124Y145D1*
X114Y157D1*
X105Y170D1*
X98Y184D1*
X92Y199D1*
X88Y214D1*
X86Y229D1*
X85Y245D1*
G37*
G36*
X1785Y95D2*
X1235D1*
X1219Y96D1*
X1204Y98D1*
X1189Y102D1*
X1174Y108D1*
X1160Y115D1*
X1147Y124D1*
X1135Y134D1*
X1124Y145D1*
X1114Y157D1*
X1105Y170D1*
X1098Y184D1*
X1092Y199D1*
X1088Y214D1*
X1086Y229D1*
X1085Y245D1*
Y795D1*
X1086Y811D1*
X1088Y826D1*
X1092Y841D1*
X1098Y856D1*
X1105Y870D1*
X1114Y883D1*
X1124Y895D1*
X1135Y906D1*
X1147Y916D1*
X1160Y925D1*
X1174Y932D1*
X1189Y938D1*
X1204Y942D1*
X1219Y944D1*
X1235Y945D1*
X1785D1*
X1801Y944D1*
X1816Y942D1*
X1831Y938D1*
X1846Y932D1*
X1860Y925D1*
X1873Y916D1*
X1885Y906D1*
X1896Y895D1*
X1906Y883D1*
X1915Y870D1*
X1922Y856D1*
X1928Y841D1*
X1932Y826D1*
X1934Y811D1*
X1935Y795D1*
Y245D1*
X1934Y229D1*
X1932Y214D1*
X1928Y199D1*
X1922Y184D1*
X1915Y170D1*
X1906Y157D1*
X1896Y145D1*
X1885Y134D1*
X1873Y124D1*
X1860Y115D1*
X1846Y108D1*
X1831Y102D1*
X1816Y98D1*
X1801Y96D1*
X1785Y95D1*
G37*
G36*
X2085Y795D2*
Y245D1*
X2086Y229D1*
X2088Y214D1*
X2092Y199D1*
X2098Y184D1*
X2105Y170D1*
X2114Y157D1*
X2124Y145D1*
X2135Y134D1*
X2147Y124D1*
X2160Y115D1*
X2174Y108D1*
X2189Y102D1*
X2204Y98D1*
X2219Y96D1*
X2235Y95D1*
X2785D1*
X2801Y96D1*
X2816Y98D1*
X2831Y102D1*
X2846Y108D1*
X2860Y115D1*
X2873Y124D1*
X2885Y134D1*
X2896Y145D1*
X2906Y157D1*
X2915Y170D1*
X2922Y184D1*
X2928Y199D1*
X2932Y214D1*
X2934Y229D1*
X2935Y245D1*
Y795D1*
X2934Y811D1*
X2932Y826D1*
X2928Y841D1*
X2922Y856D1*
X2915Y870D1*
X2906Y883D1*
X2896Y895D1*
X2885Y906D1*
X2873Y916D1*
X2860Y925D1*
X2846Y932D1*
X2831Y938D1*
X2816Y942D1*
X2801Y944D1*
X2785Y945D1*
X2235D1*
X2219Y944D1*
X2204Y942D1*
X2189Y938D1*
X2174Y932D1*
X2160Y925D1*
X2147Y916D1*
X2135Y906D1*
X2124Y895D1*
X2114Y883D1*
X2105Y870D1*
X2098Y856D1*
X2092Y841D1*
X2088Y826D1*
X2086Y811D1*
X2085Y795D1*
G37*
G36*
X3235Y95D2*
X3785D1*
X3801Y96D1*
X3816Y98D1*
X3831Y102D1*
X3846Y108D1*
X3860Y115D1*
X3873Y124D1*
X3885Y134D1*
X3896Y145D1*
X3906Y157D1*
X3915Y170D1*
X3922Y184D1*
X3928Y199D1*
X3932Y214D1*
X3934Y229D1*
X3935Y245D1*
Y795D1*
X3934Y811D1*
X3932Y826D1*
X3928Y841D1*
X3922Y856D1*
X3915Y870D1*
X3906Y883D1*
X3896Y895D1*
X3885Y906D1*
X3873Y916D1*
X3860Y925D1*
X3846Y932D1*
X3831Y938D1*
X3816Y942D1*
X3801Y944D1*
X3785Y945D1*
X3235D1*
X3219Y944D1*
X3204Y942D1*
X3189Y938D1*
X3174Y932D1*
X3160Y925D1*
X3147Y916D1*
X3135Y906D1*
X3124Y895D1*
X3114Y883D1*
X3105Y870D1*
X3098Y856D1*
X3092Y841D1*
X3088Y826D1*
X3086Y811D1*
X3085Y795D1*
Y245D1*
X3086Y229D1*
X3088Y214D1*
X3092Y199D1*
X3098Y184D1*
X3105Y170D1*
X3114Y157D1*
X3124Y145D1*
X3135Y134D1*
X3147Y124D1*
X3160Y115D1*
X3174Y108D1*
X3189Y102D1*
X3204Y98D1*
X3219Y96D1*
X3235Y95D1*
G37*
D22*
X4730Y800D3*
Y288D3*
D23*
X4570Y2240D3*
X4058D3*
D22*
X430Y4130D3*
Y4642D3*
X450Y3080D3*
Y3592D3*
X440Y5270D3*
Y5782D3*
X2610Y5900D3*
Y5388D3*
G36*
X4681Y1250D2*
X4477Y1045D1*
X5023D1*
Y1455D1*
X4477D1*
X4681Y1250D1*
G37*
G36*
X4118Y1455D2*
X4391D1*
X4595Y1250D1*
X4391Y1045D1*
X4118D1*
Y1455D1*
G37*
D24*
X3860Y5960D3*
X3269D3*
X4340D3*
X4931D3*
D25*
X450Y2590D3*
Y1881D3*
D28*
X1040Y5940D3*
Y5566D3*
Y5192D3*
X2064D3*
Y5940D3*
D22*
X3980Y2900D3*
Y3412D3*
D23*
X3050Y4920D3*
X2538D3*
D22*
X4290Y280D3*
Y792D3*
D23*
X4340Y5480D3*
X4852D3*
X3840D3*
X3328D3*
D22*
X4490Y2900D3*
Y3412D3*
D29*
X5880Y4280D3*
D30*
X5299Y3681D3*
X6461D3*
D31*
X6040Y4690D3*
Y5970D3*
D32*
X5670Y5330D3*
X6410D3*
G36*
X3300Y2503D2*
X3325Y2509D1*
X3346Y2526D1*
X3357Y2549D1*
Y2576D1*
X3346Y2599D1*
X3325Y2616D1*
X3300Y2622D1*
X3083D1*
X3057Y2616D1*
X3037Y2599D1*
X3025Y2576D1*
Y2549D1*
X3037Y2526D1*
X3057Y2509D1*
X3083Y2503D1*
X3300D1*
G37*
G36*
Y2700D2*
X3325Y2706D1*
X3346Y2723D1*
X3357Y2746D1*
Y2772D1*
X3346Y2796D1*
X3325Y2813D1*
X3300Y2818D1*
X3083D1*
X3057Y2813D1*
X3037Y2796D1*
X3025Y2772D1*
Y2746D1*
X3037Y2723D1*
X3057Y2706D1*
X3083Y2700D1*
X3300D1*
G37*
G36*
Y2897D2*
X3325Y2903D1*
X3346Y2919D1*
X3357Y2943D1*
Y2969D1*
X3346Y2993D1*
X3325Y3009D1*
X3300Y3015D1*
X3083D1*
X3057Y3009D1*
X3037Y2993D1*
X3025Y2969D1*
Y2943D1*
X3037Y2919D1*
X3057Y2903D1*
X3083Y2897D1*
X3300D1*
G37*
G36*
Y3094D2*
X3325Y3100D1*
X3346Y3116D1*
X3357Y3140D1*
Y3166D1*
X3346Y3190D1*
X3325Y3206D1*
X3300Y3212D1*
X3083D1*
X3057Y3206D1*
X3037Y3190D1*
X3025Y3166D1*
Y3140D1*
X3037Y3116D1*
X3057Y3100D1*
X3083Y3094D1*
X3300D1*
G37*
G36*
Y3291D2*
X3325Y3297D1*
X3346Y3313D1*
X3357Y3337D1*
Y3363D1*
X3346Y3387D1*
X3325Y3403D1*
X3300Y3409D1*
X3083D1*
X3057Y3403D1*
X3037Y3387D1*
X3025Y3363D1*
Y3337D1*
X3037Y3313D1*
X3057Y3297D1*
X3083Y3291D1*
X3300D1*
G37*
G36*
Y3488D2*
X3325Y3494D1*
X3346Y3510D1*
X3357Y3534D1*
Y3560D1*
X3346Y3584D1*
X3325Y3600D1*
X3300Y3606D1*
X3083D1*
X3057Y3600D1*
X3037Y3584D1*
X3025Y3560D1*
Y3534D1*
X3037Y3510D1*
X3057Y3494D1*
X3083Y3488D1*
X3300D1*
G37*
G36*
Y3685D2*
X3325Y3690D1*
X3346Y3707D1*
X3357Y3730D1*
Y3757D1*
X3346Y3780D1*
X3325Y3797D1*
X3300Y3803D1*
X3083D1*
X3057Y3797D1*
X3037Y3780D1*
X3025Y3757D1*
Y3730D1*
X3037Y3707D1*
X3057Y3690D1*
X3083Y3685D1*
X3300D1*
G37*
G36*
Y3881D2*
X3325Y3887D1*
X3346Y3904D1*
X3357Y3927D1*
Y3954D1*
X3346Y3977D1*
X3325Y3994D1*
X3300Y4000D1*
X3083D1*
X3057Y3994D1*
X3037Y3977D1*
X3025Y3954D1*
Y3927D1*
X3037Y3904D1*
X3057Y3887D1*
X3083Y3881D1*
X3300D1*
G37*
G36*
X2975Y4324D2*
X2969Y4350D1*
X2953Y4370D1*
X2929Y4382D1*
X2903D1*
X2879Y4370D1*
X2863Y4350D1*
X2857Y4324D1*
Y4108D1*
X2863Y4082D1*
X2879Y4062D1*
X2903Y4050D1*
X2929D1*
X2953Y4062D1*
X2969Y4082D1*
X2975Y4108D1*
Y4324D1*
G37*
G36*
X2778D2*
X2772Y4350D1*
X2756Y4370D1*
X2732Y4382D1*
X2706D1*
X2682Y4370D1*
X2666Y4350D1*
X2660Y4324D1*
Y4108D1*
X2666Y4082D1*
X2682Y4062D1*
X2706Y4050D1*
X2732D1*
X2756Y4062D1*
X2772Y4082D1*
X2778Y4108D1*
Y4324D1*
G37*
G36*
X2581D2*
X2575Y4350D1*
X2559Y4370D1*
X2535Y4382D1*
X2509D1*
X2485Y4370D1*
X2469Y4350D1*
X2463Y4324D1*
Y4108D1*
X2469Y4082D1*
X2485Y4062D1*
X2509Y4050D1*
X2535D1*
X2559Y4062D1*
X2575Y4082D1*
X2581Y4108D1*
Y4324D1*
G37*
G36*
X2384D2*
X2378Y4350D1*
X2362Y4370D1*
X2338Y4382D1*
X2312D1*
X2288Y4370D1*
X2272Y4350D1*
X2266Y4324D1*
Y4108D1*
X2272Y4082D1*
X2288Y4062D1*
X2312Y4050D1*
X2338D1*
X2362Y4062D1*
X2378Y4082D1*
X2384Y4108D1*
Y4324D1*
G37*
G36*
X2187D2*
X2182Y4350D1*
X2165Y4370D1*
X2141Y4382D1*
X2115D1*
X2092Y4370D1*
X2075Y4350D1*
X2069Y4324D1*
Y4108D1*
X2075Y4082D1*
X2092Y4062D1*
X2115Y4050D1*
X2141D1*
X2165Y4062D1*
X2182Y4082D1*
X2187Y4108D1*
Y4324D1*
G37*
G36*
X1991D2*
X1985Y4350D1*
X1968Y4370D1*
X1945Y4382D1*
X1918D1*
X1895Y4370D1*
X1878Y4350D1*
X1872Y4324D1*
Y4108D1*
X1878Y4082D1*
X1895Y4062D1*
X1918Y4050D1*
X1945D1*
X1968Y4062D1*
X1985Y4082D1*
X1991Y4108D1*
Y4324D1*
G37*
G36*
X1794D2*
X1788Y4350D1*
X1771Y4370D1*
X1748Y4382D1*
X1722D1*
X1698Y4370D1*
X1681Y4350D1*
X1676Y4324D1*
Y4108D1*
X1681Y4082D1*
X1698Y4062D1*
X1722Y4050D1*
X1748D1*
X1771Y4062D1*
X1788Y4082D1*
X1794Y4108D1*
Y4324D1*
G37*
G36*
X1597D2*
X1591Y4350D1*
X1575Y4370D1*
X1551Y4382D1*
X1525D1*
X1501Y4370D1*
X1485Y4350D1*
X1479Y4324D1*
Y4108D1*
X1485Y4082D1*
X1501Y4062D1*
X1525Y4050D1*
X1551D1*
X1575Y4062D1*
X1591Y4082D1*
X1597Y4108D1*
Y4324D1*
G37*
G36*
X1370Y3881D2*
X1396Y3887D1*
X1417Y3904D1*
X1428Y3927D1*
Y3954D1*
X1417Y3977D1*
X1396Y3994D1*
X1370Y4000D1*
X1154D1*
X1128Y3994D1*
X1108Y3977D1*
X1096Y3954D1*
Y3927D1*
X1108Y3904D1*
X1128Y3887D1*
X1154Y3881D1*
X1370D1*
G37*
G36*
Y3685D2*
X1396Y3690D1*
X1417Y3707D1*
X1428Y3730D1*
Y3757D1*
X1417Y3780D1*
X1396Y3797D1*
X1370Y3803D1*
X1154D1*
X1128Y3797D1*
X1108Y3780D1*
X1096Y3757D1*
Y3730D1*
X1108Y3707D1*
X1128Y3690D1*
X1154Y3685D1*
X1370D1*
G37*
G36*
Y3488D2*
X1396Y3494D1*
X1417Y3510D1*
X1428Y3534D1*
Y3560D1*
X1417Y3584D1*
X1396Y3600D1*
X1370Y3606D1*
X1154D1*
X1128Y3600D1*
X1108Y3584D1*
X1096Y3560D1*
Y3534D1*
X1108Y3510D1*
X1128Y3494D1*
X1154Y3488D1*
X1370D1*
G37*
G36*
Y3291D2*
X1396Y3297D1*
X1417Y3313D1*
X1428Y3337D1*
Y3363D1*
X1417Y3387D1*
X1396Y3403D1*
X1370Y3409D1*
X1154D1*
X1128Y3403D1*
X1108Y3387D1*
X1096Y3363D1*
Y3337D1*
X1108Y3313D1*
X1128Y3297D1*
X1154Y3291D1*
X1370D1*
G37*
G36*
Y3094D2*
X1396Y3100D1*
X1417Y3116D1*
X1428Y3140D1*
Y3166D1*
X1417Y3190D1*
X1396Y3206D1*
X1370Y3212D1*
X1154D1*
X1128Y3206D1*
X1108Y3190D1*
X1096Y3166D1*
Y3140D1*
X1108Y3116D1*
X1128Y3100D1*
X1154Y3094D1*
X1370D1*
G37*
G36*
Y2897D2*
X1396Y2903D1*
X1417Y2919D1*
X1428Y2943D1*
Y2969D1*
X1417Y2993D1*
X1396Y3009D1*
X1370Y3015D1*
X1154D1*
X1128Y3009D1*
X1108Y2993D1*
X1096Y2969D1*
Y2943D1*
X1108Y2919D1*
X1128Y2903D1*
X1154Y2897D1*
X1370D1*
G37*
G36*
Y2700D2*
X1396Y2706D1*
X1417Y2723D1*
X1428Y2746D1*
Y2772D1*
X1417Y2796D1*
X1396Y2813D1*
X1370Y2818D1*
X1154D1*
X1128Y2813D1*
X1108Y2796D1*
X1096Y2772D1*
Y2746D1*
X1108Y2723D1*
X1128Y2706D1*
X1154Y2700D1*
X1370D1*
G37*
G36*
Y2503D2*
X1396Y2509D1*
X1417Y2526D1*
X1428Y2549D1*
Y2576D1*
X1417Y2599D1*
X1396Y2616D1*
X1370Y2622D1*
X1154D1*
X1128Y2616D1*
X1108Y2599D1*
X1096Y2576D1*
Y2549D1*
X1108Y2526D1*
X1128Y2509D1*
X1154Y2503D1*
X1370D1*
G37*
G36*
X1597Y2395D2*
X1591Y2421D1*
X1575Y2441D1*
X1551Y2453D1*
X1525D1*
X1501Y2441D1*
X1485Y2421D1*
X1479Y2395D1*
Y2179D1*
X1485Y2153D1*
X1501Y2132D1*
X1525Y2121D1*
X1551D1*
X1575Y2132D1*
X1591Y2153D1*
X1597Y2179D1*
Y2395D1*
G37*
G36*
X1794D2*
X1788Y2421D1*
X1771Y2441D1*
X1748Y2453D1*
X1722D1*
X1698Y2441D1*
X1681Y2421D1*
X1676Y2395D1*
Y2179D1*
X1681Y2153D1*
X1698Y2132D1*
X1722Y2121D1*
X1748D1*
X1771Y2132D1*
X1788Y2153D1*
X1794Y2179D1*
Y2395D1*
G37*
G36*
X1991D2*
X1985Y2421D1*
X1968Y2441D1*
X1945Y2453D1*
X1918D1*
X1895Y2441D1*
X1878Y2421D1*
X1872Y2395D1*
Y2179D1*
X1878Y2153D1*
X1895Y2132D1*
X1918Y2121D1*
X1945D1*
X1968Y2132D1*
X1985Y2153D1*
X1991Y2179D1*
Y2395D1*
G37*
G36*
X2187D2*
X2182Y2421D1*
X2165Y2441D1*
X2141Y2453D1*
X2115D1*
X2092Y2441D1*
X2075Y2421D1*
X2069Y2395D1*
Y2179D1*
X2075Y2153D1*
X2092Y2132D1*
X2115Y2121D1*
X2141D1*
X2165Y2132D1*
X2182Y2153D1*
X2187Y2179D1*
Y2395D1*
G37*
G36*
X2384D2*
X2378Y2421D1*
X2362Y2441D1*
X2338Y2453D1*
X2312D1*
X2288Y2441D1*
X2272Y2421D1*
X2266Y2395D1*
Y2179D1*
X2272Y2153D1*
X2288Y2132D1*
X2312Y2121D1*
X2338D1*
X2362Y2132D1*
X2378Y2153D1*
X2384Y2179D1*
Y2395D1*
G37*
G36*
X2581D2*
X2575Y2421D1*
X2559Y2441D1*
X2535Y2453D1*
X2509D1*
X2485Y2441D1*
X2469Y2421D1*
X2463Y2395D1*
Y2179D1*
X2469Y2153D1*
X2485Y2132D1*
X2509Y2121D1*
X2535D1*
X2559Y2132D1*
X2575Y2153D1*
X2581Y2179D1*
Y2395D1*
G37*
G36*
X2778D2*
X2772Y2421D1*
X2756Y2441D1*
X2732Y2453D1*
X2706D1*
X2682Y2441D1*
X2666Y2421D1*
X2660Y2395D1*
Y2179D1*
X2666Y2153D1*
X2682Y2132D1*
X2706Y2121D1*
X2732D1*
X2756Y2132D1*
X2772Y2153D1*
X2778Y2179D1*
Y2395D1*
G37*
G36*
X2975D2*
X2969Y2421D1*
X2953Y2441D1*
X2929Y2453D1*
X2903D1*
X2879Y2441D1*
X2863Y2421D1*
X2857Y2395D1*
Y2179D1*
X2863Y2153D1*
X2879Y2132D1*
X2903Y2121D1*
X2929D1*
X2953Y2132D1*
X2969Y2153D1*
X2975Y2179D1*
Y2395D1*
G37*
G36*
X2867Y2612D2*
X1587D1*
Y3891D1*
X2867D1*
Y2612D1*
G37*
D34*
X4910Y2640D3*
G36*
X4535Y4298D2*
X4810D1*
Y4967D1*
X4535D1*
Y4298D1*
G37*
G36*
X4062D2*
X4338D1*
Y4967D1*
X4062D1*
Y4298D1*
G37*
G36*
X3590D2*
X3865D1*
Y4967D1*
X3590D1*
Y4298D1*
G37*
M02*
