G04 DipTrace Beta 2.3.5.2*
%INsubMicroLRSv2.G2L*%
%MOIN*%
%ADD13C,0.008*%
%ADD16C,0.025*%
%ADD17C,0.012*%
%ADD18C,0.015*%
%ADD19C,0.007*%
%ADD35C,0.018*%
%ADD36C,0.027*%
%ADD37C,0.03*%
%FSLAX44Y44*%
G04*
G70*
G90*
G75*
G01*
%LNInner1*%
%LPD*%
X1525Y4525D2*
D13*
X1500D1*
Y3062D1*
X1375Y2937D1*
Y2105D1*
X1200Y1930D1*
X1190D1*
X3188Y2182D2*
Y4187D1*
X3350Y4350D1*
Y4910D1*
X3030Y5230D1*
X2580Y1720D2*
Y1710D1*
X2880Y1410D1*
X5220D1*
X5710Y920D1*
X5690D1*
X4700Y1670D2*
X4630Y1600D1*
X3025D1*
X2812Y1812D1*
X1688Y5940D2*
D16*
X2810D1*
X3300Y5450D1*
Y5280D1*
X3904Y4676D1*
X4137D1*
X4872Y3940D1*
X5730Y3082D1*
X4510Y3720D2*
D17*
X4730Y3940D1*
X4872D1*
X850Y2430D2*
D18*
X750D1*
X460Y2720D1*
Y3270D1*
X625Y3435D1*
Y4365D1*
X937Y4677D1*
Y5000D1*
D35*
X3500Y2750D3*
X4750Y3130D3*
X950Y3550D3*
X3500Y2750D3*
X1525Y4525D3*
X1190Y1930D3*
X3030Y5230D3*
X3840Y5188D3*
X2700Y4500D3*
X4125Y5188D3*
X3160Y4590D3*
X2326Y2000D3*
X2580Y1720D3*
X5690Y920D3*
X1000Y4290D3*
D3*
X2812Y1812D3*
D36*
X1688Y5940D3*
X5730Y3082D3*
D35*
X4510Y3720D3*
D3*
X937Y5000D3*
X420Y6020D3*
X4700Y1670D3*
X4100Y5950D3*
X840Y2730D3*
X3060Y1820D3*
X1500Y500D3*
X6020Y5320D3*
X5810Y3630D3*
X500Y500D3*
X438Y4938D3*
X2220Y5530D3*
X850Y2430D3*
X875Y1937D3*
D37*
X6150Y5900D3*
D35*
X1812Y4562D3*
X313Y687D3*
X5030Y1060D3*
X1910Y5530D3*
X3750Y2188D3*
X3188Y2182D3*
X5860Y1520D3*
X5870Y2380D3*
X5850Y480D3*
X1313Y688D3*
X1688D3*
X1313Y313D3*
X1688D3*
X2550Y3250D3*
X2020Y3800D3*
X5313Y6000D3*
X5250Y5625D3*
Y5313D3*
X688Y687D3*
X313Y313D3*
X688D3*
X2500Y500D3*
X2313Y687D3*
X2688D3*
X2313Y313D3*
X2688D3*
X3500Y500D3*
X3313Y687D3*
X3688D3*
X3313Y313D3*
X3688D3*
X5250Y5000D3*
Y4688D3*
X4437Y5125D3*
X4938D3*
X2125Y4813D3*
X5250Y4312D3*
X6438Y5125D3*
X1625Y2688D3*
X813Y3062D3*
X162Y6076D2*
D19*
X1480D1*
X3011D2*
X5954D1*
X6346D2*
X6531D1*
X162Y6007D2*
X1447D1*
X3080D2*
X5908D1*
X6391D2*
X6531D1*
X162Y5938D2*
X1438D1*
X3147D2*
X5889D1*
X6412D2*
X6531D1*
X162Y5869D2*
X1448D1*
X3216D2*
X5887D1*
X6413D2*
X6531D1*
X162Y5801D2*
X1482D1*
X3285D2*
X5905D1*
X6395D2*
X6531D1*
X162Y5732D2*
X1555D1*
X3354D2*
X5948D1*
X6352D2*
X6531D1*
X162Y5663D2*
X2751D1*
X3423D2*
X6041D1*
X6259D2*
X6531D1*
X162Y5595D2*
X2819D1*
X3490D2*
X6531D1*
X162Y5526D2*
X2888D1*
X3527D2*
X6531D1*
X162Y5457D2*
X2956D1*
X3540D2*
X6531D1*
X162Y5389D2*
X2905D1*
X3540D2*
X6531D1*
X162Y5320D2*
X2847D1*
X3596D2*
X3686D1*
X4278D2*
X6531D1*
X162Y5251D2*
X2826D1*
X4319D2*
X6531D1*
X162Y5183D2*
X855D1*
X1020D2*
X2832D1*
X4330D2*
X6531D1*
X162Y5114D2*
X769D1*
X1106D2*
X2863D1*
X4316D2*
X6531D1*
X162Y5045D2*
X738D1*
X1137D2*
X2953D1*
X4270D2*
X6531D1*
X162Y4977D2*
X734D1*
X1140D2*
X3068D1*
X3939D2*
X6531D1*
X162Y4908D2*
X748D1*
X1127D2*
X3137D1*
X4158D2*
X6531D1*
X162Y4839D2*
X748D1*
X1127D2*
X3196D1*
X4309D2*
X6531D1*
X162Y4770D2*
X748D1*
X1127D2*
X3072D1*
X4378D2*
X6531D1*
X162Y4702D2*
X697D1*
X1127D2*
X1429D1*
X1621D2*
X1666D1*
X1960D2*
X2990D1*
X3505D2*
X3542D1*
X4447D2*
X6531D1*
X162Y4633D2*
X628D1*
X1122D2*
X1353D1*
X2004D2*
X2547D1*
X2853D2*
X2961D1*
X3505D2*
X3611D1*
X4516D2*
X6531D1*
X162Y4564D2*
X559D1*
X1088D2*
X1324D1*
X2018D2*
X2506D1*
X2894D2*
X2957D1*
X3505D2*
X3679D1*
X4585D2*
X6531D1*
X162Y4496D2*
X491D1*
X1021D2*
X1322D1*
X2006D2*
X2496D1*
X2905D2*
X2979D1*
X3505D2*
X3750D1*
X4652D2*
X6531D1*
X162Y4427D2*
X446D1*
X1149D2*
X1345D1*
X1964D2*
X2509D1*
X2890D2*
X3042D1*
X3505D2*
X4050D1*
X4721D2*
X6531D1*
X162Y4358D2*
X435D1*
X1193D2*
X1345D1*
X1654D2*
X2555D1*
X2844D2*
X3142D1*
X3505D2*
X4118D1*
X4790D2*
X6531D1*
X162Y4290D2*
X435D1*
X1205D2*
X1345D1*
X1654D2*
X3074D1*
X3492D2*
X4187D1*
X4859D2*
X6531D1*
X162Y4221D2*
X435D1*
X1192D2*
X1345D1*
X1654D2*
X3037D1*
X3437D2*
X4256D1*
X4928D2*
X6531D1*
X162Y4152D2*
X435D1*
X814D2*
X851D1*
X1149D2*
X1345D1*
X1654D2*
X3033D1*
X3368D2*
X4324D1*
X4996D2*
X6531D1*
X162Y4084D2*
X435D1*
X814D2*
X1345D1*
X1654D2*
X3033D1*
X3342D2*
X4393D1*
X5065D2*
X6531D1*
X162Y4015D2*
X435D1*
X814D2*
X1345D1*
X1654D2*
X3033D1*
X3342D2*
X4461D1*
X5134D2*
X6531D1*
X162Y3946D2*
X435D1*
X814D2*
X1345D1*
X1654D2*
X3033D1*
X3342D2*
X4492D1*
X5203D2*
X6531D1*
X162Y3878D2*
X435D1*
X814D2*
X1345D1*
X1654D2*
X3033D1*
X3342D2*
X4384D1*
X5271D2*
X6531D1*
X162Y3809D2*
X435D1*
X814D2*
X1345D1*
X1654D2*
X3033D1*
X3342D2*
X4327D1*
X5339D2*
X6531D1*
X162Y3740D2*
X435D1*
X814D2*
X889D1*
X1011D2*
X1345D1*
X1654D2*
X3033D1*
X3342D2*
X4306D1*
X5408D2*
X6531D1*
X162Y3671D2*
X435D1*
X1113D2*
X1345D1*
X1654D2*
X3033D1*
X3342D2*
X4311D1*
X4708D2*
X4805D1*
X5477D2*
X6531D1*
X162Y3603D2*
X435D1*
X1148D2*
X1345D1*
X1654D2*
X3033D1*
X3342D2*
X4344D1*
X4676D2*
X4874D1*
X5546D2*
X6531D1*
X162Y3534D2*
X435D1*
X1153D2*
X1345D1*
X1654D2*
X3033D1*
X3342D2*
X4436D1*
X4585D2*
X4942D1*
X5615D2*
X6531D1*
X162Y3465D2*
X390D1*
X1136D2*
X1345D1*
X1654D2*
X3033D1*
X3342D2*
X5011D1*
X5683D2*
X6531D1*
X162Y3397D2*
X321D1*
X1081D2*
X1345D1*
X1654D2*
X3033D1*
X3342D2*
X5080D1*
X5752D2*
X6531D1*
X162Y3328D2*
X280D1*
X781D2*
X1345D1*
X1654D2*
X3033D1*
X3342D2*
X5148D1*
X5821D2*
X6531D1*
X162Y3259D2*
X270D1*
X715D2*
X1345D1*
X1654D2*
X3033D1*
X3342D2*
X4594D1*
X4906D2*
X5217D1*
X5904D2*
X6531D1*
X162Y3191D2*
X270D1*
X649D2*
X1345D1*
X1654D2*
X3033D1*
X3342D2*
X4555D1*
X4946D2*
X5286D1*
X5954D2*
X6531D1*
X162Y3122D2*
X270D1*
X649D2*
X1344D1*
X1654D2*
X3033D1*
X3342D2*
X4545D1*
X4954D2*
X5355D1*
X5977D2*
X6531D1*
X162Y3053D2*
X270D1*
X649D2*
X1275D1*
X1654D2*
X3033D1*
X3342D2*
X4561D1*
X4939D2*
X5424D1*
X5978D2*
X6531D1*
X162Y2985D2*
X270D1*
X649D2*
X1228D1*
X1633D2*
X3033D1*
X3342D2*
X4609D1*
X4891D2*
X5492D1*
X5959D2*
X6531D1*
X162Y2916D2*
X270D1*
X649D2*
X765D1*
X914D2*
X1220D1*
X1569D2*
X3033D1*
X3342D2*
X3386D1*
X3614D2*
X5546D1*
X5913D2*
X6531D1*
X162Y2847D2*
X270D1*
X1006D2*
X1220D1*
X1530D2*
X3033D1*
X3679D2*
X5663D1*
X5796D2*
X6531D1*
X162Y2779D2*
X270D1*
X1039D2*
X1220D1*
X1530D2*
X3033D1*
X3703D2*
X6531D1*
X162Y2710D2*
X271D1*
X1044D2*
X1220D1*
X1530D2*
X3033D1*
X3701D2*
X6531D1*
X162Y2641D2*
X289D1*
X1023D2*
X1220D1*
X1530D2*
X3033D1*
X3672D2*
X6531D1*
X162Y2572D2*
X342D1*
X994D2*
X1220D1*
X1530D2*
X3033D1*
X3342D2*
X3406D1*
X3594D2*
X5817D1*
X5922D2*
X6531D1*
X162Y2504D2*
X411D1*
X1041D2*
X1220D1*
X1530D2*
X3033D1*
X3342D2*
X5709D1*
X6032D2*
X6531D1*
X162Y2435D2*
X480D1*
X1055D2*
X1220D1*
X1530D2*
X3033D1*
X3342D2*
X5673D1*
X6067D2*
X6531D1*
X162Y2366D2*
X548D1*
X1044D2*
X1220D1*
X1530D2*
X3033D1*
X3342D2*
X3658D1*
X3841D2*
X5665D1*
X6074D2*
X6531D1*
X162Y2298D2*
X617D1*
X1004D2*
X1220D1*
X1530D2*
X3020D1*
X3355D2*
X3579D1*
X3921D2*
X5683D1*
X6057D2*
X6531D1*
X162Y2229D2*
X1220D1*
X1530D2*
X2988D1*
X3387D2*
X3550D1*
X3950D2*
X5735D1*
X6004D2*
X6531D1*
X162Y2160D2*
X1215D1*
X1530D2*
X2204D1*
X2448D2*
X2984D1*
X3391D2*
X3547D1*
X3952D2*
X6531D1*
X162Y2092D2*
X745D1*
X1006D2*
X1069D1*
X1529D2*
X2144D1*
X2508D2*
X3005D1*
X3371D2*
X3570D1*
X3929D2*
X6531D1*
X162Y2023D2*
X690D1*
X1505D2*
X2123D1*
X2529D2*
X3063D1*
X3311D2*
X3633D1*
X3867D2*
X6531D1*
X162Y1954D2*
X671D1*
X1440D2*
X2127D1*
X2525D2*
X2667D1*
X3212D2*
X6531D1*
X162Y1886D2*
X677D1*
X1390D2*
X2158D1*
X3253D2*
X6531D1*
X162Y1817D2*
X712D1*
X1359D2*
X2244D1*
X3264D2*
X4561D1*
X4839D2*
X6531D1*
X162Y1748D2*
X811D1*
X939D2*
X1106D1*
X1275D2*
X2378D1*
X3251D2*
X4512D1*
X4889D2*
X6531D1*
X162Y1680D2*
X2380D1*
X4904D2*
X5737D1*
X5983D2*
X6531D1*
X162Y1611D2*
X2408D1*
X4895D2*
X5677D1*
X6043D2*
X6531D1*
X162Y1542D2*
X2487D1*
X5293D2*
X5657D1*
X6063D2*
X6531D1*
X162Y1473D2*
X2601D1*
X5372D2*
X5661D1*
X6059D2*
X6531D1*
X162Y1405D2*
X2670D1*
X5441D2*
X5693D1*
X6027D2*
X6531D1*
X162Y1336D2*
X2739D1*
X5510D2*
X5780D1*
X5940D2*
X6531D1*
X162Y1267D2*
X2835D1*
X5579D2*
X6531D1*
X162Y1199D2*
X5216D1*
X5647D2*
X6531D1*
X162Y1130D2*
X5284D1*
X5716D2*
X6531D1*
X162Y1061D2*
X5353D1*
X5835D2*
X6531D1*
X162Y993D2*
X5422D1*
X5881D2*
X6531D1*
X162Y924D2*
X5485D1*
X5895D2*
X6531D1*
X162Y855D2*
X1201D1*
X1424D2*
X1576D1*
X1799D2*
X2202D1*
X2424D2*
X2576D1*
X2800D2*
X3201D1*
X3424D2*
X3576D1*
X3799D2*
X5496D1*
X5884D2*
X6531D1*
X162Y787D2*
X1134D1*
X1866D2*
X2135D1*
X2865D2*
X3134D1*
X3866D2*
X5537D1*
X5842D2*
X6531D1*
X162Y718D2*
X1110D1*
X1890D2*
X2111D1*
X2890D2*
X3110D1*
X3890D2*
X6531D1*
X162Y649D2*
X1111D1*
X1888D2*
X2112D1*
X2888D2*
X3112D1*
X3889D2*
X5741D1*
X5959D2*
X6531D1*
X162Y581D2*
X1139D1*
X1861D2*
X2139D1*
X2861D2*
X3139D1*
X3861D2*
X5673D1*
X6027D2*
X6531D1*
X162Y512D2*
X1215D1*
X1785D2*
X2215D1*
X2785D2*
X3215D1*
X3785D2*
X5648D1*
X6052D2*
X6531D1*
X162Y443D2*
X1157D1*
X1843D2*
X2157D1*
X2843D2*
X3157D1*
X3843D2*
X5649D1*
X6051D2*
X6531D1*
X162Y374D2*
X1118D1*
X1882D2*
X2117D1*
X2883D2*
X3118D1*
X3882D2*
X5676D1*
X6024D2*
X6531D1*
X162Y306D2*
X1108D1*
X1892D2*
X2107D1*
X2893D2*
X3108D1*
X3892D2*
X5750D1*
X5951D2*
X6531D1*
X162Y237D2*
X1123D1*
X1878D2*
X2123D1*
X2877D2*
X3122D1*
X3877D2*
X6531D1*
X162Y168D2*
X1170D1*
X1829D2*
X2170D1*
X2830D2*
X3171D1*
X3830D2*
X6531D1*
X4895Y1635D2*
X4886Y1601D1*
X4871Y1570D1*
X4862Y1558D1*
X5220D1*
X5255Y1554D1*
X5287Y1542D1*
X5325Y1515D1*
X5724Y1115D1*
X5770Y1101D1*
X5801Y1084D1*
X5828Y1062D1*
X5851Y1035D1*
X5869Y1005D1*
X5881Y972D1*
X5888Y920D1*
X5885Y885D1*
X5876Y851D1*
X5861Y820D1*
X5840Y791D1*
X5815Y767D1*
X5786Y747D1*
X5755Y733D1*
X5721Y725D1*
X5686Y722D1*
X5651Y726D1*
X5617Y736D1*
X5586Y752D1*
X5558Y773D1*
X5534Y798D1*
X5515Y827D1*
X5502Y860D1*
X5494Y894D1*
X5493Y930D1*
X5333Y1088D1*
X5159Y1262D1*
X3925D1*
X2880D1*
X2845Y1266D1*
X2813Y1278D1*
X2775Y1305D1*
X2557Y1524D1*
X2541Y1526D1*
X2507Y1536D1*
X2476Y1552D1*
X2448Y1573D1*
X2424Y1598D1*
X2405Y1627D1*
X2392Y1660D1*
X2384Y1694D1*
X2382Y1729D1*
X2387Y1763D1*
X2398Y1797D1*
X2410Y1821D1*
X2357Y1805D1*
X2322Y1802D1*
X2287Y1806D1*
X2253Y1816D1*
X2222Y1832D1*
X2194Y1853D1*
X2170Y1878D1*
X2151Y1907D1*
X2138Y1940D1*
X2130Y1974D1*
X2128Y2009D1*
X2133Y2043D1*
X2144Y2077D1*
X2160Y2107D1*
X2181Y2135D1*
X2207Y2158D1*
X2237Y2177D1*
X2270Y2190D1*
X2304Y2197D1*
X2339D1*
X2373Y2192D1*
X2406Y2181D1*
X2437Y2164D1*
X2464Y2142D1*
X2487Y2115D1*
X2505Y2085D1*
X2517Y2052D1*
X2524Y2000D1*
X2521Y1965D1*
X2511Y1931D1*
X2496Y1899D1*
X2524Y1910D1*
X2558Y1917D1*
X2593D1*
X2639Y1908D1*
X2668Y1947D1*
X2694Y1971D1*
X2724Y1989D1*
X2756Y2002D1*
X2790Y2009D1*
X2825Y2010D1*
X2860Y2005D1*
X2893Y1993D1*
X2931Y1970D1*
X2971Y1997D1*
X3004Y2010D1*
X3038Y2017D1*
X3080Y2016D1*
X3056Y2035D1*
X3032Y2061D1*
X3013Y2090D1*
X2999Y2122D1*
X2991Y2156D1*
X2990Y2191D1*
X2994Y2226D1*
X3005Y2259D1*
X3021Y2290D1*
X3040Y2313D1*
Y4187D1*
X3044Y4222D1*
X3056Y4255D1*
X3083Y4292D1*
X3184Y4393D1*
X3156Y4392D1*
X3121Y4396D1*
X3087Y4406D1*
X3056Y4422D1*
X3028Y4443D1*
X3004Y4468D1*
X2985Y4497D1*
X2972Y4530D1*
X2964Y4564D1*
X2962Y4599D1*
X2967Y4633D1*
X2978Y4667D1*
X2994Y4697D1*
X3015Y4725D1*
X3041Y4748D1*
X3071Y4767D1*
X3104Y4780D1*
X3138Y4787D1*
X3173D1*
X3202Y4783D1*
Y4850D1*
X3019Y5032D1*
X2991Y5036D1*
X2957Y5046D1*
X2926Y5062D1*
X2898Y5083D1*
X2874Y5108D1*
X2855Y5137D1*
X2842Y5170D1*
X2834Y5204D1*
X2832Y5239D1*
X2837Y5273D1*
X2848Y5307D1*
X2864Y5337D1*
X2885Y5365D1*
X2911Y5388D1*
X2941Y5407D1*
X2974Y5420D1*
X2996Y5424D1*
X2714Y5707D1*
X1757D1*
X1719Y5699D1*
X1684Y5697D1*
X1649Y5700D1*
X1615Y5708D1*
X1582Y5721D1*
X1552Y5738D1*
X1525Y5760D1*
X1500Y5785D1*
X1480Y5814D1*
X1464Y5845D1*
X1453Y5878D1*
X1446Y5912D1*
X1445Y5947D1*
X1448Y5982D1*
X1457Y6016D1*
X1470Y6048D1*
X1488Y6078D1*
X1510Y6106D1*
X1536Y6129D1*
X1558Y6145D1*
X1043Y6144D1*
X155D1*
Y155D1*
X1193D1*
X1157Y191D1*
X1138Y220D1*
X1124Y252D1*
X1116Y286D1*
X1115Y321D1*
X1119Y356D1*
X1130Y389D1*
X1146Y420D1*
X1168Y448D1*
X1194Y471D1*
X1224Y489D1*
X1251Y500D1*
X1209Y519D1*
X1181Y540D1*
X1157Y566D1*
X1138Y595D1*
X1124Y627D1*
X1116Y661D1*
X1115Y696D1*
X1119Y731D1*
X1130Y764D1*
X1146Y795D1*
X1168Y823D1*
X1194Y846D1*
X1224Y864D1*
X1256Y877D1*
X1290Y884D1*
X1325Y885D1*
X1360Y880D1*
X1393Y868D1*
X1424Y851D1*
X1451Y829D1*
X1473Y803D1*
X1491Y772D1*
X1500Y749D1*
X1521Y795D1*
X1543Y823D1*
X1569Y846D1*
X1599Y864D1*
X1631Y877D1*
X1665Y884D1*
X1700Y885D1*
X1735Y880D1*
X1768Y868D1*
X1799Y851D1*
X1826Y829D1*
X1848Y803D1*
X1866Y772D1*
X1878Y740D1*
X1885Y688D1*
X1882Y653D1*
X1873Y619D1*
X1858Y587D1*
X1838Y559D1*
X1813Y534D1*
X1784Y515D1*
X1751Y500D1*
X1799Y476D1*
X1826Y454D1*
X1848Y428D1*
X1866Y397D1*
X1878Y365D1*
X1885Y313D1*
X1882Y278D1*
X1873Y244D1*
X1858Y212D1*
X1838Y184D1*
X1806Y155D1*
X2193D1*
X2157Y191D1*
X2138Y220D1*
X2124Y252D1*
X2116Y286D1*
X2115Y321D1*
X2119Y356D1*
X2130Y389D1*
X2146Y420D1*
X2168Y448D1*
X2194Y471D1*
X2224Y489D1*
X2251Y500D1*
X2209Y519D1*
X2181Y540D1*
X2157Y566D1*
X2138Y595D1*
X2124Y627D1*
X2116Y661D1*
X2115Y696D1*
X2119Y731D1*
X2130Y764D1*
X2146Y795D1*
X2168Y822D1*
X2194Y846D1*
X2224Y864D1*
X2256Y877D1*
X2290Y884D1*
X2325Y885D1*
X2360Y880D1*
X2393Y868D1*
X2424Y851D1*
X2451Y829D1*
X2473Y803D1*
X2491Y772D1*
X2500Y749D1*
X2521Y795D1*
X2543Y822D1*
X2569Y846D1*
X2599Y864D1*
X2631Y877D1*
X2665Y884D1*
X2700Y885D1*
X2735Y880D1*
X2768Y868D1*
X2799Y851D1*
X2826Y829D1*
X2848Y803D1*
X2866Y772D1*
X2878Y740D1*
X2885Y687D1*
X2882Y653D1*
X2873Y619D1*
X2858Y587D1*
X2838Y559D1*
X2813Y534D1*
X2784Y515D1*
X2751Y500D1*
X2799Y476D1*
X2826Y454D1*
X2848Y428D1*
X2866Y397D1*
X2878Y365D1*
X2885Y313D1*
X2882Y278D1*
X2873Y244D1*
X2858Y212D1*
X2838Y184D1*
X2806Y155D1*
X3192D1*
X3157Y191D1*
X3138Y220D1*
X3124Y252D1*
X3116Y286D1*
X3115Y321D1*
X3119Y356D1*
X3130Y389D1*
X3146Y420D1*
X3168Y448D1*
X3194Y471D1*
X3224Y489D1*
X3251Y500D1*
X3209Y519D1*
X3181Y540D1*
X3157Y566D1*
X3138Y595D1*
X3124Y627D1*
X3116Y661D1*
X3115Y696D1*
X3119Y731D1*
X3130Y764D1*
X3146Y795D1*
X3168Y822D1*
X3194Y846D1*
X3224Y864D1*
X3256Y877D1*
X3290Y884D1*
X3325Y885D1*
X3360Y880D1*
X3393Y868D1*
X3424Y851D1*
X3451Y829D1*
X3473Y803D1*
X3491Y772D1*
X3500Y749D1*
X3521Y795D1*
X3543Y822D1*
X3569Y846D1*
X3599Y864D1*
X3631Y877D1*
X3665Y884D1*
X3700Y885D1*
X3735Y880D1*
X3768Y868D1*
X3799Y851D1*
X3826Y829D1*
X3848Y803D1*
X3866Y772D1*
X3878Y740D1*
X3885Y687D1*
X3882Y653D1*
X3873Y619D1*
X3858Y587D1*
X3838Y559D1*
X3813Y534D1*
X3784Y515D1*
X3751Y500D1*
X3799Y476D1*
X3826Y454D1*
X3848Y428D1*
X3866Y397D1*
X3878Y365D1*
X3885Y313D1*
X3882Y278D1*
X3873Y244D1*
X3858Y212D1*
X3838Y184D1*
X3806Y155D1*
X6538D1*
Y6144D1*
X6233D1*
X6261Y6133D1*
X6292Y6115D1*
X6320Y6094D1*
X6344Y6069D1*
X6365Y6042D1*
X6383Y6011D1*
X6396Y5979D1*
X6404Y5945D1*
X6408Y5900D1*
X6405Y5865D1*
X6398Y5831D1*
X6387Y5798D1*
X6371Y5767D1*
X6351Y5738D1*
X6327Y5712D1*
X6300Y5690D1*
X6270Y5672D1*
X6238Y5658D1*
X6205Y5648D1*
X6170Y5643D1*
X6135D1*
X6100Y5647D1*
X6066Y5656D1*
X6034Y5670D1*
X6004Y5687D1*
X5977Y5709D1*
X5952Y5734D1*
X5932Y5763D1*
X5915Y5793D1*
X5903Y5826D1*
X5895Y5860D1*
X5892Y5895D1*
X5894Y5930D1*
X5900Y5964D1*
X5911Y5998D1*
X5927Y6029D1*
X5946Y6058D1*
X5970Y6084D1*
X5996Y6107D1*
X6026Y6126D1*
X6069Y6144D1*
X2922D1*
X2951Y6125D1*
X2999Y6080D1*
X3465Y5615D1*
X3487Y5588D1*
X3506Y5558D1*
X3520Y5526D1*
X3529Y5493D1*
X3533Y5450D1*
Y5377D1*
X3654Y5255D1*
X3674Y5295D1*
X3695Y5323D1*
X3721Y5346D1*
X3751Y5364D1*
X3784Y5377D1*
X3818Y5384D1*
X3853Y5385D1*
X3887Y5380D1*
X3920Y5368D1*
X3951Y5351D1*
X3982Y5325D1*
X4006Y5346D1*
X4036Y5364D1*
X4069Y5377D1*
X4103Y5384D1*
X4138Y5385D1*
X4172Y5380D1*
X4205Y5368D1*
X4236Y5351D1*
X4263Y5329D1*
X4286Y5303D1*
X4304Y5272D1*
X4316Y5240D1*
X4323Y5188D1*
X4320Y5153D1*
X4311Y5119D1*
X4296Y5087D1*
X4275Y5059D1*
X4250Y5034D1*
X4221Y5015D1*
X4190Y5001D1*
X4156Y4992D1*
X4121Y4990D1*
X4086Y4994D1*
X4052Y5003D1*
X4021Y5019D1*
X3993Y5040D1*
X3983Y5050D1*
X3965Y5034D1*
X3936Y5015D1*
X3907Y5002D1*
X4001Y4909D1*
X4137Y4908D1*
X4172Y4906D1*
X4206Y4898D1*
X4238Y4885D1*
X4269Y4868D1*
X4302Y4840D1*
X5847Y3295D1*
X5871Y3280D1*
X5898Y3258D1*
X5922Y3232D1*
X5941Y3203D1*
X5956Y3171D1*
X5966Y3138D1*
X5973Y3082D1*
X5970Y3048D1*
X5963Y3013D1*
X5950Y2981D1*
X5934Y2950D1*
X5912Y2922D1*
X5888Y2898D1*
X5859Y2877D1*
X5828Y2861D1*
X5796Y2849D1*
X5761Y2842D1*
X5726Y2840D1*
X5692Y2843D1*
X5658Y2851D1*
X5625Y2864D1*
X5595Y2881D1*
X5567Y2902D1*
X5543Y2928D1*
X5516Y2967D1*
X4756Y3728D1*
X4702Y3675D1*
X4696Y3651D1*
X4681Y3620D1*
X4660Y3591D1*
X4635Y3567D1*
X4606Y3547D1*
X4575Y3533D1*
X4541Y3525D1*
X4506Y3522D1*
X4471Y3526D1*
X4437Y3536D1*
X4406Y3552D1*
X4378Y3573D1*
X4354Y3598D1*
X4335Y3627D1*
X4322Y3660D1*
X4314Y3694D1*
X4312Y3729D1*
X4317Y3763D1*
X4328Y3797D1*
X4344Y3827D1*
X4365Y3855D1*
X4391Y3878D1*
X4421Y3897D1*
X4465Y3912D1*
X4517Y3965D1*
X4361Y4122D1*
X4040Y4443D1*
X3904D1*
X3870Y4445D1*
X3835Y4453D1*
X3803Y4466D1*
X3773Y4484D1*
X3740Y4511D1*
X3498Y4753D1*
Y4350D1*
X3494Y4315D1*
X3482Y4283D1*
X3455Y4245D1*
X3335Y4126D1*
Y3802D1*
Y2859D1*
X3355Y2885D1*
X3381Y2908D1*
X3411Y2927D1*
X3444Y2940D1*
X3478Y2947D1*
X3513D1*
X3547Y2942D1*
X3580Y2931D1*
X3611Y2914D1*
X3638Y2892D1*
X3661Y2865D1*
X3679Y2835D1*
X3691Y2802D1*
X3698Y2750D1*
X3695Y2715D1*
X3686Y2681D1*
X3671Y2650D1*
X3650Y2621D1*
X3625Y2597D1*
X3596Y2577D1*
X3565Y2563D1*
X3531Y2555D1*
X3496Y2552D1*
X3461Y2556D1*
X3427Y2566D1*
X3396Y2582D1*
X3368Y2603D1*
X3344Y2628D1*
X3335Y2642D1*
Y2314D1*
X3348Y2298D1*
X3366Y2267D1*
X3378Y2235D1*
X3385Y2182D1*
X3382Y2148D1*
X3373Y2114D1*
X3358Y2082D1*
X3338Y2054D1*
X3313Y2029D1*
X3284Y2010D1*
X3252Y1996D1*
X3218Y1987D1*
X3183Y1985D1*
X3167Y1987D1*
X3198Y1962D1*
X3221Y1935D1*
X3239Y1905D1*
X3251Y1872D1*
X3258Y1820D1*
X3255Y1785D1*
X3244Y1748D1*
X3760D1*
X4518D1*
X4534Y1777D1*
X4555Y1805D1*
X4581Y1828D1*
X4611Y1847D1*
X4644Y1860D1*
X4678Y1867D1*
X4713D1*
X4747Y1862D1*
X4780Y1851D1*
X4811Y1834D1*
X4838Y1812D1*
X4861Y1785D1*
X4879Y1755D1*
X4891Y1722D1*
X4898Y1670D1*
X4895Y1635D1*
X1035Y2695D2*
X1026Y2661D1*
X1011Y2630D1*
X990Y2601D1*
X974Y2585D1*
X1011Y2545D1*
X1029Y2515D1*
X1041Y2482D1*
X1048Y2430D1*
X1045Y2395D1*
X1036Y2361D1*
X1021Y2330D1*
X1000Y2301D1*
X975Y2277D1*
X946Y2257D1*
X915Y2243D1*
X881Y2235D1*
X846Y2232D1*
X811Y2236D1*
X775Y2247D1*
X715Y2251D1*
X682Y2260D1*
X651Y2277D1*
X621Y2301D1*
X331Y2591D1*
X309Y2618D1*
X292Y2648D1*
X281Y2682D1*
X277Y2720D1*
Y3270D1*
X281Y3305D1*
X290Y3338D1*
X307Y3369D1*
X331Y3399D1*
X443Y3511D1*
X442Y4100D1*
Y4365D1*
X446Y4400D1*
X455Y4433D1*
X472Y4464D1*
X496Y4494D1*
X755Y4753D1*
Y4926D1*
X741Y4974D1*
X740Y5009D1*
X744Y5043D1*
X755Y5077D1*
X771Y5107D1*
X793Y5135D1*
X819Y5158D1*
X849Y5177D1*
X881Y5190D1*
X915Y5197D1*
X950D1*
X985Y5192D1*
X1018Y5181D1*
X1049Y5164D1*
X1076Y5142D1*
X1098Y5115D1*
X1116Y5085D1*
X1128Y5052D1*
X1135Y5000D1*
X1132Y4965D1*
X1120Y4925D1*
Y4677D1*
X1117Y4643D1*
X1107Y4609D1*
X1091Y4578D1*
X1067Y4548D1*
X1006Y4487D1*
X1047Y4482D1*
X1080Y4471D1*
X1111Y4454D1*
X1138Y4432D1*
X1161Y4405D1*
X1179Y4375D1*
X1191Y4342D1*
X1198Y4290D1*
X1195Y4255D1*
X1186Y4221D1*
X1171Y4190D1*
X1150Y4161D1*
X1125Y4137D1*
X1096Y4117D1*
X1065Y4103D1*
X1031Y4095D1*
X996Y4092D1*
X961Y4096D1*
X927Y4106D1*
X896Y4122D1*
X868Y4143D1*
X844Y4168D1*
X825Y4197D1*
X812Y4230D1*
X808Y4248D1*
Y3688D1*
X831Y3708D1*
X861Y3727D1*
X894Y3740D1*
X928Y3747D1*
X963D1*
X997Y3742D1*
X1030Y3731D1*
X1061Y3714D1*
X1088Y3692D1*
X1111Y3665D1*
X1129Y3635D1*
X1141Y3602D1*
X1148Y3550D1*
X1145Y3515D1*
X1136Y3481D1*
X1121Y3450D1*
X1100Y3421D1*
X1075Y3397D1*
X1046Y3377D1*
X1015Y3363D1*
X981Y3355D1*
X946Y3352D1*
X911Y3356D1*
X877Y3366D1*
X846Y3382D1*
X818Y3403D1*
X807Y3414D1*
X798Y3377D1*
X784Y3345D1*
X754Y3306D1*
X642Y3194D1*
X643Y2796D1*
X658Y2807D1*
X674Y2837D1*
X695Y2865D1*
X721Y2888D1*
X751Y2907D1*
X784Y2920D1*
X818Y2927D1*
X853D1*
X887Y2922D1*
X920Y2911D1*
X951Y2894D1*
X978Y2872D1*
X1001Y2845D1*
X1019Y2815D1*
X1031Y2782D1*
X1038Y2730D1*
X1035Y2695D1*
X1030Y1815D2*
X1000Y1784D1*
X971Y1765D1*
X940Y1751D1*
X906Y1742D1*
X871Y1740D1*
X836Y1744D1*
X802Y1753D1*
X771Y1769D1*
X743Y1790D1*
X719Y1816D1*
X700Y1845D1*
X687Y1877D1*
X679Y1911D1*
X677Y1946D1*
X682Y1981D1*
X693Y2014D1*
X709Y2045D1*
X730Y2072D1*
X756Y2096D1*
X786Y2114D1*
X819Y2127D1*
X853Y2134D1*
X888Y2135D1*
X922Y2130D1*
X955Y2118D1*
X986Y2101D1*
X1013Y2079D1*
X1035Y2053D1*
X1071Y2088D1*
X1101Y2107D1*
X1134Y2120D1*
X1168Y2127D1*
X1189D1*
X1228Y2167D1*
X1227Y2840D1*
Y2937D1*
X1231Y2972D1*
X1243Y3005D1*
X1270Y3042D1*
X1352Y3123D1*
Y4007D1*
Y4429D1*
X1337Y4465D1*
X1329Y4499D1*
X1327Y4534D1*
X1332Y4568D1*
X1343Y4602D1*
X1359Y4632D1*
X1380Y4660D1*
X1406Y4683D1*
X1436Y4702D1*
X1469Y4715D1*
X1503Y4722D1*
X1538D1*
X1572Y4717D1*
X1605Y4706D1*
X1636Y4689D1*
X1650Y4677D1*
X1668Y4697D1*
X1694Y4721D1*
X1724Y4739D1*
X1756Y4752D1*
X1790Y4759D1*
X1825Y4760D1*
X1860Y4755D1*
X1893Y4743D1*
X1924Y4726D1*
X1951Y4704D1*
X1973Y4678D1*
X1991Y4647D1*
X2003Y4615D1*
X2010Y4562D1*
X2007Y4528D1*
X1998Y4494D1*
X1983Y4462D1*
X1963Y4434D1*
X1938Y4409D1*
X1909Y4390D1*
X1877Y4376D1*
X1843Y4367D1*
X1808Y4365D1*
X1773Y4369D1*
X1740Y4378D1*
X1709Y4394D1*
X1687Y4410D1*
X1650Y4372D1*
X1648Y4370D1*
Y3062D1*
X1644Y3028D1*
X1632Y2995D1*
X1605Y2958D1*
X1523Y2877D1*
Y2105D1*
X1519Y2070D1*
X1507Y2038D1*
X1480Y2000D1*
X1386Y1907D1*
X1376Y1861D1*
X1361Y1830D1*
X1340Y1801D1*
X1315Y1777D1*
X1286Y1757D1*
X1255Y1743D1*
X1221Y1735D1*
X1186Y1732D1*
X1151Y1736D1*
X1117Y1746D1*
X1086Y1762D1*
X1058Y1783D1*
X1030Y1814D1*
X3945Y2153D2*
X3936Y2119D1*
X3921Y2087D1*
X3900Y2059D1*
X3875Y2034D1*
X3846Y2015D1*
X3815Y2001D1*
X3781Y1992D1*
X3746Y1990D1*
X3711Y1994D1*
X3677Y2003D1*
X3646Y2019D1*
X3618Y2040D1*
X3594Y2066D1*
X3575Y2095D1*
X3562Y2127D1*
X3554Y2161D1*
X3552Y2196D1*
X3557Y2231D1*
X3568Y2264D1*
X3584Y2295D1*
X3605Y2323D1*
X3631Y2346D1*
X3661Y2364D1*
X3694Y2377D1*
X3728Y2384D1*
X3763Y2385D1*
X3797Y2380D1*
X3830Y2368D1*
X3861Y2351D1*
X3888Y2329D1*
X3911Y2303D1*
X3929Y2272D1*
X3941Y2240D1*
X3948Y2188D1*
X3945Y2153D1*
X6055Y1485D2*
X6046Y1451D1*
X6031Y1420D1*
X6010Y1391D1*
X5985Y1367D1*
X5956Y1347D1*
X5925Y1333D1*
X5891Y1325D1*
X5856Y1322D1*
X5821Y1326D1*
X5787Y1336D1*
X5756Y1352D1*
X5728Y1373D1*
X5704Y1398D1*
X5685Y1427D1*
X5672Y1460D1*
X5664Y1494D1*
X5662Y1529D1*
X5667Y1563D1*
X5678Y1597D1*
X5694Y1627D1*
X5715Y1655D1*
X5741Y1678D1*
X5771Y1697D1*
X5804Y1710D1*
X5838Y1717D1*
X5873D1*
X5907Y1712D1*
X5940Y1701D1*
X5971Y1684D1*
X5998Y1662D1*
X6021Y1635D1*
X6039Y1605D1*
X6051Y1572D1*
X6058Y1520D1*
X6055Y1485D1*
X6065Y2345D2*
X6056Y2311D1*
X6041Y2280D1*
X6020Y2251D1*
X5995Y2227D1*
X5966Y2207D1*
X5935Y2193D1*
X5901Y2185D1*
X5866Y2182D1*
X5831Y2186D1*
X5797Y2196D1*
X5766Y2212D1*
X5738Y2233D1*
X5714Y2258D1*
X5695Y2287D1*
X5682Y2320D1*
X5674Y2354D1*
X5672Y2389D1*
X5677Y2423D1*
X5688Y2457D1*
X5704Y2487D1*
X5725Y2515D1*
X5751Y2538D1*
X5781Y2557D1*
X5814Y2570D1*
X5848Y2577D1*
X5883D1*
X5917Y2572D1*
X5950Y2561D1*
X5981Y2544D1*
X6008Y2522D1*
X6031Y2495D1*
X6049Y2465D1*
X6061Y2432D1*
X6068Y2380D1*
X6065Y2345D1*
X6045Y445D2*
X6036Y411D1*
X6021Y380D1*
X6000Y351D1*
X5975Y327D1*
X5946Y307D1*
X5915Y293D1*
X5881Y285D1*
X5846Y282D1*
X5811Y286D1*
X5777Y296D1*
X5746Y312D1*
X5718Y333D1*
X5694Y358D1*
X5675Y387D1*
X5662Y420D1*
X5654Y454D1*
X5652Y489D1*
X5657Y523D1*
X5668Y557D1*
X5684Y587D1*
X5705Y615D1*
X5731Y638D1*
X5761Y657D1*
X5794Y670D1*
X5828Y677D1*
X5863D1*
X5897Y672D1*
X5930Y661D1*
X5961Y644D1*
X5988Y622D1*
X6011Y595D1*
X6029Y565D1*
X6041Y532D1*
X6048Y480D1*
X6045Y445D1*
X4945Y3095D2*
X4936Y3061D1*
X4921Y3030D1*
X4900Y3001D1*
X4875Y2977D1*
X4846Y2957D1*
X4815Y2943D1*
X4781Y2935D1*
X4746Y2932D1*
X4711Y2936D1*
X4677Y2946D1*
X4646Y2962D1*
X4618Y2983D1*
X4594Y3008D1*
X4575Y3037D1*
X4562Y3070D1*
X4554Y3104D1*
X4552Y3139D1*
X4557Y3173D1*
X4568Y3207D1*
X4584Y3237D1*
X4605Y3265D1*
X4631Y3288D1*
X4661Y3307D1*
X4694Y3320D1*
X4728Y3327D1*
X4763D1*
X4797Y3322D1*
X4830Y3311D1*
X4861Y3294D1*
X4888Y3272D1*
X4911Y3245D1*
X4929Y3215D1*
X4941Y3182D1*
X4948Y3130D1*
X4945Y3095D1*
X3335Y2858D2*
X3355Y2885D1*
X3381Y2908D1*
X3411Y2927D1*
X3444Y2940D1*
X3478Y2947D1*
X3513D1*
X3547Y2942D1*
X3580Y2931D1*
X3611Y2914D1*
X3638Y2892D1*
X3661Y2865D1*
X3679Y2835D1*
X3691Y2802D1*
X3698Y2750D1*
X3695Y2715D1*
X3686Y2681D1*
X3671Y2650D1*
X3650Y2621D1*
X3625Y2597D1*
X3596Y2577D1*
X3565Y2563D1*
X3531Y2555D1*
X3496Y2552D1*
X3461Y2556D1*
X3427Y2566D1*
X3396Y2582D1*
X3368Y2603D1*
X3344Y2628D1*
X3335Y2642D1*
X2895Y4465D2*
X2886Y4431D1*
X2871Y4400D1*
X2850Y4371D1*
X2825Y4347D1*
X2796Y4327D1*
X2765Y4313D1*
X2731Y4305D1*
X2696Y4302D1*
X2661Y4306D1*
X2627Y4316D1*
X2596Y4332D1*
X2568Y4353D1*
X2544Y4378D1*
X2525Y4407D1*
X2512Y4440D1*
X2504Y4474D1*
X2502Y4509D1*
X2507Y4543D1*
X2518Y4577D1*
X2534Y4607D1*
X2555Y4635D1*
X2581Y4658D1*
X2611Y4677D1*
X2644Y4690D1*
X2678Y4697D1*
X2713D1*
X2747Y4692D1*
X2780Y4681D1*
X2811Y4664D1*
X2838Y4642D1*
X2861Y4615D1*
X2879Y4585D1*
X2891Y4552D1*
X2898Y4500D1*
X2895Y4465D1*
X1005Y4487D2*
X1047Y4482D1*
X1080Y4471D1*
X1111Y4454D1*
X1138Y4432D1*
X1161Y4405D1*
X1179Y4375D1*
X1191Y4342D1*
X1198Y4290D1*
X1195Y4255D1*
X1186Y4221D1*
X1171Y4190D1*
X1150Y4161D1*
X1125Y4137D1*
X1096Y4117D1*
X1065Y4103D1*
X1031Y4095D1*
X996Y4092D1*
X961Y4096D1*
X927Y4106D1*
X896Y4122D1*
X868Y4143D1*
X844Y4168D1*
X825Y4197D1*
X812Y4230D1*
X808Y4248D1*
X4702Y3676D2*
X4696Y3651D1*
X4681Y3620D1*
X4660Y3591D1*
X4635Y3567D1*
X4606Y3547D1*
X4575Y3533D1*
X4541Y3525D1*
X4506Y3522D1*
X4471Y3526D1*
X4437Y3536D1*
X4406Y3552D1*
X4378Y3573D1*
X4354Y3598D1*
X4335Y3627D1*
X4322Y3660D1*
X4314Y3694D1*
X4312Y3729D1*
X4317Y3763D1*
X4328Y3797D1*
X4344Y3827D1*
X4365Y3855D1*
X4391Y3878D1*
X4421Y3897D1*
X4465Y3912D1*
M02*
