G04 DipTrace Beta 2.3.5.2*
%INsubMicroLRSv2.GTO*%
%MOIN*%
%ADD13C,0.008*%
%ADD39C,0.0062*%
%FSLAX44Y44*%
G04*
G70*
G90*
G75*
G01*
%LNTop TopSilk*%
%LPD*%
X1240Y4100D2*
D13*
Y4240D1*
Y4250D2*
X1350D1*
X3080D2*
X3210D1*
Y4150D1*
X3080Y2290D2*
X3200Y2410D1*
X1230Y2400D2*
Y2280D1*
X1360D1*
X240Y2870D2*
X630D1*
X3620Y6090D2*
Y5840D1*
X4580Y6090D2*
Y5830D1*
X621Y1406D2*
D39*
X602Y1444D1*
X563Y1483D1*
X525Y1502D1*
X449D1*
X410Y1483D1*
X372Y1444D1*
X353Y1406D1*
X334Y1349D1*
Y1253D1*
X353Y1196D1*
X372Y1157D1*
X410Y1119D1*
X449Y1100D1*
X525D1*
X563Y1119D1*
X602Y1157D1*
X621Y1196D1*
Y1253D1*
X525D1*
X1354Y1494D2*
X1507Y1092D1*
X1660Y1494D1*
X2424Y1274D2*
X2596D1*
X2653Y1293D1*
X2673Y1312D1*
X2692Y1350D1*
Y1408D1*
X2673Y1446D1*
X2653Y1465D1*
X2596Y1484D1*
X2424D1*
Y1082D1*
X5414Y382D2*
Y554D1*
X5395Y612D1*
X5376Y631D1*
X5338Y650D1*
X5299D1*
X5261Y631D1*
X5242Y612D1*
X5223Y554D1*
Y382D1*
X5625D1*
X5414Y516D2*
X5625Y650D1*
X5253Y1506D2*
X5655D1*
X5253Y1372D2*
Y1640D1*
X5193Y2342D2*
X5595D1*
Y2476D1*
X5575Y2534D1*
X5537Y2572D1*
X5499Y2591D1*
X5442Y2610D1*
X5346D1*
X5288Y2591D1*
X5250Y2572D1*
X5212Y2534D1*
X5193Y2476D1*
Y2342D1*
X3193Y1280D2*
X3365D1*
X3422Y1300D1*
X3442Y1319D1*
X3461Y1357D1*
Y1395D1*
X3442Y1433D1*
X3422Y1453D1*
X3365Y1472D1*
X3193D1*
Y1070D1*
X3327Y1280D2*
X3461Y1070D1*
X3852Y1414D2*
X3814Y1453D1*
X3757Y1472D1*
X3680D1*
X3623Y1453D1*
X3584Y1414D1*
Y1376D1*
X3604Y1338D1*
X3623Y1319D1*
X3661Y1300D1*
X3776Y1261D1*
X3814Y1242D1*
X3833Y1223D1*
X3852Y1185D1*
Y1127D1*
X3814Y1089D1*
X3757Y1070D1*
X3680D1*
X3623Y1089D1*
X3584Y1127D1*
M02*
