M48
INCH
T01C0.01
T02C0.015
T03C0.018
%
T01
X+000420Y+006020
X+000438Y+004938
X+000937Y+005000
X+001000Y+004290
X+001525Y+004525
X+001812Y+004562
X+002125Y+004813
X+002700Y+004500
X+003160Y+004590
X+003030Y+005230
X+003840Y+005188
X+004125Y+005188
X+004437Y+005125
X+004938Y+005125
X+005250Y+005000
X+005250Y+004688
X+005250Y+004312
X+005810Y+003630
X+004750Y+003130
X+004510Y+003720
X+003500Y+002750
X+003750Y+002188
X+003188Y+002182
X+003060Y+001820
X+002812Y+001812
X+002580Y+001720
X+002326Y+002000
X+001625Y+002688
X+000840Y+002730
X+000850Y+002430
X+000875Y+001937
X+001190Y+001930
X+000813Y+003062
X+000950Y+003550
X+002020Y+003800
X+002550Y+003250
X+002220Y+005530
X+001910Y+005530
X+004100Y+005950
X+005250Y+005625
X+005250Y+005313
X+005313Y+006000
X+006020Y+005320
X+006438Y+005125
X+005870Y+002380
X+005860Y+001520
X+005690Y+000920
X+005850Y+000480
X+005030Y+001060
X+004700Y+001670
X+003688Y+000687
X+003500Y+000500
X+003313Y+000687
X+003313Y+000313
X+003688Y+000313
X+002688Y+000313
X+002500Y+000500
X+002313Y+000313
X+002313Y+000687
X+002688Y+000687
X+001688Y+000688
X+001500Y+000500
X+001313Y+000313
X+001313Y+000688
X+001688Y+000313
X+000688Y+000313
X+000500Y+000500
X+000313Y+000687
X+000313Y+000313
X+000688Y+000687
T02
X+001688Y+005940
X+005730Y+003082
T03
X+006150Y+005900
T00
M30
