G04 DipTrace Beta 2.3.5.2*
%INsubMicroLRSv2.GTL*%
%MOIN*%
%ADD13C,0.008*%
%ADD14C,0.01*%
%ADD15C,0.005*%
%ADD16C,0.025*%
%ADD17C,0.012*%
%ADD18C,0.015*%
%ADD19C,0.007*%
%ADD22R,0.0354X0.0276*%
%ADD23R,0.0276X0.0354*%
%ADD24R,0.0315X0.0315*%
%ADD25R,0.0472X0.0315*%
%ADD28R,0.0472X0.0217*%
%ADD29R,0.0394X0.0413*%
%ADD30R,0.0413X0.0866*%
%ADD31R,0.071X0.041*%
%ADD32R,0.049X0.024*%
%ADD34C,0.0394*%
%ADD35C,0.018*%
%ADD36C,0.027*%
%ADD37C,0.03*%
%FSLAX44Y44*%
G04*
G70*
G90*
G75*
G01*
%LNTop*%
%LPD*%
X2916Y2287D2*
D13*
Y1964D1*
X3060Y1820D1*
X3191Y2759D2*
X3491D1*
X3500Y2750D1*
X4750Y3130D2*
X4520Y2900D1*
X4490D1*
X4570Y2240D2*
D14*
X5460D1*
X5690Y2470D1*
X5870D1*
X6150D1*
X6170Y2490D1*
X5870Y2380D2*
Y2470D1*
X3191Y3350D2*
D13*
X2325D1*
X2227Y3251D1*
X3191Y2956D2*
X2522D1*
X2227Y3251D1*
X1262Y3153D2*
X2128D1*
X2227Y3251D1*
X3860Y5960D2*
D15*
X4100D1*
X4340D1*
X450Y3080D2*
D13*
X523Y3153D1*
X1262D1*
X440Y5782D2*
D15*
X420Y5802D1*
Y6020D1*
X1040Y5566D2*
X747D1*
X531Y5782D1*
X440D1*
X4100Y5950D2*
Y5960D1*
X6020Y5320D2*
D16*
X6010Y5330D1*
X5670D1*
X6030D2*
X6410D1*
X6461Y3681D2*
X6409Y3630D1*
X5810D1*
X5299Y3681D2*
X5351Y3630D1*
X5810D1*
X438Y4938D2*
D15*
X430Y4930D1*
Y4642D1*
X2610Y5388D2*
X2468Y5530D1*
X2220D1*
X1538Y4216D2*
D13*
X1525Y4229D1*
Y4525D1*
X1735Y4216D2*
X1750Y4231D1*
Y4500D1*
X1812Y4562D1*
X3191Y3744D2*
X4074D1*
X4760Y4430D1*
Y4632D1*
X4672D1*
X3191Y3940D2*
X3420D1*
X3740Y4260D1*
Y4620D1*
X3728Y4632D1*
X3030Y5230D2*
Y5020D1*
X3050Y5000D1*
Y4920D1*
X3188Y2182D2*
X3280Y2090D1*
Y1530D1*
X2510Y760D1*
Y520D1*
X6150Y5900D2*
D15*
X6080Y5970D1*
X6040D1*
Y4690D2*
D16*
Y4440D1*
X5880Y4280D1*
X3840Y5480D2*
D13*
Y5188D1*
X2700Y4500D2*
Y4235D1*
X2719Y4216D1*
X4340Y5480D2*
Y5403D1*
X4125Y5188D1*
X3160Y4590D2*
X3170D1*
X2900Y4320D1*
Y4200D1*
X2916Y4216D1*
X4931Y5960D2*
Y5559D1*
X4852Y5480D1*
X3269Y5960D2*
Y5539D1*
X3328Y5480D1*
X1262Y3350D2*
X692D1*
X450Y3592D1*
X4730Y800D2*
X4750Y820D1*
Y1250D1*
X2128Y4216D2*
Y4441D1*
X2168Y4480D1*
X2312D1*
Y4229D1*
X2325Y4216D1*
X2538Y4920D2*
Y4706D1*
X2312Y4480D1*
X3191Y2563D2*
X3357D1*
X3490Y2430D1*
Y2135D1*
X4215Y1410D1*
X4196D1*
X4356Y1250D1*
X4290Y792D2*
X4250Y752D1*
Y1250D1*
X4356D1*
X4290Y280D2*
X3750D1*
X3510Y520D1*
X3980Y2900D2*
X4000D1*
Y2298D1*
X4058Y2240D1*
X2325Y2287D2*
Y2000D1*
X3750Y2188D2*
X4058D1*
Y2240D1*
X4443Y2625D1*
X4795D1*
X4810Y2640D1*
X4910D1*
X2522Y2287D2*
Y1778D1*
X2580Y1720D1*
X5690Y920D2*
X6120Y490D1*
X6170D1*
X5850Y480D2*
D15*
X5860Y490D1*
X6170D1*
X1262Y3940D2*
D13*
X1110D1*
X1000Y4050D1*
Y4290D1*
X6170Y1490D2*
X5990Y1670D1*
X4700D1*
X2812Y1812D2*
X2719Y1906D1*
Y2287D1*
X5860Y1520D2*
D15*
X5890Y1490D1*
X6170D1*
X1262Y3744D2*
D17*
X1006D1*
X620Y4130D1*
X430D1*
X2610Y5900D2*
D18*
X2104D1*
X2064Y5940D1*
X3191Y3547D2*
D17*
X3453D1*
X3525Y3475D1*
Y3225D1*
X3453Y3153D1*
X3191D1*
X3453D2*
X3721D1*
X3980Y3412D1*
D18*
X4490D1*
X2064Y5940D2*
D16*
X1730D1*
X1688D1*
X430Y4130D2*
D18*
X500D1*
X1245Y4875D1*
X1375D1*
X1600Y5100D1*
Y5810D1*
X1730Y5940D1*
X4490Y3412D2*
D17*
X4510Y3432D1*
Y3720D1*
X450Y1881D2*
D18*
X1510Y821D1*
Y520D1*
X1500Y500D2*
X1510Y520D1*
X1040Y5940D2*
D14*
X1190D1*
X1380Y5750D1*
Y5380D1*
X1200Y5200D1*
X1048D1*
X1040Y5192D1*
X440Y5270D2*
D13*
Y5250D1*
X937D1*
X996Y5192D1*
X1040D1*
X450Y2590D2*
D18*
Y2520D1*
X610D1*
X700Y2430D1*
X850D1*
X937Y5000D2*
Y5089D1*
X1040Y5192D1*
D35*
X3500Y2750D3*
X4750Y3130D3*
X950Y3550D3*
X3500Y2750D3*
X1525Y4525D3*
X1190Y1930D3*
X3030Y5230D3*
X3840Y5188D3*
X2700Y4500D3*
X4125Y5188D3*
X3160Y4590D3*
X2325Y2000D3*
X2580Y1720D3*
X5690Y920D3*
X1000Y4290D3*
D3*
X2812Y1812D3*
D36*
X1688Y5940D3*
X5730Y3082D3*
D35*
X4510Y3720D3*
D3*
X937Y5000D3*
X420Y6020D3*
X4700Y1670D3*
X4100Y5950D3*
X840Y2730D3*
X3060Y1820D3*
X1500Y500D3*
X6020Y5320D3*
X5810Y3630D3*
X500Y500D3*
X438Y4938D3*
X2220Y5530D3*
X850Y2430D3*
X875Y1937D3*
D37*
X6150Y5900D3*
D35*
X1812Y4562D3*
X313Y687D3*
X5000Y270D3*
X1910Y5530D3*
X3750Y2188D3*
X3188Y2182D3*
X5860Y1520D3*
X5870Y2380D3*
X5850Y480D3*
X1313Y688D3*
X1688D3*
X1313Y313D3*
X1688D3*
X2550Y3250D3*
X2020Y3800D3*
X5313Y6000D3*
X5250Y5625D3*
Y5313D3*
X688Y687D3*
X313Y313D3*
X688D3*
X2500Y500D3*
X2313Y687D3*
X2688D3*
X2313Y313D3*
X2688D3*
X3500Y500D3*
X3313Y687D3*
X3688D3*
X3313Y313D3*
X3688D3*
X5250Y5000D3*
Y4688D3*
X4437Y5125D3*
X4938D3*
X2125Y4813D3*
X5250Y4312D3*
X6438Y5125D3*
X1625Y2688D3*
X813Y3062D3*
X162Y6076D2*
D19*
X689D1*
X2901D2*
X2998D1*
X3541D2*
X4658D1*
X5203D2*
X5570D1*
X162Y6007D2*
X689D1*
X2901D2*
X2998D1*
X3541D2*
X4658D1*
X5203D2*
X5570D1*
X162Y5938D2*
X689D1*
X2901D2*
X2998D1*
X3541D2*
X4658D1*
X5203D2*
X5570D1*
X162Y5869D2*
X689D1*
X2901D2*
X2998D1*
X3541D2*
X4658D1*
X5203D2*
X5570D1*
X162Y5801D2*
X689D1*
X2901D2*
X2998D1*
X3541D2*
X4658D1*
X5203D2*
X5570D1*
X162Y5732D2*
X689D1*
X2901D2*
X2998D1*
X5203D2*
X5570D1*
X162Y5663D2*
X1215D1*
X1790D2*
X2319D1*
X2901D2*
X3075D1*
X5104D2*
X5570D1*
X162Y5595D2*
X1215D1*
X1790D2*
X3075D1*
X5104D2*
X5599D1*
X6482D2*
X6531D1*
X162Y5526D2*
X1215D1*
X1790D2*
X3075D1*
X5104D2*
X5599D1*
X6482D2*
X6531D1*
X731Y5457D2*
X1215D1*
X1790D2*
X3075D1*
X5104D2*
X5599D1*
X6482D2*
X6531D1*
X2415Y5389D2*
X2905D1*
X5104D2*
X5599D1*
X6482D2*
X6531D1*
X2415Y5320D2*
X2847D1*
X5104D2*
X5599D1*
X6482D2*
X6531D1*
X2415Y5251D2*
X2826D1*
X5104D2*
X5599D1*
X6482D2*
X6531D1*
X3303Y5183D2*
X3635D1*
X4336D2*
X5599D1*
X6482D2*
X6531D1*
X3303Y5114D2*
X3650D1*
X4316D2*
X5599D1*
X6482D2*
X6531D1*
X3303Y5045D2*
X3509D1*
X4270D2*
X4454D1*
X4891D2*
X5599D1*
X6482D2*
X6531D1*
X162Y4977D2*
X689D1*
X3303D2*
X3476D1*
X3980D2*
X4421D1*
X4925D2*
X5570D1*
X162Y4908D2*
X756D1*
X1673D2*
X2286D1*
X3303D2*
X3475D1*
X3980D2*
X4420D1*
X4925D2*
X5570D1*
X162Y4839D2*
X816D1*
X1604D2*
X2286D1*
X3303D2*
X3475D1*
X3980D2*
X4420D1*
X4925D2*
X5570D1*
X162Y4770D2*
X875D1*
X1536D2*
X2286D1*
X3303D2*
X3475D1*
X3980D2*
X4420D1*
X4925D2*
X5570D1*
X162Y4702D2*
X807D1*
X1621D2*
X1666D1*
X1960D2*
X2286D1*
X3330D2*
X3475D1*
X3980D2*
X4420D1*
X4925D2*
X5570D1*
X162Y4633D2*
X738D1*
X1268D2*
X1353D1*
X2004D2*
X2250D1*
X2853D2*
X2961D1*
X3360D2*
X3475D1*
X3980D2*
X4420D1*
X4925D2*
X5570D1*
X162Y4564D2*
X669D1*
X1199D2*
X1324D1*
X3363D2*
X3475D1*
X3980D2*
X4420D1*
X4925D2*
X5568D1*
X162Y4496D2*
X600D1*
X1131D2*
X1322D1*
X3341D2*
X3475D1*
X3980D2*
X4420D1*
X4925D2*
X5568D1*
X162Y4427D2*
X531D1*
X1149D2*
X1346D1*
X3279D2*
X3475D1*
X3980D2*
X4420D1*
X4925D2*
X5568D1*
X3362Y4358D2*
X3475D1*
X3980D2*
X4420D1*
X4925D2*
X5568D1*
X6265D2*
X6531D1*
X3362Y4290D2*
X3476D1*
X3980D2*
X4404D1*
X4925D2*
X5568D1*
X6224D2*
X6531D1*
X3362Y4221D2*
X3486D1*
X3948D2*
X4335D1*
X4893D2*
X5568D1*
X6191D2*
X6531D1*
X3362Y4152D2*
X3417D1*
X3848D2*
X4267D1*
X4698D2*
X5568D1*
X6191D2*
X6531D1*
X3780Y4084D2*
X4198D1*
X4629D2*
X5568D1*
X6191D2*
X6531D1*
X3711Y4015D2*
X4129D1*
X4561D2*
X5568D1*
X6191D2*
X6531D1*
X3642Y3946D2*
X4061D1*
X4492D2*
X6531D1*
X162Y3878D2*
X629D1*
X4636D2*
X6531D1*
X4694Y3809D2*
X6531D1*
X4714Y3740D2*
X6531D1*
X4708Y3671D2*
X6531D1*
X4781Y3603D2*
X6531D1*
X4781Y3534D2*
X6531D1*
X4781Y3465D2*
X6531D1*
X4781Y3397D2*
X6531D1*
X162Y3328D2*
X497D1*
X4781D2*
X6531D1*
X162Y3259D2*
X566D1*
X4906D2*
X5557D1*
X5904D2*
X6531D1*
X162Y3191D2*
X1088D1*
X4946D2*
X5506D1*
X5954D2*
X6531D1*
X162Y3122D2*
X1088D1*
X4954D2*
X5484D1*
X5977D2*
X6531D1*
X162Y3053D2*
X1012D1*
X4939D2*
X5482D1*
X5978D2*
X6531D1*
X162Y2985D2*
X983D1*
X3362D2*
X3688D1*
X4891D2*
X5501D1*
X162Y2916D2*
X765D1*
X914D2*
X985D1*
X3614D2*
X3688D1*
X5046D2*
X5546D1*
X5140Y2847D2*
X5644D1*
X5188Y2779D2*
X5630D1*
X5213Y2710D2*
X5630D1*
X3672Y2641D2*
X3845D1*
X5221D2*
X5630D1*
X3594Y2572D2*
X3845D1*
X5213D2*
X5563D1*
X3625Y2504D2*
X3806D1*
X5189D2*
X5494D1*
X3645Y2435D2*
X3806D1*
X5142D2*
X5425D1*
X162Y1611D2*
X455D1*
X162Y1542D2*
X524D1*
X162Y1473D2*
X593D1*
X5136D2*
X5630D1*
X162Y1405D2*
X662D1*
X5138D2*
X5630D1*
X162Y1336D2*
X730D1*
X5138D2*
X5630D1*
X162Y1267D2*
X798D1*
X5138D2*
X5630D1*
X162Y1199D2*
X867D1*
X5138D2*
X5632D1*
X162Y1130D2*
X936D1*
X5138D2*
X5645D1*
X162Y1061D2*
X1005D1*
X5138D2*
X5545D1*
X162Y993D2*
X1063D1*
X5124D2*
X5499D1*
X162Y924D2*
X1005D1*
X5022D2*
X5485D1*
X162Y855D2*
X978D1*
X5022D2*
X5496D1*
X162Y787D2*
X970D1*
X5022D2*
X5537D1*
X162Y718D2*
X970D1*
X5022D2*
X5630D1*
X162Y649D2*
X970D1*
X5022D2*
X5630D1*
X162Y581D2*
X970D1*
X5022D2*
X5630D1*
X162Y512D2*
X970D1*
X4581D2*
X5630D1*
X162Y443D2*
X970D1*
X4581D2*
X5630D1*
X162Y374D2*
X970D1*
X4581D2*
X5630D1*
X162Y306D2*
X970D1*
X4581D2*
X5630D1*
X162Y237D2*
X971D1*
X4581D2*
X5630D1*
X162Y168D2*
X982D1*
X4581D2*
X5635D1*
X5966Y3023D2*
X6466Y3022D1*
X6503Y3016D1*
X6538Y3005D1*
Y6144D1*
X6503Y6143D1*
Y5657D1*
X6475D1*
Y5025D1*
Y5002D1*
X6503Y5003D1*
Y4377D1*
X6263D1*
X6250Y4339D1*
X6232Y4308D1*
X6205Y4275D1*
X6185Y4256D1*
Y3966D1*
X5575D1*
X5576Y4594D1*
X5577Y5003D1*
X5605D1*
Y5635D1*
Y5658D1*
X5577Y5657D1*
Y6144D1*
X5196D1*
Y5695D1*
X5096D1*
X5097Y5485D1*
Y5195D1*
X4606D1*
Y5765D1*
X4666D1*
X4665Y5975D1*
Y6144D1*
X3536D1*
X3535Y5840D1*
Y5765D1*
X3574D1*
Y5195D1*
X3295D1*
X3296Y4734D1*
X3321Y4705D1*
X3339Y4675D1*
X3351Y4642D1*
X3358Y4590D1*
X3355Y4555D1*
X3346Y4521D1*
X3331Y4490D1*
X3310Y4461D1*
X3285Y4437D1*
X3256Y4417D1*
X3230Y4405D1*
X3355D1*
X3356Y4097D1*
X3365Y4094D1*
X3504Y4233D1*
X3486Y4270D1*
X3482Y4298D1*
Y4967D1*
X3488Y5001D1*
X3504Y5032D1*
X3529Y5056D1*
X3566Y5072D1*
X3625Y5075D1*
X3678D1*
X3665Y5095D1*
X3652Y5127D1*
X3644Y5161D1*
X3642Y5195D1*
X3594D1*
Y5765D1*
X4086D1*
Y5381D1*
X4094Y5405D1*
Y5765D1*
X4586D1*
Y5195D1*
X4342D1*
X4320Y5153D1*
X4311Y5119D1*
X4296Y5087D1*
X4275Y5059D1*
X4250Y5034D1*
X4221Y5015D1*
X4190Y5001D1*
X4156Y4992D1*
X4121Y4990D1*
X4086Y4994D1*
X4052Y5003D1*
X4021Y5019D1*
X3993Y5040D1*
X3983Y5050D1*
X3955Y5028D1*
X3971Y4991D1*
X3973Y4932D1*
Y4298D1*
X3968Y4263D1*
X3951Y4233D1*
X3926Y4209D1*
X3888Y4193D1*
X3845Y4155D1*
X3581Y3892D1*
X4013Y3891D1*
X4428Y4307D1*
X4427Y4613D1*
Y4967D1*
X4432Y5001D1*
X4449Y5032D1*
X4474Y5056D1*
X4511Y5072D1*
X4570Y5075D1*
X4810D1*
X4845Y5069D1*
X4875Y5053D1*
X4899Y5028D1*
X4915Y4991D1*
X4918Y4932D1*
Y4298D1*
X4912Y4263D1*
X4896Y4233D1*
X4871Y4209D1*
X4834Y4193D1*
X4775Y4190D1*
X4728D1*
X4446Y3907D1*
X4488Y3917D1*
X4523D1*
X4557Y3912D1*
X4590Y3901D1*
X4621Y3884D1*
X4648Y3862D1*
X4671Y3835D1*
X4689Y3805D1*
X4701Y3772D1*
X4708Y3720D1*
X4705Y3685D1*
X4697Y3657D1*
X4775D1*
Y3326D1*
X4797Y3322D1*
X4830Y3311D1*
X4861Y3294D1*
X4888Y3272D1*
X4911Y3245D1*
X4929Y3215D1*
X4941Y3182D1*
X4948Y3130D1*
X4945Y3095D1*
X4936Y3061D1*
X4921Y3030D1*
X4900Y3001D1*
X4875Y2977D1*
X4846Y2957D1*
X4815Y2943D1*
X4775Y2934D1*
X4806Y2927D1*
X4840Y2936D1*
X4874Y2943D1*
X4909Y2945D1*
X4944Y2943D1*
X4979Y2937D1*
X5012Y2927D1*
X5045Y2913D1*
X5075Y2896D1*
X5103Y2875D1*
X5129Y2852D1*
X5152Y2825D1*
X5171Y2796D1*
X5188Y2765D1*
X5200Y2733D1*
X5209Y2699D1*
X5215Y2640D1*
X5213Y2605D1*
X5207Y2571D1*
X5197Y2537D1*
X5183Y2505D1*
X5166Y2474D1*
X5145Y2446D1*
X5121Y2421D1*
X5095Y2398D1*
X5396D1*
X5522Y2525D1*
X5578Y2582D1*
X5606Y2603D1*
X5638Y2619D1*
X5637Y2766D1*
X5639Y2798D1*
X5647Y2834D1*
X5653Y2853D1*
X5625Y2864D1*
X5595Y2881D1*
X5567Y2902D1*
X5543Y2928D1*
X5523Y2956D1*
X5507Y2987D1*
X5495Y3020D1*
X5489Y3055D1*
X5487Y3090D1*
X5491Y3125D1*
X5499Y3158D1*
X5513Y3191D1*
X5530Y3221D1*
X5552Y3248D1*
X5578Y3272D1*
X5607Y3292D1*
X5638Y3307D1*
X5671Y3318D1*
X5706Y3324D1*
X5741Y3325D1*
X5776Y3321D1*
X5809Y3312D1*
X5841Y3298D1*
X5871Y3280D1*
X5898Y3258D1*
X5922Y3232D1*
X5941Y3203D1*
X5956Y3171D1*
X5966Y3138D1*
X5973Y3082D1*
X5970Y3048D1*
X5965Y3023D1*
X5637Y1250D2*
Y1522D1*
X5107D1*
X5127Y1483D1*
X5131Y1455D1*
Y1045D1*
X5125Y1011D1*
X5109Y980D1*
X5084Y956D1*
X5046Y940D1*
X5015Y937D1*
Y554D1*
X4574D1*
X4575Y546D1*
X4042D1*
X4075Y526D1*
X4575D1*
Y155D1*
X5644Y156D1*
X5638Y193D1*
X5637Y250D1*
Y730D1*
X5617Y736D1*
X5586Y752D1*
X5558Y773D1*
X5534Y798D1*
X5515Y827D1*
X5502Y860D1*
X5494Y894D1*
X5492Y929D1*
X5497Y963D1*
X5508Y997D1*
X5524Y1027D1*
X5545Y1055D1*
X5571Y1078D1*
X5601Y1097D1*
X5634Y1110D1*
X5657Y1115D1*
X5645Y1151D1*
X5639Y1182D1*
X5637Y1220D1*
Y1250D1*
X977Y280D2*
X978Y816D1*
X984Y853D1*
X995Y890D1*
X1009Y919D1*
X1029Y950D1*
X1055Y979D1*
X1076Y997D1*
X457Y1616D1*
X154D1*
X155Y1314D1*
Y155D1*
X994D1*
X984Y186D1*
X978Y223D1*
X977Y280D1*
X3848Y2525D2*
X3853D1*
X3852Y2654D1*
X3695D1*
Y2715D1*
X3686Y2681D1*
X3671Y2650D1*
X3650Y2621D1*
X3625Y2597D1*
X3596Y2577D1*
X3565Y2563D1*
X3595Y2535D1*
X3616Y2507D1*
X3631Y2475D1*
X3638Y2430D1*
Y2350D1*
X3661Y2364D1*
X3694Y2377D1*
X3728Y2384D1*
X3763Y2385D1*
X3797Y2380D1*
X3813Y2375D1*
Y2525D1*
X3848D1*
X155Y4376D2*
X487D1*
X914Y4803D1*
X865Y4816D1*
X834Y4832D1*
X806Y4853D1*
X782Y4878D1*
X763Y4907D1*
X749Y4940D1*
X741Y4977D1*
X696Y4976D1*
Y5025D1*
X445Y5024D1*
X155D1*
Y5516D1*
X725D1*
Y5407D1*
X976Y5408D1*
X1185D1*
X1222Y5445D1*
Y5685D1*
X1183Y5724D1*
X696D1*
Y6144D1*
X155D1*
Y4376D1*
X629Y3884D2*
X155D1*
Y2855D1*
X687D1*
X721Y2888D1*
X751Y2907D1*
X784Y2920D1*
X818Y2927D1*
X853D1*
X887Y2922D1*
X920Y2911D1*
X951Y2894D1*
X978Y2872D1*
X1007Y2835D1*
X1015Y2851D1*
X1017Y2861D1*
X999Y2896D1*
X989Y2930D1*
Y2969D1*
X994Y3004D1*
X1011Y3040D1*
X1031Y3068D1*
X1061Y3094D1*
X1092Y3111D1*
X1084Y3107D1*
X1095Y3125D1*
Y3194D1*
X1079Y3201D1*
X947Y3202D1*
X692D1*
X657Y3206D1*
X624Y3218D1*
X587Y3245D1*
X486Y3347D1*
X165Y3346D1*
Y3837D1*
X676D1*
X629Y3884D1*
X2895Y6145D2*
Y5654D1*
X2325D1*
Y5717D1*
X2129D1*
X2095Y5709D1*
X2029Y5707D1*
X1783D1*
Y5409D1*
X2350Y5408D1*
X2408D1*
Y5206D1*
X2784Y5205D1*
Y4679D1*
X2804Y4670D1*
Y5205D1*
X2834D1*
X2832Y5239D1*
X2837Y5273D1*
X2848Y5307D1*
X2864Y5337D1*
X2885Y5365D1*
X2911Y5388D1*
X2941Y5407D1*
X2974Y5420D1*
X3008Y5427D1*
X3043D1*
X3083Y5420D1*
Y5695D1*
X3004D1*
X3003Y6144D1*
X2895D1*
X2293Y4976D2*
X1733D1*
X1655Y4896D1*
X1504Y4746D1*
X1477Y4724D1*
X1447Y4707D1*
X1413Y4696D1*
X1375Y4692D1*
X1321D1*
X1094Y4465D1*
X1138Y4432D1*
X1161Y4404D1*
X1305Y4405D1*
X1367D1*
X1350Y4432D1*
X1337Y4465D1*
X1329Y4499D1*
X1327Y4534D1*
X1332Y4568D1*
X1343Y4602D1*
X1359Y4632D1*
X1380Y4660D1*
X1406Y4683D1*
X1436Y4702D1*
X1469Y4715D1*
X1503Y4722D1*
X1538D1*
X1572Y4717D1*
X1605Y4706D1*
X1636Y4689D1*
X1650Y4677D1*
X1668Y4697D1*
X1694Y4721D1*
X1724Y4739D1*
X1756Y4752D1*
X1790Y4759D1*
X1825Y4760D1*
X1860Y4755D1*
X1893Y4743D1*
X1924Y4726D1*
X1951Y4704D1*
X1973Y4678D1*
X1991Y4647D1*
X2003Y4615D1*
X2010Y4562D1*
X2006Y4525D1*
X2024Y4545D1*
X2063Y4585D1*
X2090Y4606D1*
X2122Y4621D1*
X2168Y4628D1*
X2252D1*
X2293Y4670D1*
Y4975D1*
X2969Y4635D2*
X2844D1*
X2861Y4615D1*
X2879Y4585D1*
X2891Y4552D1*
X2896Y4525D1*
X2962Y4591D1*
X2967Y4634D1*
X3381Y2908D2*
X3411Y2927D1*
X3444Y2940D1*
X3478Y2947D1*
X3513D1*
X3547Y2942D1*
X3580Y2931D1*
X3611Y2914D1*
X3638Y2892D1*
X3661Y2865D1*
X3679Y2835D1*
X3691Y2802D1*
X3695Y2782D1*
Y2986D1*
X3356Y2985D1*
X3355Y2916D1*
X3374Y2908D1*
X3381D1*
X3411Y2927D1*
X3444Y2940D1*
X3478Y2947D1*
X3513D1*
X3547Y2942D1*
X3580Y2931D1*
X3611Y2914D1*
X3638Y2892D1*
X3661Y2865D1*
X3679Y2835D1*
X3691Y2802D1*
X3695Y2777D1*
Y2715D1*
X3686Y2681D1*
X3671Y2650D1*
X3650Y2621D1*
X3625Y2597D1*
X3596Y2577D1*
X3565Y2563D1*
X3596Y2533D1*
X3617Y2506D1*
X3631Y2474D1*
X3638Y2439D1*
X4445Y3906D2*
X4488Y3917D1*
X4523D1*
X4557Y3912D1*
X4590Y3901D1*
X4621Y3884D1*
X4648Y3862D1*
X4671Y3835D1*
X4689Y3805D1*
X4701Y3772D1*
X4708Y3720D1*
X4705Y3685D1*
X4697Y3657D1*
G36*
X5895Y2915D2*
X6445D1*
X6461Y2914D1*
X6476Y2912D1*
X6491Y2908D1*
X6506Y2902D1*
X6520Y2895D1*
X6533Y2886D1*
X6545Y2876D1*
X6556Y2865D1*
X6566Y2853D1*
X6575Y2840D1*
X6582Y2826D1*
X6588Y2811D1*
X6592Y2796D1*
X6594Y2781D1*
X6595Y2765D1*
Y2215D1*
X6594Y2199D1*
X6592Y2184D1*
X6588Y2169D1*
X6582Y2154D1*
X6575Y2140D1*
X6566Y2127D1*
X6556Y2115D1*
X6545Y2104D1*
X6533Y2094D1*
X6520Y2085D1*
X6506Y2078D1*
X6491Y2072D1*
X6476Y2068D1*
X6461Y2066D1*
X6445Y2065D1*
X5895D1*
X5879Y2066D1*
X5864Y2068D1*
X5849Y2072D1*
X5834Y2078D1*
X5820Y2085D1*
X5807Y2094D1*
X5795Y2104D1*
X5784Y2115D1*
X5774Y2127D1*
X5765Y2140D1*
X5758Y2154D1*
X5752Y2169D1*
X5748Y2184D1*
X5746Y2199D1*
X5745Y2215D1*
Y2765D1*
X5746Y2781D1*
X5748Y2796D1*
X5752Y2811D1*
X5758Y2826D1*
X5765Y2840D1*
X5774Y2853D1*
X5784Y2865D1*
X5795Y2876D1*
X5807Y2886D1*
X5820Y2895D1*
X5834Y2902D1*
X5849Y2908D1*
X5864Y2912D1*
X5879Y2914D1*
X5895Y2915D1*
G37*
G36*
X5745Y1215D2*
Y1765D1*
X5746Y1781D1*
X5748Y1796D1*
X5752Y1811D1*
X5758Y1826D1*
X5765Y1840D1*
X5774Y1853D1*
X5784Y1865D1*
X5795Y1876D1*
X5807Y1886D1*
X5820Y1895D1*
X5834Y1902D1*
X5849Y1908D1*
X5864Y1912D1*
X5879Y1914D1*
X5895Y1915D1*
X6445D1*
X6461Y1914D1*
X6476Y1912D1*
X6491Y1908D1*
X6506Y1902D1*
X6520Y1895D1*
X6533Y1886D1*
X6545Y1876D1*
X6556Y1865D1*
X6566Y1853D1*
X6575Y1840D1*
X6582Y1826D1*
X6588Y1811D1*
X6592Y1796D1*
X6594Y1781D1*
X6595Y1765D1*
Y1215D1*
X6594Y1199D1*
X6592Y1184D1*
X6588Y1169D1*
X6582Y1154D1*
X6575Y1140D1*
X6566Y1127D1*
X6556Y1115D1*
X6545Y1104D1*
X6533Y1094D1*
X6520Y1085D1*
X6506Y1078D1*
X6491Y1072D1*
X6476Y1068D1*
X6461Y1066D1*
X6445Y1065D1*
X5895D1*
X5879Y1066D1*
X5864Y1068D1*
X5849Y1072D1*
X5834Y1078D1*
X5820Y1085D1*
X5807Y1094D1*
X5795Y1104D1*
X5784Y1115D1*
X5774Y1127D1*
X5765Y1140D1*
X5758Y1154D1*
X5752Y1169D1*
X5748Y1184D1*
X5746Y1199D1*
X5745Y1215D1*
G37*
G36*
X6445Y915D2*
X5895D1*
X5879Y914D1*
X5864Y912D1*
X5849Y908D1*
X5834Y902D1*
X5820Y895D1*
X5807Y886D1*
X5795Y876D1*
X5784Y865D1*
X5774Y853D1*
X5765Y840D1*
X5758Y826D1*
X5752Y811D1*
X5748Y796D1*
X5746Y781D1*
X5745Y765D1*
Y215D1*
X5746Y199D1*
X5748Y184D1*
X5752Y169D1*
X5758Y154D1*
X5765Y140D1*
X5774Y127D1*
X5784Y115D1*
X5795Y104D1*
X5807Y94D1*
X5820Y85D1*
X5834Y78D1*
X5849Y72D1*
X5864Y68D1*
X5879Y66D1*
X5895Y65D1*
X6445D1*
X6461Y66D1*
X6476Y68D1*
X6491Y72D1*
X6506Y78D1*
X6520Y85D1*
X6533Y94D1*
X6545Y104D1*
X6556Y115D1*
X6566Y127D1*
X6575Y140D1*
X6582Y154D1*
X6588Y169D1*
X6592Y184D1*
X6594Y199D1*
X6595Y215D1*
Y765D1*
X6594Y781D1*
X6592Y796D1*
X6588Y811D1*
X6582Y826D1*
X6575Y840D1*
X6566Y853D1*
X6556Y865D1*
X6545Y876D1*
X6533Y886D1*
X6520Y895D1*
X6506Y902D1*
X6491Y908D1*
X6476Y912D1*
X6461Y914D1*
X6445Y915D1*
G37*
G36*
X85Y245D2*
Y795D1*
X86Y811D1*
X88Y826D1*
X92Y841D1*
X98Y856D1*
X105Y870D1*
X114Y883D1*
X124Y895D1*
X135Y906D1*
X147Y916D1*
X160Y925D1*
X174Y932D1*
X189Y938D1*
X204Y942D1*
X219Y944D1*
X235Y945D1*
X785D1*
X801Y944D1*
X816Y942D1*
X831Y938D1*
X846Y932D1*
X860Y925D1*
X873Y916D1*
X885Y906D1*
X896Y895D1*
X906Y883D1*
X915Y870D1*
X922Y856D1*
X928Y841D1*
X932Y826D1*
X934Y811D1*
X935Y795D1*
Y245D1*
X934Y229D1*
X932Y214D1*
X928Y199D1*
X922Y184D1*
X915Y170D1*
X906Y157D1*
X896Y145D1*
X885Y134D1*
X873Y124D1*
X860Y115D1*
X846Y108D1*
X831Y102D1*
X816Y98D1*
X801Y96D1*
X785Y95D1*
X235D1*
X219Y96D1*
X204Y98D1*
X189Y102D1*
X174Y108D1*
X160Y115D1*
X147Y124D1*
X135Y134D1*
X124Y145D1*
X114Y157D1*
X105Y170D1*
X98Y184D1*
X92Y199D1*
X88Y214D1*
X86Y229D1*
X85Y245D1*
G37*
G36*
X1785Y95D2*
X1235D1*
X1219Y96D1*
X1204Y98D1*
X1189Y102D1*
X1174Y108D1*
X1160Y115D1*
X1147Y124D1*
X1135Y134D1*
X1124Y145D1*
X1114Y157D1*
X1105Y170D1*
X1098Y184D1*
X1092Y199D1*
X1088Y214D1*
X1086Y229D1*
X1085Y245D1*
Y795D1*
X1086Y811D1*
X1088Y826D1*
X1092Y841D1*
X1098Y856D1*
X1105Y870D1*
X1114Y883D1*
X1124Y895D1*
X1135Y906D1*
X1147Y916D1*
X1160Y925D1*
X1174Y932D1*
X1189Y938D1*
X1204Y942D1*
X1219Y944D1*
X1235Y945D1*
X1785D1*
X1801Y944D1*
X1816Y942D1*
X1831Y938D1*
X1846Y932D1*
X1860Y925D1*
X1873Y916D1*
X1885Y906D1*
X1896Y895D1*
X1906Y883D1*
X1915Y870D1*
X1922Y856D1*
X1928Y841D1*
X1932Y826D1*
X1934Y811D1*
X1935Y795D1*
Y245D1*
X1934Y229D1*
X1932Y214D1*
X1928Y199D1*
X1922Y184D1*
X1915Y170D1*
X1906Y157D1*
X1896Y145D1*
X1885Y134D1*
X1873Y124D1*
X1860Y115D1*
X1846Y108D1*
X1831Y102D1*
X1816Y98D1*
X1801Y96D1*
X1785Y95D1*
G37*
G36*
X2085Y795D2*
Y245D1*
X2086Y229D1*
X2088Y214D1*
X2092Y199D1*
X2098Y184D1*
X2105Y170D1*
X2114Y157D1*
X2124Y145D1*
X2135Y134D1*
X2147Y124D1*
X2160Y115D1*
X2174Y108D1*
X2189Y102D1*
X2204Y98D1*
X2219Y96D1*
X2235Y95D1*
X2785D1*
X2801Y96D1*
X2816Y98D1*
X2831Y102D1*
X2846Y108D1*
X2860Y115D1*
X2873Y124D1*
X2885Y134D1*
X2896Y145D1*
X2906Y157D1*
X2915Y170D1*
X2922Y184D1*
X2928Y199D1*
X2932Y214D1*
X2934Y229D1*
X2935Y245D1*
Y795D1*
X2934Y811D1*
X2932Y826D1*
X2928Y841D1*
X2922Y856D1*
X2915Y870D1*
X2906Y883D1*
X2896Y895D1*
X2885Y906D1*
X2873Y916D1*
X2860Y925D1*
X2846Y932D1*
X2831Y938D1*
X2816Y942D1*
X2801Y944D1*
X2785Y945D1*
X2235D1*
X2219Y944D1*
X2204Y942D1*
X2189Y938D1*
X2174Y932D1*
X2160Y925D1*
X2147Y916D1*
X2135Y906D1*
X2124Y895D1*
X2114Y883D1*
X2105Y870D1*
X2098Y856D1*
X2092Y841D1*
X2088Y826D1*
X2086Y811D1*
X2085Y795D1*
G37*
G36*
X3235Y95D2*
X3785D1*
X3801Y96D1*
X3816Y98D1*
X3831Y102D1*
X3846Y108D1*
X3860Y115D1*
X3873Y124D1*
X3885Y134D1*
X3896Y145D1*
X3906Y157D1*
X3915Y170D1*
X3922Y184D1*
X3928Y199D1*
X3932Y214D1*
X3934Y229D1*
X3935Y245D1*
Y795D1*
X3934Y811D1*
X3932Y826D1*
X3928Y841D1*
X3922Y856D1*
X3915Y870D1*
X3906Y883D1*
X3896Y895D1*
X3885Y906D1*
X3873Y916D1*
X3860Y925D1*
X3846Y932D1*
X3831Y938D1*
X3816Y942D1*
X3801Y944D1*
X3785Y945D1*
X3235D1*
X3219Y944D1*
X3204Y942D1*
X3189Y938D1*
X3174Y932D1*
X3160Y925D1*
X3147Y916D1*
X3135Y906D1*
X3124Y895D1*
X3114Y883D1*
X3105Y870D1*
X3098Y856D1*
X3092Y841D1*
X3088Y826D1*
X3086Y811D1*
X3085Y795D1*
Y245D1*
X3086Y229D1*
X3088Y214D1*
X3092Y199D1*
X3098Y184D1*
X3105Y170D1*
X3114Y157D1*
X3124Y145D1*
X3135Y134D1*
X3147Y124D1*
X3160Y115D1*
X3174Y108D1*
X3189Y102D1*
X3204Y98D1*
X3219Y96D1*
X3235Y95D1*
G37*
D22*
X4730Y800D3*
Y288D3*
D23*
X4570Y2240D3*
X4058D3*
D22*
X430Y4130D3*
Y4642D3*
X450Y3080D3*
Y3592D3*
X440Y5270D3*
Y5782D3*
X2610Y5900D3*
Y5388D3*
G36*
X4681Y1250D2*
X4477Y1045D1*
X5023D1*
Y1455D1*
X4477D1*
X4681Y1250D1*
G37*
G36*
X4118Y1455D2*
X4391D1*
X4595Y1250D1*
X4391Y1045D1*
X4118D1*
Y1455D1*
G37*
D24*
X3860Y5960D3*
X3269D3*
X4340D3*
X4931D3*
D25*
X450Y2590D3*
Y1881D3*
D28*
X1040Y5940D3*
Y5566D3*
Y5192D3*
X2064D3*
Y5940D3*
D22*
X3980Y2900D3*
Y3412D3*
D23*
X3050Y4920D3*
X2538D3*
D22*
X4290Y280D3*
Y792D3*
D23*
X4340Y5480D3*
X4852D3*
X3840D3*
X3328D3*
D22*
X4490Y2900D3*
Y3412D3*
D29*
X5880Y4280D3*
D30*
X5299Y3681D3*
X6461D3*
D31*
X6040Y4690D3*
Y5970D3*
D32*
X5670Y5330D3*
X6410D3*
G36*
X3300Y2503D2*
X3325Y2509D1*
X3346Y2526D1*
X3357Y2549D1*
Y2576D1*
X3346Y2599D1*
X3325Y2616D1*
X3300Y2622D1*
X3083D1*
X3057Y2616D1*
X3037Y2599D1*
X3025Y2576D1*
Y2549D1*
X3037Y2526D1*
X3057Y2509D1*
X3083Y2503D1*
X3300D1*
G37*
G36*
Y2700D2*
X3325Y2706D1*
X3346Y2723D1*
X3357Y2746D1*
Y2772D1*
X3346Y2796D1*
X3325Y2813D1*
X3300Y2818D1*
X3083D1*
X3057Y2813D1*
X3037Y2796D1*
X3025Y2772D1*
Y2746D1*
X3037Y2723D1*
X3057Y2706D1*
X3083Y2700D1*
X3300D1*
G37*
G36*
Y2897D2*
X3325Y2903D1*
X3346Y2919D1*
X3357Y2943D1*
Y2969D1*
X3346Y2993D1*
X3325Y3009D1*
X3300Y3015D1*
X3083D1*
X3057Y3009D1*
X3037Y2993D1*
X3025Y2969D1*
Y2943D1*
X3037Y2919D1*
X3057Y2903D1*
X3083Y2897D1*
X3300D1*
G37*
G36*
Y3094D2*
X3325Y3100D1*
X3346Y3116D1*
X3357Y3140D1*
Y3166D1*
X3346Y3190D1*
X3325Y3206D1*
X3300Y3212D1*
X3083D1*
X3057Y3206D1*
X3037Y3190D1*
X3025Y3166D1*
Y3140D1*
X3037Y3116D1*
X3057Y3100D1*
X3083Y3094D1*
X3300D1*
G37*
G36*
Y3291D2*
X3325Y3297D1*
X3346Y3313D1*
X3357Y3337D1*
Y3363D1*
X3346Y3387D1*
X3325Y3403D1*
X3300Y3409D1*
X3083D1*
X3057Y3403D1*
X3037Y3387D1*
X3025Y3363D1*
Y3337D1*
X3037Y3313D1*
X3057Y3297D1*
X3083Y3291D1*
X3300D1*
G37*
G36*
Y3488D2*
X3325Y3494D1*
X3346Y3510D1*
X3357Y3534D1*
Y3560D1*
X3346Y3584D1*
X3325Y3600D1*
X3300Y3606D1*
X3083D1*
X3057Y3600D1*
X3037Y3584D1*
X3025Y3560D1*
Y3534D1*
X3037Y3510D1*
X3057Y3494D1*
X3083Y3488D1*
X3300D1*
G37*
G36*
Y3685D2*
X3325Y3690D1*
X3346Y3707D1*
X3357Y3730D1*
Y3757D1*
X3346Y3780D1*
X3325Y3797D1*
X3300Y3803D1*
X3083D1*
X3057Y3797D1*
X3037Y3780D1*
X3025Y3757D1*
Y3730D1*
X3037Y3707D1*
X3057Y3690D1*
X3083Y3685D1*
X3300D1*
G37*
G36*
Y3881D2*
X3325Y3887D1*
X3346Y3904D1*
X3357Y3927D1*
Y3954D1*
X3346Y3977D1*
X3325Y3994D1*
X3300Y4000D1*
X3083D1*
X3057Y3994D1*
X3037Y3977D1*
X3025Y3954D1*
Y3927D1*
X3037Y3904D1*
X3057Y3887D1*
X3083Y3881D1*
X3300D1*
G37*
G36*
X2975Y4324D2*
X2969Y4350D1*
X2953Y4370D1*
X2929Y4382D1*
X2903D1*
X2879Y4370D1*
X2863Y4350D1*
X2857Y4324D1*
Y4108D1*
X2863Y4082D1*
X2879Y4062D1*
X2903Y4050D1*
X2929D1*
X2953Y4062D1*
X2969Y4082D1*
X2975Y4108D1*
Y4324D1*
G37*
G36*
X2778D2*
X2772Y4350D1*
X2756Y4370D1*
X2732Y4382D1*
X2706D1*
X2682Y4370D1*
X2666Y4350D1*
X2660Y4324D1*
Y4108D1*
X2666Y4082D1*
X2682Y4062D1*
X2706Y4050D1*
X2732D1*
X2756Y4062D1*
X2772Y4082D1*
X2778Y4108D1*
Y4324D1*
G37*
G36*
X2581D2*
X2575Y4350D1*
X2559Y4370D1*
X2535Y4382D1*
X2509D1*
X2485Y4370D1*
X2469Y4350D1*
X2463Y4324D1*
Y4108D1*
X2469Y4082D1*
X2485Y4062D1*
X2509Y4050D1*
X2535D1*
X2559Y4062D1*
X2575Y4082D1*
X2581Y4108D1*
Y4324D1*
G37*
G36*
X2384D2*
X2378Y4350D1*
X2362Y4370D1*
X2338Y4382D1*
X2312D1*
X2288Y4370D1*
X2272Y4350D1*
X2266Y4324D1*
Y4108D1*
X2272Y4082D1*
X2288Y4062D1*
X2312Y4050D1*
X2338D1*
X2362Y4062D1*
X2378Y4082D1*
X2384Y4108D1*
Y4324D1*
G37*
G36*
X2187D2*
X2182Y4350D1*
X2165Y4370D1*
X2141Y4382D1*
X2115D1*
X2092Y4370D1*
X2075Y4350D1*
X2069Y4324D1*
Y4108D1*
X2075Y4082D1*
X2092Y4062D1*
X2115Y4050D1*
X2141D1*
X2165Y4062D1*
X2182Y4082D1*
X2187Y4108D1*
Y4324D1*
G37*
G36*
X1991D2*
X1985Y4350D1*
X1968Y4370D1*
X1945Y4382D1*
X1918D1*
X1895Y4370D1*
X1878Y4350D1*
X1872Y4324D1*
Y4108D1*
X1878Y4082D1*
X1895Y4062D1*
X1918Y4050D1*
X1945D1*
X1968Y4062D1*
X1985Y4082D1*
X1991Y4108D1*
Y4324D1*
G37*
G36*
X1794D2*
X1788Y4350D1*
X1771Y4370D1*
X1748Y4382D1*
X1722D1*
X1698Y4370D1*
X1681Y4350D1*
X1676Y4324D1*
Y4108D1*
X1681Y4082D1*
X1698Y4062D1*
X1722Y4050D1*
X1748D1*
X1771Y4062D1*
X1788Y4082D1*
X1794Y4108D1*
Y4324D1*
G37*
G36*
X1597D2*
X1591Y4350D1*
X1575Y4370D1*
X1551Y4382D1*
X1525D1*
X1501Y4370D1*
X1485Y4350D1*
X1479Y4324D1*
Y4108D1*
X1485Y4082D1*
X1501Y4062D1*
X1525Y4050D1*
X1551D1*
X1575Y4062D1*
X1591Y4082D1*
X1597Y4108D1*
Y4324D1*
G37*
G36*
X1370Y3881D2*
X1396Y3887D1*
X1417Y3904D1*
X1428Y3927D1*
Y3954D1*
X1417Y3977D1*
X1396Y3994D1*
X1370Y4000D1*
X1154D1*
X1128Y3994D1*
X1108Y3977D1*
X1096Y3954D1*
Y3927D1*
X1108Y3904D1*
X1128Y3887D1*
X1154Y3881D1*
X1370D1*
G37*
G36*
Y3685D2*
X1396Y3690D1*
X1417Y3707D1*
X1428Y3730D1*
Y3757D1*
X1417Y3780D1*
X1396Y3797D1*
X1370Y3803D1*
X1154D1*
X1128Y3797D1*
X1108Y3780D1*
X1096Y3757D1*
Y3730D1*
X1108Y3707D1*
X1128Y3690D1*
X1154Y3685D1*
X1370D1*
G37*
G36*
Y3488D2*
X1396Y3494D1*
X1417Y3510D1*
X1428Y3534D1*
Y3560D1*
X1417Y3584D1*
X1396Y3600D1*
X1370Y3606D1*
X1154D1*
X1128Y3600D1*
X1108Y3584D1*
X1096Y3560D1*
Y3534D1*
X1108Y3510D1*
X1128Y3494D1*
X1154Y3488D1*
X1370D1*
G37*
G36*
Y3291D2*
X1396Y3297D1*
X1417Y3313D1*
X1428Y3337D1*
Y3363D1*
X1417Y3387D1*
X1396Y3403D1*
X1370Y3409D1*
X1154D1*
X1128Y3403D1*
X1108Y3387D1*
X1096Y3363D1*
Y3337D1*
X1108Y3313D1*
X1128Y3297D1*
X1154Y3291D1*
X1370D1*
G37*
G36*
Y3094D2*
X1396Y3100D1*
X1417Y3116D1*
X1428Y3140D1*
Y3166D1*
X1417Y3190D1*
X1396Y3206D1*
X1370Y3212D1*
X1154D1*
X1128Y3206D1*
X1108Y3190D1*
X1096Y3166D1*
Y3140D1*
X1108Y3116D1*
X1128Y3100D1*
X1154Y3094D1*
X1370D1*
G37*
G36*
Y2897D2*
X1396Y2903D1*
X1417Y2919D1*
X1428Y2943D1*
Y2969D1*
X1417Y2993D1*
X1396Y3009D1*
X1370Y3015D1*
X1154D1*
X1128Y3009D1*
X1108Y2993D1*
X1096Y2969D1*
Y2943D1*
X1108Y2919D1*
X1128Y2903D1*
X1154Y2897D1*
X1370D1*
G37*
G36*
Y2700D2*
X1396Y2706D1*
X1417Y2723D1*
X1428Y2746D1*
Y2772D1*
X1417Y2796D1*
X1396Y2813D1*
X1370Y2818D1*
X1154D1*
X1128Y2813D1*
X1108Y2796D1*
X1096Y2772D1*
Y2746D1*
X1108Y2723D1*
X1128Y2706D1*
X1154Y2700D1*
X1370D1*
G37*
G36*
Y2503D2*
X1396Y2509D1*
X1417Y2526D1*
X1428Y2549D1*
Y2576D1*
X1417Y2599D1*
X1396Y2616D1*
X1370Y2622D1*
X1154D1*
X1128Y2616D1*
X1108Y2599D1*
X1096Y2576D1*
Y2549D1*
X1108Y2526D1*
X1128Y2509D1*
X1154Y2503D1*
X1370D1*
G37*
G36*
X1597Y2395D2*
X1591Y2421D1*
X1575Y2441D1*
X1551Y2453D1*
X1525D1*
X1501Y2441D1*
X1485Y2421D1*
X1479Y2395D1*
Y2179D1*
X1485Y2153D1*
X1501Y2132D1*
X1525Y2121D1*
X1551D1*
X1575Y2132D1*
X1591Y2153D1*
X1597Y2179D1*
Y2395D1*
G37*
G36*
X1794D2*
X1788Y2421D1*
X1771Y2441D1*
X1748Y2453D1*
X1722D1*
X1698Y2441D1*
X1681Y2421D1*
X1676Y2395D1*
Y2179D1*
X1681Y2153D1*
X1698Y2132D1*
X1722Y2121D1*
X1748D1*
X1771Y2132D1*
X1788Y2153D1*
X1794Y2179D1*
Y2395D1*
G37*
G36*
X1991D2*
X1985Y2421D1*
X1968Y2441D1*
X1945Y2453D1*
X1918D1*
X1895Y2441D1*
X1878Y2421D1*
X1872Y2395D1*
Y2179D1*
X1878Y2153D1*
X1895Y2132D1*
X1918Y2121D1*
X1945D1*
X1968Y2132D1*
X1985Y2153D1*
X1991Y2179D1*
Y2395D1*
G37*
G36*
X2187D2*
X2182Y2421D1*
X2165Y2441D1*
X2141Y2453D1*
X2115D1*
X2092Y2441D1*
X2075Y2421D1*
X2069Y2395D1*
Y2179D1*
X2075Y2153D1*
X2092Y2132D1*
X2115Y2121D1*
X2141D1*
X2165Y2132D1*
X2182Y2153D1*
X2187Y2179D1*
Y2395D1*
G37*
G36*
X2384D2*
X2378Y2421D1*
X2362Y2441D1*
X2338Y2453D1*
X2312D1*
X2288Y2441D1*
X2272Y2421D1*
X2266Y2395D1*
Y2179D1*
X2272Y2153D1*
X2288Y2132D1*
X2312Y2121D1*
X2338D1*
X2362Y2132D1*
X2378Y2153D1*
X2384Y2179D1*
Y2395D1*
G37*
G36*
X2581D2*
X2575Y2421D1*
X2559Y2441D1*
X2535Y2453D1*
X2509D1*
X2485Y2441D1*
X2469Y2421D1*
X2463Y2395D1*
Y2179D1*
X2469Y2153D1*
X2485Y2132D1*
X2509Y2121D1*
X2535D1*
X2559Y2132D1*
X2575Y2153D1*
X2581Y2179D1*
Y2395D1*
G37*
G36*
X2778D2*
X2772Y2421D1*
X2756Y2441D1*
X2732Y2453D1*
X2706D1*
X2682Y2441D1*
X2666Y2421D1*
X2660Y2395D1*
Y2179D1*
X2666Y2153D1*
X2682Y2132D1*
X2706Y2121D1*
X2732D1*
X2756Y2132D1*
X2772Y2153D1*
X2778Y2179D1*
Y2395D1*
G37*
G36*
X2975D2*
X2969Y2421D1*
X2953Y2441D1*
X2929Y2453D1*
X2903D1*
X2879Y2441D1*
X2863Y2421D1*
X2857Y2395D1*
Y2179D1*
X2863Y2153D1*
X2879Y2132D1*
X2903Y2121D1*
X2929D1*
X2953Y2132D1*
X2969Y2153D1*
X2975Y2179D1*
Y2395D1*
G37*
G36*
X2867Y2612D2*
X1587D1*
Y3891D1*
X2867D1*
Y2612D1*
G37*
D34*
X4910Y2640D3*
G36*
X4535Y4298D2*
X4810D1*
Y4967D1*
X4535D1*
Y4298D1*
G37*
G36*
X4062D2*
X4338D1*
Y4967D1*
X4062D1*
Y4298D1*
G37*
G36*
X3590D2*
X3865D1*
Y4967D1*
X3590D1*
Y4298D1*
G37*
M02*
