G04 DipTrace Beta 2.3.5.2*
%INsubMicroLRSv2_0603.GBL*%
%MOIN*%
%ADD13C,0.008*%
%ADD14C,0.01*%
%ADD15C,0.005*%
%ADD17C,0.012*%
%ADD18C,0.015*%
%ADD19C,0.007*%
%ADD27R,0.0787X0.0787*%
%ADD28C,0.0787*%
%ADD34R,0.0591X0.0512*%
%ADD36C,0.018*%
%ADD37C,0.027*%
%ADD38C,0.03*%
%FSLAX44Y44*%
G04*
G70*
G90*
G75*
G01*
%LNBottom*%
%LPD*%
X3060Y1820D2*
D13*
Y1790D1*
X3050Y1780D1*
Y1850D1*
X2587Y2312D1*
X1563D1*
X1250Y2625D1*
Y3750D1*
X695Y4305D1*
X384D1*
X950Y3550D2*
X384D1*
Y3518D1*
X1190Y1930D2*
X416Y1156D1*
X384D1*
X4050Y3040D2*
X4060Y3030D1*
Y2160D1*
X3170Y1270D1*
X384D1*
Y1156D1*
X875Y1937D2*
X870Y1943D1*
X384D1*
X3050Y4040D2*
X2870Y4220D1*
X2560D1*
X2218Y4562D1*
X1812D1*
X2313Y687D2*
D15*
X2500Y500D1*
X2688Y313D2*
X2500Y500D1*
X2688Y687D2*
X2500Y500D1*
X2313Y313D2*
X2500Y500D1*
X6150Y5900D2*
X6170Y5880D1*
X6290D1*
Y3518D2*
D14*
X6192Y3420D1*
X5650D1*
X5420Y3190D1*
Y2190D1*
X5667Y1943D1*
X6290D1*
Y4305D2*
X6172Y4188D1*
X5858D1*
X5230Y3560D1*
Y2050D1*
X5540Y1740D1*
Y1490D1*
X5874Y1156D1*
X6290D1*
X3313Y687D2*
D15*
X3500Y500D1*
X3688Y313D2*
X3500Y500D1*
X3688Y687D2*
X3500Y500D1*
X3313Y313D2*
X3500Y500D1*
X2050Y3040D2*
D13*
X2210D1*
X2830Y2420D1*
X3470D1*
X3720Y2170D1*
X840Y2730D2*
X384D1*
X3050Y3040D2*
X2550Y3540D1*
X1750D1*
X1000Y4290D1*
X5730Y3082D2*
D18*
X6082Y2730D1*
X6290D1*
X4530Y3820D2*
D17*
X4310Y4040D1*
X4050D1*
X1313Y688D2*
D15*
X1500Y500D1*
X1688Y688D2*
X1500Y500D1*
X1688Y313D2*
X1500Y500D1*
X1313Y313D2*
X1500Y500D1*
D36*
X3500Y2750D3*
X4750Y3130D3*
X950Y3550D3*
X3500Y2750D3*
X1525Y4525D3*
X1190Y1930D3*
X2970Y5130D3*
X3820Y5180D3*
X2700Y4500D3*
X4180Y5150D3*
X3290Y4520D3*
X2327Y2000D3*
X2580Y1720D3*
X5690Y920D3*
X1000Y4290D3*
D3*
X2812Y1812D3*
D37*
X1688Y5960D3*
X5730Y3082D3*
D36*
X4530Y3820D3*
D3*
X937Y5000D3*
X400Y5630D3*
X5140Y1870D3*
X4080Y5950D3*
X840Y2730D3*
X3060Y1820D3*
X1500Y500D3*
X6020Y5320D3*
X5810Y3630D3*
X500Y500D3*
X700Y4900D3*
X2220Y5530D3*
X850Y2430D3*
X875Y1937D3*
D38*
X6150Y5900D3*
D36*
X1812Y4562D3*
X313Y687D3*
X5150Y1050D3*
X1910Y5530D3*
X3720Y2170D3*
X3188Y2182D3*
X5860Y1520D3*
X5870Y2380D3*
X5850Y480D3*
X1313Y688D3*
X1688D3*
X1313Y313D3*
X1688D3*
X2550Y3250D3*
X2020Y3800D3*
X5460Y5990D3*
X5480Y5620D3*
X5460Y5030D3*
X688Y687D3*
X313Y313D3*
X688D3*
X2500Y500D3*
X2313Y687D3*
X2688D3*
X2313Y313D3*
X2688D3*
X3500Y500D3*
X3313Y687D3*
X3688D3*
X3313Y313D3*
X3688D3*
X5180Y4680D3*
X5460D3*
X4450Y5090D3*
X5190Y5030D3*
X1850Y4820D3*
X5250Y4312D3*
X6438Y5125D3*
X1625Y2688D3*
X880Y3000D3*
X162Y6076D2*
D19*
X1468D1*
X1908D2*
X5880D1*
X162Y6007D2*
X1442D1*
X1932D2*
X5880D1*
X162Y5938D2*
X1439D1*
X1937D2*
X5880D1*
X162Y5869D2*
X1456D1*
X1919D2*
X5880D1*
X162Y5801D2*
X1497D1*
X1878D2*
X5880D1*
X162Y5732D2*
X1597D1*
X1778D2*
X5880D1*
X162Y5663D2*
X5880D1*
X162Y5595D2*
X5880D1*
X162Y5526D2*
X5880D1*
X162Y5457D2*
X6531D1*
X162Y5389D2*
X6531D1*
X162Y5320D2*
X2908D1*
X3031D2*
X3674D1*
X3967D2*
X4072D1*
X4288D2*
X6531D1*
X162Y5251D2*
X2806D1*
X3133D2*
X3629D1*
X4357D2*
X6531D1*
X162Y5183D2*
X855D1*
X1020D2*
X2772D1*
X3167D2*
X3616D1*
X4382D2*
X6531D1*
X162Y5114D2*
X769D1*
X1106D2*
X2766D1*
X3174D2*
X3627D1*
X4381D2*
X6531D1*
X162Y5045D2*
X738D1*
X1137D2*
X2784D1*
X3155D2*
X3668D1*
X4355D2*
X6531D1*
X162Y4977D2*
X734D1*
X1140D2*
X2838D1*
X3101D2*
X4078D1*
X4282D2*
X6531D1*
X162Y4908D2*
X756D1*
X1120D2*
X6531D1*
X162Y4839D2*
X816D1*
X1059D2*
X6531D1*
X162Y4770D2*
X6531D1*
X162Y4702D2*
X1429D1*
X1621D2*
X1666D1*
X2273D2*
X3206D1*
X3375D2*
X6531D1*
X795Y4633D2*
X1353D1*
X2363D2*
X2547D1*
X2853D2*
X3121D1*
X3459D2*
X5880D1*
X795Y4564D2*
X1324D1*
X2431D2*
X2506D1*
X2894D2*
X3091D1*
X3490D2*
X5880D1*
X795Y4496D2*
X1322D1*
X3493D2*
X3834D1*
X4266D2*
X5880D1*
X795Y4427D2*
X851D1*
X1149D2*
X1346D1*
X3471D2*
X3724D1*
X4376D2*
X5880D1*
X1193Y4358D2*
X1412D1*
X1638D2*
X2206D1*
X3445D2*
X3655D1*
X4445D2*
X5880D1*
X1216Y4290D2*
X2275D1*
X3492D2*
X3608D1*
X4492D2*
X5730D1*
X1285Y4221D2*
X2344D1*
X3525D2*
X3575D1*
X4524D2*
X5661D1*
X1354Y4152D2*
X2412D1*
X4545D2*
X5592D1*
X1423Y4084D2*
X2497D1*
X4556D2*
X5523D1*
X1491Y4015D2*
X2543D1*
X4579D2*
X5455D1*
X1559Y3946D2*
X2550D1*
X4690D2*
X5387D1*
X1628Y3878D2*
X2569D1*
X3531D2*
X3569D1*
X4726D2*
X5318D1*
X5778D2*
X5880D1*
X1697Y3809D2*
X2599D1*
X3502D2*
X3598D1*
X4734D2*
X5249D1*
X5709D2*
X5880D1*
X1766Y3740D2*
X2641D1*
X3459D2*
X3641D1*
X4718D2*
X5180D1*
X5640D2*
X5880D1*
X2625Y3671D2*
X2704D1*
X3397D2*
X3703D1*
X4668D2*
X5112D1*
X5571D2*
X5880D1*
X1405Y3603D2*
X1471D1*
X2703D2*
X2798D1*
X3303D2*
X3797D1*
X4302D2*
X5072D1*
X5502D2*
X5880D1*
X1405Y3534D2*
X1540D1*
X2772D2*
X2957D1*
X3142D2*
X3541D1*
X4558D2*
X5065D1*
X5434D2*
X5534D1*
X1405Y3465D2*
X1609D1*
X3322D2*
X3541D1*
X4558D2*
X5065D1*
X5395D2*
X5465D1*
X1405Y3397D2*
X1691D1*
X3409D2*
X3541D1*
X4558D2*
X5065D1*
X795Y3328D2*
X1096D1*
X1405D2*
X1633D1*
X2467D2*
X2546D1*
X3468D2*
X3541D1*
X4558D2*
X5065D1*
X795Y3259D2*
X1096D1*
X1405D2*
X1592D1*
X2508D2*
X2592D1*
X4558D2*
X4594D1*
X4906D2*
X5065D1*
X795Y3191D2*
X1096D1*
X1405D2*
X1565D1*
X4946D2*
X5065D1*
X162Y3122D2*
X1096D1*
X1405D2*
X1549D1*
X4954D2*
X5065D1*
X795Y3053D2*
X1096D1*
X1405D2*
X1542D1*
X4939D2*
X5065D1*
X795Y2985D2*
X1096D1*
X1405D2*
X1544D1*
X4558D2*
X4609D1*
X4891D2*
X5065D1*
X914Y2916D2*
X1096D1*
X1405D2*
X1557D1*
X4558D2*
X5065D1*
X1006Y2847D2*
X1096D1*
X1405D2*
X1580D1*
X4558D2*
X5065D1*
X1039Y2779D2*
X1096D1*
X1405D2*
X1615D1*
X4558D2*
X5065D1*
X1044Y2710D2*
X1096D1*
X1405D2*
X1666D1*
X4558D2*
X5065D1*
X1023Y2641D2*
X1096D1*
X1450D2*
X1739D1*
X4558D2*
X5065D1*
X994Y2572D2*
X1104D1*
X1519D2*
X1862D1*
X2238D2*
X2462D1*
X4558D2*
X5065D1*
X1041Y2504D2*
X1156D1*
X1587D2*
X2531D1*
X4215D2*
X5065D1*
X1055Y2435D2*
X1224D1*
X4215D2*
X5065D1*
X1044Y2366D2*
X1293D1*
X4215D2*
X5065D1*
X1004Y2298D2*
X1362D1*
X4215D2*
X5065D1*
X795Y2229D2*
X1430D1*
X3387D2*
X3445D1*
X4215D2*
X5065D1*
X795Y2160D2*
X2204D1*
X3391D2*
X3514D1*
X4215D2*
X5065D1*
X1006Y2092D2*
X1069D1*
X1311D2*
X2145D1*
X3371D2*
X3532D1*
X4197D2*
X5065D1*
X1371Y2023D2*
X2124D1*
X3311D2*
X3581D1*
X4138D2*
X5008D1*
X1393Y1954D2*
X2127D1*
X3212D2*
X3639D1*
X4071D2*
X4954D1*
X1390Y1886D2*
X2159D1*
X3253D2*
X3570D1*
X4002D2*
X4936D1*
X1359Y1817D2*
X2245D1*
X3264D2*
X3501D1*
X3933D2*
X4942D1*
X1275Y1748D2*
X2378D1*
X3251D2*
X3432D1*
X3864D2*
X4977D1*
X1156Y1680D2*
X2380D1*
X3206D2*
X3364D1*
X3795D2*
X5080D1*
X5199D2*
X5370D1*
X1087Y1611D2*
X2408D1*
X2751D2*
X3295D1*
X3727D2*
X5376D1*
X1018Y1542D2*
X2487D1*
X2673D2*
X3226D1*
X3658D2*
X5376D1*
X949Y1473D2*
X3157D1*
X3589D2*
X5377D1*
X3520Y1405D2*
X5401D1*
X3451Y1336D2*
X5464D1*
X3384Y1267D2*
X5533D1*
X3315Y1199D2*
X5601D1*
X3224Y1130D2*
X5670D1*
X795Y1061D2*
X5545D1*
X795Y993D2*
X5499D1*
X795Y924D2*
X5485D1*
X795Y855D2*
X1201D1*
X1424D2*
X1576D1*
X1799D2*
X2202D1*
X2424D2*
X2576D1*
X2800D2*
X3201D1*
X3424D2*
X3576D1*
X3799D2*
X5496D1*
X162Y787D2*
X1134D1*
X1866D2*
X2135D1*
X2865D2*
X3134D1*
X3866D2*
X5537D1*
X5842D2*
X6531D1*
X162Y718D2*
X1110D1*
X1890D2*
X2111D1*
X2890D2*
X3110D1*
X3890D2*
X5880D1*
X162Y649D2*
X1111D1*
X1888D2*
X2112D1*
X2888D2*
X3112D1*
X3889D2*
X5741D1*
X162Y581D2*
X1139D1*
X1861D2*
X2139D1*
X2861D2*
X3139D1*
X3861D2*
X5673D1*
X162Y512D2*
X1215D1*
X1785D2*
X2215D1*
X2785D2*
X3215D1*
X3785D2*
X5648D1*
X162Y443D2*
X1157D1*
X1843D2*
X2157D1*
X2843D2*
X3157D1*
X3843D2*
X5649D1*
X162Y374D2*
X1118D1*
X1882D2*
X2117D1*
X2883D2*
X3118D1*
X3882D2*
X5676D1*
X162Y306D2*
X1108D1*
X1892D2*
X2107D1*
X2893D2*
X3108D1*
X3892D2*
X5750D1*
X162Y237D2*
X1123D1*
X1878D2*
X2123D1*
X2877D2*
X3122D1*
X3877D2*
X5880D1*
X162Y168D2*
X1170D1*
X1829D2*
X2170D1*
X2830D2*
X3171D1*
X3830D2*
X5880D1*
X6539Y5516D2*
X5887D1*
Y6145D1*
X5733Y6144D1*
X1845D1*
X1879Y6109D1*
X1899Y6080D1*
X1914Y6048D1*
X1924Y6015D1*
X1930Y5960D1*
X1928Y5925D1*
X1920Y5891D1*
X1908Y5858D1*
X1891Y5828D1*
X1870Y5800D1*
X1845Y5775D1*
X1817Y5755D1*
X1786Y5738D1*
X1753Y5726D1*
X1719Y5719D1*
X1684Y5717D1*
X1649Y5720D1*
X1615Y5728D1*
X1582Y5741D1*
X1552Y5758D1*
X1525Y5780D1*
X1500Y5805D1*
X1480Y5834D1*
X1464Y5865D1*
X1453Y5898D1*
X1446Y5932D1*
X1445Y5967D1*
X1448Y6002D1*
X1457Y6036D1*
X1470Y6068D1*
X1488Y6098D1*
X1510Y6126D1*
X1530Y6144D1*
X155D1*
X156Y4669D1*
X788D1*
Y4421D1*
X826Y4383D1*
X834Y4397D1*
X855Y4425D1*
X881Y4448D1*
X911Y4467D1*
X944Y4480D1*
X978Y4487D1*
X1013D1*
X1047Y4482D1*
X1080Y4471D1*
X1111Y4454D1*
X1138Y4432D1*
X1161Y4405D1*
X1179Y4375D1*
X1191Y4342D1*
X1197Y4302D1*
X1811Y3688D1*
X2310D1*
X2550D1*
X2585Y3684D1*
X2617Y3672D1*
X2655Y3645D1*
X2816Y3483D1*
X2861Y3505D1*
X2928Y3526D1*
X2997Y3539D1*
X3013Y3540D1*
X2963Y3546D1*
X2895Y3563D1*
X2830Y3589D1*
X2770Y3624D1*
X2715Y3667D1*
X2666Y3717D1*
X2625Y3774D1*
X2592Y3836D1*
X2568Y3901D1*
X2553Y3970D1*
X2548Y4039D1*
X2550Y4073D1*
X2525Y4076D1*
X2493Y4088D1*
X2455Y4115D1*
X2156Y4415D1*
X1943D1*
X1909Y4390D1*
X1877Y4376D1*
X1843Y4367D1*
X1808Y4365D1*
X1773Y4369D1*
X1740Y4378D1*
X1709Y4394D1*
X1687Y4410D1*
X1650Y4372D1*
X1621Y4352D1*
X1590Y4338D1*
X1556Y4330D1*
X1521Y4327D1*
X1486Y4331D1*
X1452Y4341D1*
X1421Y4357D1*
X1393Y4378D1*
X1369Y4403D1*
X1350Y4432D1*
X1337Y4465D1*
X1329Y4499D1*
X1327Y4534D1*
X1332Y4568D1*
X1343Y4602D1*
X1359Y4632D1*
X1380Y4660D1*
X1406Y4683D1*
X1436Y4702D1*
X1469Y4715D1*
X1503Y4722D1*
X1538D1*
X1572Y4717D1*
X1605Y4706D1*
X1636Y4689D1*
X1650Y4677D1*
X1668Y4697D1*
X1694Y4721D1*
X1724Y4739D1*
X1756Y4752D1*
X1790Y4759D1*
X1825Y4760D1*
X1860Y4755D1*
X1893Y4743D1*
X1924Y4726D1*
X1943Y4710D1*
X2218D1*
X2252Y4706D1*
X2285Y4694D1*
X2322Y4667D1*
X2502Y4487D1*
X2507Y4543D1*
X2518Y4577D1*
X2534Y4607D1*
X2555Y4635D1*
X2581Y4658D1*
X2611Y4677D1*
X2644Y4690D1*
X2678Y4697D1*
X2713D1*
X2747Y4692D1*
X2780Y4681D1*
X2811Y4664D1*
X2838Y4642D1*
X2861Y4615D1*
X2879Y4585D1*
X2891Y4552D1*
X2897Y4517D1*
X2962Y4534D1*
X3032Y4541D1*
X3094Y4539D1*
X3097Y4563D1*
X3108Y4597D1*
X3124Y4627D1*
X3145Y4655D1*
X3171Y4678D1*
X3201Y4697D1*
X3234Y4710D1*
X3268Y4717D1*
X3303D1*
X3337Y4712D1*
X3370Y4701D1*
X3401Y4684D1*
X3428Y4662D1*
X3451Y4635D1*
X3469Y4605D1*
X3481Y4572D1*
X3488Y4520D1*
X3485Y4485D1*
X3476Y4451D1*
X3461Y4420D1*
X3440Y4391D1*
X3424Y4375D1*
X3475Y4307D1*
X3508Y4245D1*
X3532Y4179D1*
X3546Y4111D1*
X3550Y4077D1*
X3559Y4144D1*
X3579Y4211D1*
X3607Y4275D1*
X3644Y4334D1*
X3689Y4388D1*
X3741Y4435D1*
X3799Y4474D1*
X3861Y4505D1*
X3928Y4526D1*
X3997Y4539D1*
X4067Y4541D1*
X4136Y4534D1*
X4204Y4517D1*
X4269Y4491D1*
X4330Y4456D1*
X4385Y4413D1*
X4434Y4363D1*
X4475Y4307D1*
X4508Y4245D1*
X4532Y4179D1*
X4546Y4111D1*
X4551Y4037D1*
X4575Y4012D1*
X4610Y4001D1*
X4641Y3984D1*
X4668Y3962D1*
X4691Y3935D1*
X4709Y3905D1*
X4721Y3872D1*
X4728Y3820D1*
X4725Y3785D1*
X4716Y3751D1*
X4701Y3720D1*
X4680Y3691D1*
X4655Y3667D1*
X4626Y3647D1*
X4595Y3633D1*
X4561Y3625D1*
X4526Y3622D1*
X4491Y3626D1*
X4457Y3636D1*
X4426Y3652D1*
X4394Y3677D1*
X4359Y3645D1*
X4301Y3606D1*
X4238Y3575D1*
X4172Y3553D1*
X4104Y3541D1*
X4552Y3542D1*
Y2538D1*
X4207D1*
X4208Y2160D1*
X4204Y2125D1*
X4192Y2093D1*
X4165Y2055D1*
X3275Y1165D1*
X3247Y1144D1*
X3215Y1129D1*
X3170Y1122D1*
X787D1*
X788Y819D1*
Y792D1*
X154D1*
X155Y579D1*
Y155D1*
X1193D1*
X1157Y191D1*
X1138Y220D1*
X1124Y252D1*
X1116Y286D1*
X1115Y321D1*
X1119Y356D1*
X1130Y389D1*
X1146Y420D1*
X1168Y448D1*
X1194Y471D1*
X1224Y489D1*
X1251Y500D1*
X1209Y519D1*
X1181Y540D1*
X1157Y566D1*
X1138Y595D1*
X1124Y627D1*
X1116Y661D1*
X1115Y696D1*
X1119Y731D1*
X1130Y764D1*
X1146Y795D1*
X1168Y823D1*
X1194Y846D1*
X1224Y864D1*
X1256Y877D1*
X1290Y884D1*
X1325Y885D1*
X1360Y880D1*
X1393Y868D1*
X1424Y851D1*
X1451Y829D1*
X1473Y803D1*
X1491Y772D1*
X1500Y749D1*
X1521Y795D1*
X1543Y823D1*
X1569Y846D1*
X1599Y864D1*
X1631Y877D1*
X1665Y884D1*
X1700Y885D1*
X1735Y880D1*
X1768Y868D1*
X1799Y851D1*
X1826Y829D1*
X1848Y803D1*
X1866Y772D1*
X1878Y740D1*
X1885Y688D1*
X1882Y653D1*
X1873Y619D1*
X1858Y587D1*
X1838Y559D1*
X1813Y534D1*
X1784Y515D1*
X1751Y500D1*
X1799Y476D1*
X1826Y454D1*
X1848Y428D1*
X1866Y397D1*
X1878Y365D1*
X1885Y313D1*
X1882Y278D1*
X1873Y244D1*
X1858Y212D1*
X1838Y184D1*
X1806Y155D1*
X2193D1*
X2157Y191D1*
X2138Y220D1*
X2124Y252D1*
X2116Y286D1*
X2115Y321D1*
X2119Y356D1*
X2130Y389D1*
X2146Y420D1*
X2168Y448D1*
X2194Y471D1*
X2224Y489D1*
X2251Y500D1*
X2209Y519D1*
X2181Y540D1*
X2157Y566D1*
X2138Y595D1*
X2124Y627D1*
X2116Y661D1*
X2115Y696D1*
X2119Y731D1*
X2130Y764D1*
X2146Y795D1*
X2168Y822D1*
X2194Y846D1*
X2224Y864D1*
X2256Y877D1*
X2290Y884D1*
X2325Y885D1*
X2360Y880D1*
X2393Y868D1*
X2424Y851D1*
X2451Y829D1*
X2473Y803D1*
X2491Y772D1*
X2500Y749D1*
X2521Y795D1*
X2543Y822D1*
X2569Y846D1*
X2599Y864D1*
X2631Y877D1*
X2665Y884D1*
X2700Y885D1*
X2735Y880D1*
X2768Y868D1*
X2799Y851D1*
X2826Y829D1*
X2848Y803D1*
X2866Y772D1*
X2878Y740D1*
X2885Y687D1*
X2882Y653D1*
X2873Y619D1*
X2858Y587D1*
X2838Y559D1*
X2813Y534D1*
X2784Y515D1*
X2751Y500D1*
X2799Y476D1*
X2826Y454D1*
X2848Y428D1*
X2866Y397D1*
X2878Y365D1*
X2885Y313D1*
X2882Y278D1*
X2873Y244D1*
X2858Y212D1*
X2838Y184D1*
X2806Y155D1*
X3192D1*
X3157Y191D1*
X3138Y220D1*
X3124Y252D1*
X3116Y286D1*
X3115Y321D1*
X3119Y356D1*
X3130Y389D1*
X3146Y420D1*
X3168Y448D1*
X3194Y471D1*
X3224Y489D1*
X3251Y500D1*
X3209Y519D1*
X3181Y540D1*
X3157Y566D1*
X3138Y595D1*
X3124Y627D1*
X3116Y661D1*
X3115Y696D1*
X3119Y731D1*
X3130Y764D1*
X3146Y795D1*
X3168Y822D1*
X3194Y846D1*
X3224Y864D1*
X3256Y877D1*
X3290Y884D1*
X3325Y885D1*
X3360Y880D1*
X3393Y868D1*
X3424Y851D1*
X3451Y829D1*
X3473Y803D1*
X3491Y772D1*
X3500Y749D1*
X3521Y795D1*
X3543Y822D1*
X3569Y846D1*
X3599Y864D1*
X3631Y877D1*
X3665Y884D1*
X3700Y885D1*
X3735Y880D1*
X3768Y868D1*
X3799Y851D1*
X3826Y829D1*
X3848Y803D1*
X3866Y772D1*
X3878Y740D1*
X3885Y687D1*
X3882Y653D1*
X3873Y619D1*
X3858Y587D1*
X3838Y559D1*
X3813Y534D1*
X3784Y515D1*
X3751Y500D1*
X3799Y476D1*
X3826Y454D1*
X3848Y428D1*
X3866Y397D1*
X3878Y365D1*
X3885Y313D1*
X3882Y278D1*
X3873Y244D1*
X3858Y212D1*
X3838Y184D1*
X3806Y155D1*
X5887D1*
Y286D1*
X5846Y282D1*
X5811Y286D1*
X5777Y296D1*
X5746Y312D1*
X5718Y333D1*
X5694Y358D1*
X5675Y387D1*
X5662Y420D1*
X5654Y454D1*
X5652Y489D1*
X5657Y523D1*
X5668Y557D1*
X5684Y587D1*
X5705Y615D1*
X5731Y638D1*
X5761Y657D1*
X5794Y670D1*
X5828Y677D1*
X5863D1*
X5888Y674D1*
X5887Y732D1*
X6538D1*
Y793D1*
X6203Y792D1*
X5887D1*
Y902D1*
X5876Y851D1*
X5861Y820D1*
X5840Y791D1*
X5815Y767D1*
X5786Y747D1*
X5755Y733D1*
X5721Y725D1*
X5686Y722D1*
X5651Y726D1*
X5617Y736D1*
X5586Y752D1*
X5558Y773D1*
X5534Y798D1*
X5515Y827D1*
X5502Y860D1*
X5494Y894D1*
X5492Y929D1*
X5497Y963D1*
X5508Y997D1*
X5524Y1027D1*
X5545Y1055D1*
X5571Y1078D1*
X5601Y1097D1*
X5634Y1110D1*
X5668Y1117D1*
X5689Y1118D1*
X5428Y1378D1*
X5407Y1406D1*
X5391Y1437D1*
X5382Y1484D1*
Y1675D1*
X5301Y1756D1*
X5290Y1741D1*
X5265Y1717D1*
X5236Y1697D1*
X5205Y1683D1*
X5171Y1675D1*
X5136Y1672D1*
X5101Y1676D1*
X5067Y1686D1*
X5036Y1702D1*
X5008Y1723D1*
X4984Y1748D1*
X4965Y1777D1*
X4952Y1810D1*
X4944Y1844D1*
X4942Y1879D1*
X4947Y1913D1*
X4958Y1947D1*
X4974Y1977D1*
X4995Y2005D1*
X5021Y2028D1*
X5051Y2047D1*
X5073Y2055D1*
X5072Y3560D1*
X5076Y3595D1*
X5087Y3628D1*
X5114Y3667D1*
X5746Y4299D1*
X5773Y4321D1*
X5805Y4336D1*
X5852Y4345D1*
X5887D1*
Y4669D1*
X6538Y4670D1*
Y5515D1*
X6539Y3941D2*
X5887D1*
Y3993D1*
X5388Y3495D1*
Y3382D1*
X5538Y3532D1*
X5566Y3553D1*
X5597Y3569D1*
X5644Y3578D1*
X5887D1*
Y3882D1*
X6538D1*
Y3943D1*
X788Y2242D2*
Y2115D1*
X819Y2127D1*
X853Y2134D1*
X888Y2135D1*
X922Y2130D1*
X955Y2118D1*
X986Y2101D1*
X1013Y2079D1*
X1035Y2053D1*
X1071Y2088D1*
X1101Y2107D1*
X1134Y2120D1*
X1168Y2127D1*
X1203D1*
X1237Y2122D1*
X1270Y2111D1*
X1301Y2094D1*
X1328Y2072D1*
X1351Y2045D1*
X1369Y2015D1*
X1381Y1982D1*
X1388Y1930D1*
X1385Y1895D1*
X1376Y1861D1*
X1361Y1830D1*
X1340Y1801D1*
X1315Y1777D1*
X1286Y1757D1*
X1255Y1743D1*
X1221Y1735D1*
X1202Y1733D1*
X887Y1418D1*
X3109D1*
X3670Y1979D1*
X3647Y1986D1*
X3616Y2002D1*
X3588Y2023D1*
X3564Y2048D1*
X3545Y2077D1*
X3532Y2110D1*
X3524Y2144D1*
X3523Y2158D1*
X3409Y2272D1*
X3364D1*
X3378Y2235D1*
X3385Y2182D1*
X3382Y2148D1*
X3373Y2114D1*
X3358Y2082D1*
X3338Y2054D1*
X3313Y2029D1*
X3284Y2010D1*
X3252Y1996D1*
X3218Y1987D1*
X3183Y1985D1*
X3167Y1987D1*
X3198Y1962D1*
X3221Y1935D1*
X3239Y1905D1*
X3251Y1872D1*
X3258Y1820D1*
X3255Y1785D1*
X3246Y1751D1*
X3231Y1720D1*
X3210Y1691D1*
X3185Y1667D1*
X3156Y1647D1*
X3125Y1633D1*
X3091Y1625D1*
X3056Y1622D1*
X3021Y1626D1*
X2987Y1636D1*
X2956Y1652D1*
X2941Y1663D1*
X2909Y1640D1*
X2877Y1626D1*
X2843Y1617D1*
X2808Y1615D1*
X2773Y1619D1*
X2754Y1624D1*
X2730Y1591D1*
X2705Y1567D1*
X2676Y1547D1*
X2645Y1533D1*
X2611Y1525D1*
X2576Y1522D1*
X2541Y1526D1*
X2507Y1536D1*
X2476Y1552D1*
X2448Y1573D1*
X2424Y1598D1*
X2405Y1627D1*
X2392Y1660D1*
X2384Y1694D1*
X2382Y1729D1*
X2387Y1763D1*
X2398Y1797D1*
X2410Y1821D1*
X2391Y1813D1*
X2357Y1805D1*
X2322Y1802D1*
X2288Y1806D1*
X2254Y1816D1*
X2223Y1832D1*
X2195Y1853D1*
X2171Y1878D1*
X2152Y1907D1*
X2138Y1940D1*
X2131Y1974D1*
X2129Y2009D1*
X2134Y2043D1*
X2144Y2077D1*
X2161Y2107D1*
X2182Y2135D1*
X2218Y2165D1*
X1563D1*
X1528Y2169D1*
X1495Y2181D1*
X1458Y2208D1*
X1145Y2520D1*
X1124Y2548D1*
X1109Y2580D1*
X1102Y2625D1*
Y3425D1*
X1075Y3397D1*
X1046Y3377D1*
X1015Y3363D1*
X981Y3355D1*
X946Y3352D1*
X911Y3356D1*
X877Y3366D1*
X846Y3382D1*
X819Y3402D1*
X787D1*
X788Y3154D1*
X154D1*
X155Y3094D1*
X788D1*
Y2920D1*
X818Y2927D1*
X853D1*
X887Y2922D1*
X920Y2911D1*
X951Y2894D1*
X978Y2872D1*
X1001Y2845D1*
X1019Y2815D1*
X1031Y2782D1*
X1038Y2730D1*
X1035Y2695D1*
X1026Y2661D1*
X1011Y2630D1*
X990Y2601D1*
X974Y2585D1*
X1011Y2545D1*
X1029Y2515D1*
X1041Y2482D1*
X1048Y2430D1*
X1045Y2395D1*
X1036Y2361D1*
X1021Y2330D1*
X1000Y2301D1*
X975Y2277D1*
X946Y2257D1*
X915Y2243D1*
X881Y2235D1*
X846Y2232D1*
X811Y2236D1*
X787Y2243D1*
X3583Y3542D2*
X3996D1*
X3929Y3553D1*
X3862Y3575D1*
X3800Y3606D1*
X3742Y3645D1*
X3690Y3691D1*
X3645Y3745D1*
X3607Y3804D1*
X3579Y3868D1*
X3560Y3935D1*
X3550Y4003D1*
X3541Y3936D1*
X3521Y3869D1*
X3493Y3805D1*
X3456Y3745D1*
X3411Y3692D1*
X3359Y3645D1*
X3301Y3606D1*
X3238Y3575D1*
X3172Y3553D1*
X3103Y3541D1*
X3086Y3540D1*
X3136Y3534D1*
X3204Y3517D1*
X3269Y3491D1*
X3330Y3456D1*
X3385Y3413D1*
X3434Y3363D1*
X3475Y3307D1*
X3508Y3245D1*
X3532Y3179D1*
X3546Y3111D1*
X3548Y3098D1*
Y3542D1*
X3583D1*
X2550Y3078D2*
X2559Y3144D1*
X2579Y3211D1*
X2606Y3274D1*
X2488Y3393D1*
X2407Y3392D1*
X2434Y3363D1*
X2475Y3307D1*
X2508Y3245D1*
X2532Y3179D1*
X2546Y3111D1*
X2550Y3077D1*
X2380Y2662D2*
X2331Y2624D1*
X2270Y2589D1*
X2205Y2563D1*
X2137Y2546D1*
X2068Y2539D1*
X1998Y2541D1*
X1929Y2553D1*
X1862Y2575D1*
X1800Y2606D1*
X1742Y2645D1*
X1690Y2691D1*
X1645Y2745D1*
X1607Y2804D1*
X1579Y2868D1*
X1560Y2935D1*
X1550Y3005D1*
Y3074D1*
X1559Y3144D1*
X1579Y3211D1*
X1607Y3275D1*
X1644Y3334D1*
X1689Y3388D1*
X1702Y3401D1*
X1683Y3408D1*
X1645Y3435D1*
X1397Y3684D1*
X1398Y3225D1*
Y2686D1*
X1624Y2460D1*
X1913D1*
X2581D1*
X2380Y2661D1*
X4945Y3095D2*
X4936Y3061D1*
X4921Y3030D1*
X4900Y3001D1*
X4875Y2977D1*
X4846Y2957D1*
X4815Y2943D1*
X4781Y2935D1*
X4746Y2932D1*
X4711Y2936D1*
X4677Y2946D1*
X4646Y2962D1*
X4618Y2983D1*
X4594Y3008D1*
X4575Y3037D1*
X4562Y3070D1*
X4554Y3104D1*
X4552Y3139D1*
X4557Y3173D1*
X4568Y3207D1*
X4584Y3237D1*
X4605Y3265D1*
X4631Y3288D1*
X4661Y3307D1*
X4694Y3320D1*
X4728Y3327D1*
X4763D1*
X4797Y3322D1*
X4830Y3311D1*
X4861Y3294D1*
X4888Y3272D1*
X4911Y3245D1*
X4929Y3215D1*
X4941Y3182D1*
X4948Y3130D1*
X4945Y3095D1*
X3165Y5095D2*
X3156Y5061D1*
X3141Y5030D1*
X3120Y5001D1*
X3095Y4977D1*
X3066Y4957D1*
X3035Y4943D1*
X3001Y4935D1*
X2966Y4932D1*
X2931Y4936D1*
X2897Y4946D1*
X2866Y4962D1*
X2838Y4983D1*
X2814Y5008D1*
X2795Y5037D1*
X2782Y5070D1*
X2774Y5104D1*
X2772Y5139D1*
X2777Y5173D1*
X2788Y5207D1*
X2804Y5237D1*
X2825Y5265D1*
X2851Y5288D1*
X2881Y5307D1*
X2914Y5320D1*
X2948Y5327D1*
X2983D1*
X3017Y5322D1*
X3050Y5311D1*
X3081Y5294D1*
X3108Y5272D1*
X3131Y5245D1*
X3149Y5215D1*
X3161Y5182D1*
X3168Y5130D1*
X3165Y5095D1*
X3993Y5085D2*
X3970Y5051D1*
X3945Y5027D1*
X3916Y5007D1*
X3885Y4993D1*
X3851Y4985D1*
X3816Y4982D1*
X3781Y4986D1*
X3747Y4996D1*
X3716Y5012D1*
X3688Y5033D1*
X3664Y5058D1*
X3645Y5087D1*
X3632Y5120D1*
X3624Y5154D1*
X3622Y5189D1*
X3627Y5223D1*
X3638Y5257D1*
X3654Y5287D1*
X3675Y5315D1*
X3701Y5338D1*
X3731Y5357D1*
X3764Y5370D1*
X3798Y5377D1*
X3833D1*
X3867Y5372D1*
X3900Y5361D1*
X3931Y5344D1*
X3958Y5322D1*
X3981Y5295D1*
X3999Y5265D1*
X4007Y5243D1*
X4014Y5257D1*
X4035Y5285D1*
X4061Y5308D1*
X4091Y5327D1*
X4124Y5340D1*
X4158Y5347D1*
X4193D1*
X4227Y5342D1*
X4260Y5331D1*
X4291Y5314D1*
X4318Y5292D1*
X4341Y5265D1*
X4359Y5235D1*
X4371Y5202D1*
X4378Y5150D1*
X4375Y5115D1*
X4366Y5081D1*
X4351Y5050D1*
X4330Y5021D1*
X4305Y4997D1*
X4276Y4977D1*
X4245Y4963D1*
X4211Y4955D1*
X4176Y4952D1*
X4141Y4956D1*
X4107Y4966D1*
X4076Y4982D1*
X4048Y5003D1*
X4024Y5028D1*
X4005Y5057D1*
X3994Y5085D1*
X826Y4383D2*
X834Y4397D1*
X855Y4425D1*
X881Y4448D1*
X911Y4467D1*
X944Y4480D1*
X978Y4487D1*
X1013D1*
X1047Y4482D1*
X1080Y4471D1*
X1111Y4454D1*
X1138Y4432D1*
X1161Y4405D1*
X1179Y4375D1*
X1191Y4342D1*
X1197Y4302D1*
X4574Y4013D2*
X4610Y4001D1*
X4641Y3984D1*
X4668Y3962D1*
X4691Y3935D1*
X4709Y3905D1*
X4721Y3872D1*
X4728Y3820D1*
X4725Y3785D1*
X4716Y3751D1*
X4701Y3720D1*
X4680Y3691D1*
X4655Y3667D1*
X4626Y3647D1*
X4595Y3633D1*
X4561Y3625D1*
X4526Y3622D1*
X4491Y3626D1*
X4457Y3636D1*
X4426Y3652D1*
X4394Y3677D1*
X1132Y4965D2*
X1123Y4931D1*
X1108Y4900D1*
X1088Y4871D1*
X1063Y4847D1*
X1034Y4827D1*
X1002Y4813D1*
X968Y4805D1*
X933Y4802D1*
X898Y4806D1*
X865Y4816D1*
X834Y4832D1*
X806Y4853D1*
X782Y4878D1*
X763Y4907D1*
X749Y4940D1*
X741Y4974D1*
X740Y5009D1*
X744Y5043D1*
X755Y5077D1*
X771Y5107D1*
X793Y5135D1*
X819Y5158D1*
X849Y5177D1*
X881Y5190D1*
X915Y5197D1*
X950D1*
X985Y5192D1*
X1018Y5181D1*
X1049Y5164D1*
X1076Y5142D1*
X1098Y5115D1*
X1116Y5085D1*
X1128Y5052D1*
X1135Y5000D1*
X1132Y4965D1*
D27*
X4050Y3040D3*
D28*
X3050D3*
X4050Y4040D3*
X3050D3*
X2050Y3040D3*
Y4040D3*
D34*
X6290Y5880D3*
Y5093D3*
Y4305D3*
Y3518D3*
Y2730D3*
Y1943D3*
Y1156D3*
Y368D3*
X384D3*
Y1156D3*
Y1943D3*
Y2730D3*
Y3518D3*
Y4305D3*
Y5093D3*
Y5880D3*
M02*
