G04 DipTrace Beta 2.3.5.2*
%INsubMicroLRSv2_0603.G3L*%
%MOIN*%
%ADD13C,0.008*%
%ADD19C,0.007*%
%ADD36C,0.018*%
%ADD37C,0.027*%
%ADD38C,0.03*%
%FSLAX44Y44*%
G04*
G70*
G90*
G75*
G01*
%LNInner2*%
%LPD*%
X3500Y2750D2*
D13*
X4370D1*
X4750Y3130D1*
X3500Y2750D2*
X3187D1*
X2875Y2438D1*
X1562D1*
X1375Y2625D1*
Y3250D1*
X1062Y3563D1*
X950D1*
Y3550D1*
X1812Y4562D2*
Y4500D1*
X1461Y4148D1*
X1148D1*
X750Y3750D1*
Y3375D1*
X820Y3305D1*
X945D1*
X1188Y3062D1*
Y2250D1*
X875Y1937D1*
X3820Y5180D2*
X3380D1*
X2700Y4500D1*
X4180Y5150D2*
X4087D1*
X3937Y5000D1*
X3770D1*
X3290Y4520D1*
X2327Y2000D2*
X3550D1*
X3720Y2170D1*
X1000Y4290D2*
X562Y3852D1*
Y3028D1*
X860Y2730D1*
X840D1*
D36*
X3500Y2750D3*
X4750Y3130D3*
X950Y3550D3*
X3500Y2750D3*
X1525Y4525D3*
X1190Y1930D3*
X2970Y5130D3*
X3820Y5180D3*
X2700Y4500D3*
X4180Y5150D3*
X3290Y4520D3*
X2327Y2000D3*
X2580Y1720D3*
X5690Y920D3*
X1000Y4290D3*
D3*
X2812Y1812D3*
D37*
X1688Y5960D3*
X5730Y3082D3*
D36*
X4530Y3820D3*
D3*
X937Y5000D3*
X400Y5630D3*
X5140Y1870D3*
X4080Y5950D3*
X840Y2730D3*
X3060Y1820D3*
X1500Y500D3*
X6020Y5320D3*
X5810Y3630D3*
X500Y500D3*
X700Y4900D3*
X2220Y5530D3*
X850Y2430D3*
X875Y1937D3*
D38*
X6150Y5900D3*
D36*
X1812Y4562D3*
X313Y687D3*
X5150Y1050D3*
X1910Y5530D3*
X3720Y2170D3*
X3188Y2182D3*
X5860Y1520D3*
X5870Y2380D3*
X5850Y480D3*
X1313Y688D3*
X1688D3*
X1313Y313D3*
X1688D3*
X2550Y3250D3*
X2020Y3800D3*
X5460Y5990D3*
X5480Y5620D3*
X5460Y5030D3*
X688Y687D3*
X313Y313D3*
X688D3*
X2500Y500D3*
X2313Y687D3*
X2688D3*
X2313Y313D3*
X2688D3*
X3500Y500D3*
X3313Y687D3*
X3688D3*
X3313Y313D3*
X3688D3*
X5180Y4680D3*
X5460D3*
X4450Y5090D3*
X5190Y5030D3*
X1850Y4820D3*
X5250Y4312D3*
X6438Y5125D3*
X1625Y2688D3*
X880Y3000D3*
X162Y6076D2*
D19*
X1468D1*
X1908D2*
X5954D1*
X6346D2*
X6531D1*
X162Y6007D2*
X1442D1*
X1932D2*
X5908D1*
X6391D2*
X6531D1*
X162Y5938D2*
X1439D1*
X1937D2*
X5889D1*
X6412D2*
X6531D1*
X162Y5869D2*
X1456D1*
X1919D2*
X5887D1*
X6413D2*
X6531D1*
X162Y5801D2*
X1497D1*
X1878D2*
X5905D1*
X6395D2*
X6531D1*
X162Y5732D2*
X1597D1*
X1778D2*
X5948D1*
X6352D2*
X6531D1*
X162Y5663D2*
X6041D1*
X6259D2*
X6531D1*
X162Y5595D2*
X6531D1*
X162Y5526D2*
X6531D1*
X162Y5457D2*
X6531D1*
X162Y5389D2*
X6531D1*
X162Y5320D2*
X2908D1*
X3031D2*
X3326D1*
X3967D2*
X4072D1*
X4288D2*
X6531D1*
X162Y5251D2*
X2806D1*
X3133D2*
X3235D1*
X4357D2*
X6531D1*
X162Y5183D2*
X855D1*
X1020D2*
X2772D1*
X4382D2*
X6531D1*
X162Y5114D2*
X769D1*
X1106D2*
X2766D1*
X4381D2*
X6531D1*
X162Y5045D2*
X738D1*
X1137D2*
X2784D1*
X4355D2*
X6531D1*
X162Y4977D2*
X734D1*
X1140D2*
X2838D1*
X3392D2*
X3530D1*
X4282D2*
X6531D1*
X162Y4908D2*
X756D1*
X1120D2*
X2892D1*
X3323D2*
X3462D1*
X4061D2*
X6531D1*
X162Y4839D2*
X816D1*
X1059D2*
X2823D1*
X3255D2*
X3394D1*
X3826D2*
X6531D1*
X162Y4770D2*
X2755D1*
X3187D2*
X3325D1*
X3757D2*
X6531D1*
X162Y4702D2*
X1429D1*
X1621D2*
X1666D1*
X1960D2*
X2686D1*
X3118D2*
X3206D1*
X3688D2*
X6531D1*
X162Y4633D2*
X1353D1*
X2004D2*
X2547D1*
X3049D2*
X3121D1*
X3619D2*
X6531D1*
X162Y4564D2*
X1324D1*
X2018D2*
X2506D1*
X2980D2*
X3091D1*
X3550D2*
X6531D1*
X162Y4496D2*
X1322D1*
X2006D2*
X2496D1*
X2911D2*
X3086D1*
X3493D2*
X6531D1*
X162Y4427D2*
X851D1*
X1149D2*
X1346D1*
X1964D2*
X2509D1*
X2890D2*
X3108D1*
X3471D2*
X6531D1*
X162Y4358D2*
X807D1*
X1193D2*
X1412D1*
X1886D2*
X2555D1*
X2844D2*
X3169D1*
X3411D2*
X6531D1*
X162Y4290D2*
X784D1*
X1818D2*
X6531D1*
X162Y4221D2*
X715D1*
X1750D2*
X6531D1*
X162Y4152D2*
X646D1*
X1681D2*
X6531D1*
X162Y4084D2*
X577D1*
X1612D2*
X6531D1*
X162Y4015D2*
X509D1*
X1531D2*
X4490D1*
X4571D2*
X6531D1*
X162Y3946D2*
X442D1*
X1162D2*
X4370D1*
X4690D2*
X6531D1*
X162Y3878D2*
X410D1*
X1093D2*
X4334D1*
X4726D2*
X6531D1*
X162Y3809D2*
X408D1*
X1024D2*
X4326D1*
X4734D2*
X6531D1*
X162Y3740D2*
X408D1*
X1011D2*
X4342D1*
X4718D2*
X6531D1*
X162Y3671D2*
X408D1*
X1169D2*
X4392D1*
X4668D2*
X6531D1*
X162Y3603D2*
X408D1*
X1238D2*
X6531D1*
X162Y3534D2*
X408D1*
X1307D2*
X6531D1*
X162Y3465D2*
X408D1*
X1376D2*
X6531D1*
X162Y3397D2*
X408D1*
X1444D2*
X6531D1*
X162Y3328D2*
X408D1*
X1508D2*
X6531D1*
X162Y3259D2*
X408D1*
X1530D2*
X4594D1*
X4906D2*
X5557D1*
X5904D2*
X6531D1*
X162Y3191D2*
X408D1*
X1530D2*
X4555D1*
X4946D2*
X5506D1*
X5954D2*
X6531D1*
X162Y3122D2*
X408D1*
X717D2*
X912D1*
X1530D2*
X4526D1*
X4954D2*
X5484D1*
X5977D2*
X6531D1*
X162Y3053D2*
X408D1*
X752D2*
X981D1*
X1530D2*
X4458D1*
X4939D2*
X5482D1*
X5978D2*
X6531D1*
X162Y2985D2*
X414D1*
X821D2*
X1032D1*
X1530D2*
X4389D1*
X4891D2*
X5501D1*
X5959D2*
X6531D1*
X162Y2916D2*
X458D1*
X914D2*
X1032D1*
X1530D2*
X3386D1*
X3614D2*
X4320D1*
X4752D2*
X5546D1*
X5913D2*
X6531D1*
X162Y2847D2*
X527D1*
X1530D2*
X3069D1*
X4683D2*
X5663D1*
X5796D2*
X6531D1*
X162Y2779D2*
X596D1*
X1530D2*
X3000D1*
X4614D2*
X6531D1*
X162Y2710D2*
X636D1*
X1530D2*
X2931D1*
X4545D2*
X6531D1*
X162Y2641D2*
X656D1*
X1575D2*
X2863D1*
X4476D2*
X6531D1*
X162Y2572D2*
X706D1*
X994D2*
X1032D1*
X3226D2*
X3406D1*
X3594D2*
X5817D1*
X5922D2*
X6531D1*
X162Y2504D2*
X659D1*
X3157D2*
X5709D1*
X6032D2*
X6531D1*
X162Y2435D2*
X645D1*
X3088D2*
X5673D1*
X6067D2*
X6531D1*
X162Y2366D2*
X656D1*
X1343D2*
X1417D1*
X3019D2*
X3108D1*
X3267D2*
X3690D1*
X3750D2*
X5665D1*
X6074D2*
X6531D1*
X162Y2298D2*
X697D1*
X1343D2*
X1508D1*
X2930D2*
X3020D1*
X3355D2*
X3562D1*
X3878D2*
X5683D1*
X6057D2*
X6531D1*
X162Y2229D2*
X950D1*
X1341D2*
X2988D1*
X3387D2*
X3524D1*
X3915D2*
X5735D1*
X6004D2*
X6531D1*
X162Y2160D2*
X882D1*
X1312D2*
X2204D1*
X2450D2*
X2984D1*
X3391D2*
X3494D1*
X3924D2*
X6531D1*
X162Y2092D2*
X745D1*
X1311D2*
X2145D1*
X3909D2*
X6531D1*
X162Y2023D2*
X690D1*
X1371D2*
X2124D1*
X3859D2*
X5008D1*
X5273D2*
X6531D1*
X162Y1954D2*
X671D1*
X1393D2*
X2127D1*
X3721D2*
X4954D1*
X5326D2*
X6531D1*
X162Y1886D2*
X677D1*
X1390D2*
X2159D1*
X3651D2*
X4936D1*
X5344D2*
X6531D1*
X162Y1817D2*
X712D1*
X1359D2*
X2245D1*
X3264D2*
X4942D1*
X5337D2*
X6531D1*
X162Y1748D2*
X811D1*
X939D2*
X1106D1*
X1275D2*
X2378D1*
X3251D2*
X4977D1*
X5303D2*
X6531D1*
X162Y1680D2*
X2380D1*
X3206D2*
X5080D1*
X5199D2*
X5737D1*
X5983D2*
X6531D1*
X162Y1611D2*
X2408D1*
X2751D2*
X5677D1*
X6043D2*
X6531D1*
X162Y1542D2*
X2487D1*
X2673D2*
X5657D1*
X6063D2*
X6531D1*
X162Y1473D2*
X5661D1*
X6059D2*
X6531D1*
X162Y1405D2*
X5693D1*
X6027D2*
X6531D1*
X162Y1336D2*
X5780D1*
X5940D2*
X6531D1*
X162Y1267D2*
X6531D1*
X162Y1199D2*
X6531D1*
X162Y1130D2*
X6531D1*
X162Y1061D2*
X5545D1*
X5835D2*
X6531D1*
X162Y993D2*
X5499D1*
X5881D2*
X6531D1*
X162Y924D2*
X5485D1*
X5895D2*
X6531D1*
X162Y855D2*
X1201D1*
X1424D2*
X1576D1*
X1799D2*
X2202D1*
X2424D2*
X2576D1*
X2800D2*
X3201D1*
X3424D2*
X3576D1*
X3799D2*
X5496D1*
X5884D2*
X6531D1*
X162Y787D2*
X1134D1*
X1866D2*
X2135D1*
X2865D2*
X3134D1*
X3866D2*
X5537D1*
X5842D2*
X6531D1*
X162Y718D2*
X1110D1*
X1890D2*
X2111D1*
X2890D2*
X3110D1*
X3890D2*
X6531D1*
X162Y649D2*
X1111D1*
X1888D2*
X2112D1*
X2888D2*
X3112D1*
X3889D2*
X5741D1*
X5959D2*
X6531D1*
X162Y581D2*
X1139D1*
X1861D2*
X2139D1*
X2861D2*
X3139D1*
X3861D2*
X5673D1*
X6027D2*
X6531D1*
X162Y512D2*
X1215D1*
X1785D2*
X2215D1*
X2785D2*
X3215D1*
X3785D2*
X5648D1*
X6052D2*
X6531D1*
X162Y443D2*
X1157D1*
X1843D2*
X2157D1*
X2843D2*
X3157D1*
X3843D2*
X5649D1*
X6051D2*
X6531D1*
X162Y374D2*
X1118D1*
X1882D2*
X2117D1*
X2883D2*
X3118D1*
X3882D2*
X5676D1*
X6024D2*
X6531D1*
X162Y306D2*
X1108D1*
X1892D2*
X2107D1*
X2893D2*
X3108D1*
X3892D2*
X5750D1*
X5951D2*
X6531D1*
X162Y237D2*
X1123D1*
X1878D2*
X2123D1*
X2877D2*
X3122D1*
X3877D2*
X6531D1*
X162Y168D2*
X1170D1*
X1829D2*
X2170D1*
X2830D2*
X3171D1*
X3830D2*
X6531D1*
X5335Y1835D2*
X5326Y1801D1*
X5311Y1770D1*
X5290Y1741D1*
X5265Y1717D1*
X5236Y1697D1*
X5205Y1683D1*
X5171Y1675D1*
X5136Y1672D1*
X5101Y1676D1*
X5067Y1686D1*
X5036Y1702D1*
X5008Y1723D1*
X4984Y1748D1*
X4965Y1777D1*
X4952Y1810D1*
X4944Y1844D1*
X4942Y1879D1*
X4947Y1913D1*
X4958Y1947D1*
X4974Y1977D1*
X4995Y2005D1*
X5021Y2028D1*
X5051Y2047D1*
X5084Y2060D1*
X5118Y2067D1*
X5153D1*
X5187Y2062D1*
X5220Y2051D1*
X5251Y2034D1*
X5278Y2012D1*
X5301Y1985D1*
X5319Y1955D1*
X5331Y1922D1*
X5338Y1870D1*
X5335Y1835D1*
X1035Y2695D2*
X1026Y2661D1*
X1011Y2630D1*
X990Y2601D1*
X974Y2585D1*
X1011Y2545D1*
X1029Y2515D1*
X1040Y2485D1*
Y3001D1*
X883Y3158D1*
X820D1*
X785Y3162D1*
X752Y3174D1*
X715Y3201D1*
X710Y3206D1*
Y3088D1*
X875Y2924D1*
X920Y2911D1*
X951Y2894D1*
X978Y2872D1*
X1001Y2845D1*
X1019Y2815D1*
X1031Y2782D1*
X1038Y2730D1*
X1035Y2695D1*
X716Y2577D2*
X684Y2608D1*
X665Y2637D1*
X652Y2670D1*
X644Y2704D1*
X643Y2740D1*
X483Y2898D1*
X458Y2923D1*
X436Y2950D1*
X422Y2982D1*
X415Y3028D1*
Y3852D1*
X419Y3887D1*
X431Y3920D1*
X458Y3957D1*
X802Y4301D1*
X807Y4333D1*
X818Y4367D1*
X834Y4397D1*
X855Y4425D1*
X881Y4448D1*
X911Y4467D1*
X944Y4480D1*
X978Y4487D1*
X1013D1*
X1047Y4482D1*
X1080Y4471D1*
X1111Y4454D1*
X1138Y4432D1*
X1161Y4405D1*
X1179Y4375D1*
X1191Y4342D1*
X1198Y4296D1*
X1399D1*
X1447Y4343D1*
X1421Y4357D1*
X1393Y4378D1*
X1369Y4403D1*
X1350Y4432D1*
X1337Y4465D1*
X1329Y4499D1*
X1327Y4534D1*
X1332Y4568D1*
X1343Y4602D1*
X1359Y4632D1*
X1380Y4660D1*
X1406Y4683D1*
X1436Y4702D1*
X1469Y4715D1*
X1503Y4722D1*
X1538D1*
X1572Y4717D1*
X1605Y4706D1*
X1636Y4689D1*
X1650Y4677D1*
X1668Y4697D1*
X1694Y4721D1*
X1724Y4739D1*
X1756Y4752D1*
X1790Y4759D1*
X1825Y4760D1*
X1860Y4755D1*
X1893Y4743D1*
X1924Y4726D1*
X1951Y4704D1*
X1973Y4678D1*
X1991Y4647D1*
X2003Y4615D1*
X2010Y4562D1*
X2007Y4528D1*
X1998Y4494D1*
X1983Y4462D1*
X1963Y4434D1*
X1938Y4409D1*
X1915Y4394D1*
X1565Y4044D1*
X1538Y4022D1*
X1506Y4007D1*
X1461Y4000D1*
X1210D1*
X956Y3747D1*
X997Y3742D1*
X1030Y3731D1*
X1065Y3710D1*
X1097Y3706D1*
X1130Y3694D1*
X1167Y3667D1*
X1480Y3355D1*
X1501Y3327D1*
X1516Y3295D1*
X1523Y3250D1*
Y2687D1*
X1624Y2585D1*
X2815D1*
X2993Y2765D1*
X3083Y2855D1*
X3110Y2876D1*
X3142Y2891D1*
X3187Y2898D1*
X3368D1*
X3411Y2927D1*
X3444Y2940D1*
X3478Y2947D1*
X3513D1*
X3547Y2942D1*
X3580Y2931D1*
X3611Y2914D1*
X3630Y2898D1*
X4308D1*
X4552Y3141D1*
X4557Y3173D1*
X4568Y3207D1*
X4584Y3237D1*
X4605Y3265D1*
X4631Y3288D1*
X4661Y3307D1*
X4694Y3320D1*
X4728Y3327D1*
X4763D1*
X4797Y3322D1*
X4830Y3311D1*
X4861Y3294D1*
X4888Y3272D1*
X4911Y3245D1*
X4929Y3215D1*
X4941Y3182D1*
X4948Y3130D1*
X4945Y3095D1*
X4936Y3061D1*
X4921Y3030D1*
X4900Y3001D1*
X4875Y2977D1*
X4846Y2957D1*
X4815Y2943D1*
X4781Y2935D1*
X4762Y2933D1*
X4475Y2645D1*
X4447Y2624D1*
X4415Y2609D1*
X4370Y2602D1*
X3632D1*
X3596Y2577D1*
X3565Y2563D1*
X3531Y2555D1*
X3496Y2552D1*
X3461Y2556D1*
X3427Y2566D1*
X3396Y2582D1*
X3369Y2602D1*
X3250D1*
X2980Y2333D1*
X2952Y2311D1*
X2920Y2297D1*
X2875Y2290D1*
X1562D1*
X1528Y2294D1*
X1495Y2306D1*
X1458Y2333D1*
X1335Y2456D1*
Y2250D1*
X1331Y2215D1*
X1319Y2183D1*
X1292Y2145D1*
X1260Y2114D1*
X1301Y2094D1*
X1328Y2072D1*
X1351Y2045D1*
X1369Y2015D1*
X1381Y1982D1*
X1388Y1930D1*
X1385Y1895D1*
X1376Y1861D1*
X1361Y1830D1*
X1340Y1801D1*
X1315Y1777D1*
X1286Y1757D1*
X1255Y1743D1*
X1221Y1735D1*
X1186Y1732D1*
X1151Y1736D1*
X1117Y1746D1*
X1086Y1762D1*
X1058Y1783D1*
X1030Y1814D1*
X1000Y1784D1*
X971Y1765D1*
X940Y1751D1*
X906Y1742D1*
X871Y1740D1*
X836Y1744D1*
X802Y1753D1*
X771Y1769D1*
X743Y1790D1*
X719Y1816D1*
X700Y1845D1*
X687Y1877D1*
X679Y1911D1*
X677Y1946D1*
X682Y1981D1*
X693Y2014D1*
X709Y2045D1*
X730Y2072D1*
X756Y2096D1*
X786Y2114D1*
X819Y2127D1*
X863Y2134D1*
X1040Y2312D1*
Y2374D1*
X1021Y2330D1*
X1000Y2301D1*
X975Y2277D1*
X946Y2257D1*
X915Y2243D1*
X881Y2235D1*
X846Y2232D1*
X811Y2236D1*
X777Y2246D1*
X746Y2262D1*
X718Y2283D1*
X694Y2308D1*
X675Y2337D1*
X662Y2370D1*
X654Y2404D1*
X652Y2439D1*
X657Y2473D1*
X668Y2507D1*
X684Y2537D1*
X705Y2565D1*
X718Y2576D1*
X3255Y1785D2*
X3246Y1751D1*
X3231Y1720D1*
X3210Y1691D1*
X3185Y1667D1*
X3156Y1647D1*
X3125Y1633D1*
X3091Y1625D1*
X3056Y1622D1*
X3021Y1626D1*
X2987Y1636D1*
X2956Y1652D1*
X2941Y1663D1*
X2909Y1640D1*
X2877Y1626D1*
X2843Y1617D1*
X2808Y1615D1*
X2773Y1619D1*
X2754Y1624D1*
X2730Y1591D1*
X2705Y1567D1*
X2676Y1547D1*
X2645Y1533D1*
X2611Y1525D1*
X2576Y1522D1*
X2541Y1526D1*
X2507Y1536D1*
X2476Y1552D1*
X2448Y1573D1*
X2424Y1598D1*
X2405Y1627D1*
X2392Y1660D1*
X2384Y1694D1*
X2382Y1729D1*
X2387Y1763D1*
X2398Y1797D1*
X2410Y1821D1*
X2391Y1813D1*
X2357Y1805D1*
X2322Y1802D1*
X2288Y1806D1*
X2254Y1816D1*
X2223Y1832D1*
X2195Y1853D1*
X2171Y1878D1*
X2152Y1907D1*
X2138Y1940D1*
X2131Y1974D1*
X2129Y2009D1*
X2134Y2043D1*
X2144Y2077D1*
X2161Y2107D1*
X2182Y2135D1*
X2208Y2158D1*
X2238Y2177D1*
X2270Y2190D1*
X2305Y2197D1*
X2340D1*
X2374Y2192D1*
X2407Y2181D1*
X2438Y2164D1*
X2457Y2148D1*
X2993D1*
X2990Y2191D1*
X2994Y2226D1*
X3005Y2259D1*
X3021Y2290D1*
X3043Y2317D1*
X3069Y2341D1*
X3099Y2359D1*
X3131Y2372D1*
X3165Y2379D1*
X3200Y2380D1*
X3235Y2375D1*
X3268Y2363D1*
X3299Y2346D1*
X3326Y2324D1*
X3348Y2298D1*
X3366Y2267D1*
X3378Y2235D1*
X3385Y2182D1*
X3382Y2147D1*
X3489Y2148D1*
X3522Y2181D1*
X3527Y2213D1*
X3538Y2247D1*
X3554Y2277D1*
X3575Y2305D1*
X3601Y2328D1*
X3631Y2347D1*
X3664Y2360D1*
X3698Y2367D1*
X3733D1*
X3767Y2362D1*
X3800Y2351D1*
X3831Y2334D1*
X3858Y2312D1*
X3881Y2285D1*
X3899Y2255D1*
X3911Y2222D1*
X3918Y2170D1*
X3915Y2135D1*
X3906Y2101D1*
X3891Y2070D1*
X3870Y2041D1*
X3845Y2017D1*
X3816Y1997D1*
X3785Y1983D1*
X3751Y1975D1*
X3732Y1973D1*
X3655Y1895D1*
X3627Y1874D1*
X3595Y1859D1*
X3550Y1852D1*
X3256D1*
X3258Y1820D1*
X3255Y1785D1*
X6405Y5865D2*
X6398Y5831D1*
X6387Y5798D1*
X6371Y5767D1*
X6351Y5738D1*
X6327Y5712D1*
X6300Y5690D1*
X6270Y5672D1*
X6238Y5658D1*
X6205Y5648D1*
X6170Y5643D1*
X6135D1*
X6100Y5647D1*
X6066Y5656D1*
X6034Y5670D1*
X6004Y5687D1*
X5977Y5709D1*
X5952Y5734D1*
X5932Y5763D1*
X5915Y5793D1*
X5903Y5826D1*
X5895Y5860D1*
X5892Y5895D1*
X5894Y5930D1*
X5900Y5964D1*
X5911Y5998D1*
X5927Y6029D1*
X5946Y6058D1*
X5970Y6084D1*
X5996Y6107D1*
X6026Y6126D1*
X6069Y6144D1*
X1845D1*
X1879Y6109D1*
X1899Y6080D1*
X1914Y6048D1*
X1924Y6015D1*
X1930Y5960D1*
X1928Y5925D1*
X1920Y5891D1*
X1908Y5858D1*
X1891Y5828D1*
X1870Y5800D1*
X1845Y5775D1*
X1817Y5755D1*
X1786Y5738D1*
X1753Y5726D1*
X1719Y5719D1*
X1684Y5717D1*
X1649Y5720D1*
X1615Y5728D1*
X1582Y5741D1*
X1552Y5758D1*
X1525Y5780D1*
X1500Y5805D1*
X1480Y5834D1*
X1464Y5865D1*
X1453Y5898D1*
X1446Y5932D1*
X1445Y5967D1*
X1448Y6002D1*
X1457Y6036D1*
X1470Y6068D1*
X1488Y6098D1*
X1510Y6126D1*
X1530Y6144D1*
X155D1*
Y155D1*
X1193D1*
X1157Y191D1*
X1138Y220D1*
X1124Y252D1*
X1116Y286D1*
X1115Y321D1*
X1119Y356D1*
X1130Y389D1*
X1146Y420D1*
X1168Y448D1*
X1194Y471D1*
X1224Y489D1*
X1251Y500D1*
X1209Y519D1*
X1181Y540D1*
X1157Y566D1*
X1138Y595D1*
X1124Y627D1*
X1116Y661D1*
X1115Y696D1*
X1119Y731D1*
X1130Y764D1*
X1146Y795D1*
X1168Y823D1*
X1194Y846D1*
X1224Y864D1*
X1256Y877D1*
X1290Y884D1*
X1325Y885D1*
X1360Y880D1*
X1393Y868D1*
X1424Y851D1*
X1451Y829D1*
X1473Y803D1*
X1491Y772D1*
X1500Y749D1*
X1521Y795D1*
X1543Y823D1*
X1569Y846D1*
X1599Y864D1*
X1631Y877D1*
X1665Y884D1*
X1700Y885D1*
X1735Y880D1*
X1768Y868D1*
X1799Y851D1*
X1826Y829D1*
X1848Y803D1*
X1866Y772D1*
X1878Y740D1*
X1885Y688D1*
X1882Y653D1*
X1873Y619D1*
X1858Y587D1*
X1838Y559D1*
X1813Y534D1*
X1784Y515D1*
X1751Y500D1*
X1799Y476D1*
X1826Y454D1*
X1848Y428D1*
X1866Y397D1*
X1878Y365D1*
X1885Y313D1*
X1882Y278D1*
X1873Y244D1*
X1858Y212D1*
X1838Y184D1*
X1806Y155D1*
X2193D1*
X2157Y191D1*
X2138Y220D1*
X2124Y252D1*
X2116Y286D1*
X2115Y321D1*
X2119Y356D1*
X2130Y389D1*
X2146Y420D1*
X2168Y448D1*
X2194Y471D1*
X2224Y489D1*
X2251Y500D1*
X2209Y519D1*
X2181Y540D1*
X2157Y566D1*
X2138Y595D1*
X2124Y627D1*
X2116Y661D1*
X2115Y696D1*
X2119Y731D1*
X2130Y764D1*
X2146Y795D1*
X2168Y822D1*
X2194Y846D1*
X2224Y864D1*
X2256Y877D1*
X2290Y884D1*
X2325Y885D1*
X2360Y880D1*
X2393Y868D1*
X2424Y851D1*
X2451Y829D1*
X2473Y803D1*
X2491Y772D1*
X2500Y749D1*
X2521Y795D1*
X2543Y822D1*
X2569Y846D1*
X2599Y864D1*
X2631Y877D1*
X2665Y884D1*
X2700Y885D1*
X2735Y880D1*
X2768Y868D1*
X2799Y851D1*
X2826Y829D1*
X2848Y803D1*
X2866Y772D1*
X2878Y740D1*
X2885Y687D1*
X2882Y653D1*
X2873Y619D1*
X2858Y587D1*
X2838Y559D1*
X2813Y534D1*
X2784Y515D1*
X2751Y500D1*
X2799Y476D1*
X2826Y454D1*
X2848Y428D1*
X2866Y397D1*
X2878Y365D1*
X2885Y313D1*
X2882Y278D1*
X2873Y244D1*
X2858Y212D1*
X2838Y184D1*
X2806Y155D1*
X3192D1*
X3157Y191D1*
X3138Y220D1*
X3124Y252D1*
X3116Y286D1*
X3115Y321D1*
X3119Y356D1*
X3130Y389D1*
X3146Y420D1*
X3168Y448D1*
X3194Y471D1*
X3224Y489D1*
X3251Y500D1*
X3209Y519D1*
X3181Y540D1*
X3157Y566D1*
X3138Y595D1*
X3124Y627D1*
X3116Y661D1*
X3115Y696D1*
X3119Y731D1*
X3130Y764D1*
X3146Y795D1*
X3168Y822D1*
X3194Y846D1*
X3224Y864D1*
X3256Y877D1*
X3290Y884D1*
X3325Y885D1*
X3360Y880D1*
X3393Y868D1*
X3424Y851D1*
X3451Y829D1*
X3473Y803D1*
X3491Y772D1*
X3500Y749D1*
X3521Y795D1*
X3543Y822D1*
X3569Y846D1*
X3599Y864D1*
X3631Y877D1*
X3665Y884D1*
X3700Y885D1*
X3735Y880D1*
X3768Y868D1*
X3799Y851D1*
X3826Y829D1*
X3848Y803D1*
X3866Y772D1*
X3878Y740D1*
X3885Y687D1*
X3882Y653D1*
X3873Y619D1*
X3858Y587D1*
X3838Y559D1*
X3813Y534D1*
X3784Y515D1*
X3751Y500D1*
X3799Y476D1*
X3826Y454D1*
X3848Y428D1*
X3866Y397D1*
X3878Y365D1*
X3885Y313D1*
X3882Y278D1*
X3873Y244D1*
X3858Y212D1*
X3838Y184D1*
X3806Y155D1*
X6538D1*
Y6144D1*
X6233D1*
X6261Y6133D1*
X6292Y6115D1*
X6320Y6094D1*
X6344Y6069D1*
X6365Y6042D1*
X6383Y6011D1*
X6396Y5979D1*
X6404Y5945D1*
X6408Y5900D1*
X6405Y5865D1*
X6055Y1485D2*
X6046Y1451D1*
X6031Y1420D1*
X6010Y1391D1*
X5985Y1367D1*
X5956Y1347D1*
X5925Y1333D1*
X5891Y1325D1*
X5856Y1322D1*
X5821Y1326D1*
X5787Y1336D1*
X5756Y1352D1*
X5728Y1373D1*
X5704Y1398D1*
X5685Y1427D1*
X5672Y1460D1*
X5664Y1494D1*
X5662Y1529D1*
X5667Y1563D1*
X5678Y1597D1*
X5694Y1627D1*
X5715Y1655D1*
X5741Y1678D1*
X5771Y1697D1*
X5804Y1710D1*
X5838Y1717D1*
X5873D1*
X5907Y1712D1*
X5940Y1701D1*
X5971Y1684D1*
X5998Y1662D1*
X6021Y1635D1*
X6039Y1605D1*
X6051Y1572D1*
X6058Y1520D1*
X6055Y1485D1*
X6065Y2345D2*
X6056Y2311D1*
X6041Y2280D1*
X6020Y2251D1*
X5995Y2227D1*
X5966Y2207D1*
X5935Y2193D1*
X5901Y2185D1*
X5866Y2182D1*
X5831Y2186D1*
X5797Y2196D1*
X5766Y2212D1*
X5738Y2233D1*
X5714Y2258D1*
X5695Y2287D1*
X5682Y2320D1*
X5674Y2354D1*
X5672Y2389D1*
X5677Y2423D1*
X5688Y2457D1*
X5704Y2487D1*
X5725Y2515D1*
X5751Y2538D1*
X5781Y2557D1*
X5814Y2570D1*
X5848Y2577D1*
X5883D1*
X5917Y2572D1*
X5950Y2561D1*
X5981Y2544D1*
X6008Y2522D1*
X6031Y2495D1*
X6049Y2465D1*
X6061Y2432D1*
X6068Y2380D1*
X6065Y2345D1*
X6045Y445D2*
X6036Y411D1*
X6021Y380D1*
X6000Y351D1*
X5975Y327D1*
X5946Y307D1*
X5915Y293D1*
X5881Y285D1*
X5846Y282D1*
X5811Y286D1*
X5777Y296D1*
X5746Y312D1*
X5718Y333D1*
X5694Y358D1*
X5675Y387D1*
X5662Y420D1*
X5654Y454D1*
X5652Y489D1*
X5657Y523D1*
X5668Y557D1*
X5684Y587D1*
X5705Y615D1*
X5731Y638D1*
X5761Y657D1*
X5794Y670D1*
X5828Y677D1*
X5863D1*
X5897Y672D1*
X5930Y661D1*
X5961Y644D1*
X5988Y622D1*
X6011Y595D1*
X6029Y565D1*
X6041Y532D1*
X6048Y480D1*
X6045Y445D1*
X3631Y2602D2*
X3596Y2577D1*
X3565Y2563D1*
X3531Y2555D1*
X3496Y2552D1*
X3461Y2556D1*
X3427Y2566D1*
X3396Y2582D1*
X3369Y2602D1*
Y2897D2*
X3381Y2908D1*
X3411Y2927D1*
X3444Y2940D1*
X3478Y2947D1*
X3513D1*
X3547Y2942D1*
X3580Y2931D1*
X3611Y2914D1*
X3630Y2898D1*
X4375Y5115D2*
X4366Y5081D1*
X4351Y5050D1*
X4330Y5021D1*
X4305Y4997D1*
X4276Y4977D1*
X4245Y4963D1*
X4211Y4955D1*
X4176Y4952D1*
X4141Y4956D1*
X4111Y4964D1*
X4042Y4895D1*
X4015Y4874D1*
X3983Y4859D1*
X3937Y4852D1*
X3831D1*
X3487Y4508D1*
X3485Y4485D1*
X3476Y4451D1*
X3461Y4420D1*
X3440Y4391D1*
X3415Y4367D1*
X3386Y4347D1*
X3355Y4333D1*
X3321Y4325D1*
X3286Y4322D1*
X3251Y4326D1*
X3217Y4336D1*
X3186Y4352D1*
X3158Y4373D1*
X3134Y4398D1*
X3115Y4427D1*
X3102Y4460D1*
X3094Y4494D1*
X3092Y4529D1*
X3097Y4563D1*
X3108Y4597D1*
X3124Y4627D1*
X3145Y4655D1*
X3171Y4678D1*
X3201Y4697D1*
X3234Y4710D1*
X3278Y4717D1*
X3594Y5032D1*
X3440D1*
X2940Y4531D1*
X2898Y4488D1*
X2895Y4465D1*
X2886Y4431D1*
X2871Y4400D1*
X2850Y4371D1*
X2825Y4347D1*
X2796Y4327D1*
X2765Y4313D1*
X2731Y4305D1*
X2696Y4302D1*
X2661Y4306D1*
X2627Y4316D1*
X2596Y4332D1*
X2568Y4353D1*
X2544Y4378D1*
X2525Y4407D1*
X2512Y4440D1*
X2504Y4474D1*
X2502Y4509D1*
X2507Y4543D1*
X2518Y4577D1*
X2534Y4607D1*
X2555Y4635D1*
X2581Y4658D1*
X2611Y4677D1*
X2644Y4690D1*
X2688Y4697D1*
X2928Y4937D1*
X2897Y4946D1*
X2866Y4962D1*
X2838Y4983D1*
X2814Y5008D1*
X2795Y5037D1*
X2782Y5070D1*
X2774Y5104D1*
X2772Y5139D1*
X2777Y5173D1*
X2788Y5207D1*
X2804Y5237D1*
X2825Y5265D1*
X2851Y5288D1*
X2881Y5307D1*
X2914Y5320D1*
X2948Y5327D1*
X2983D1*
X3017Y5322D1*
X3050Y5311D1*
X3081Y5294D1*
X3108Y5272D1*
X3131Y5245D1*
X3149Y5215D1*
X3163Y5173D1*
X3275Y5285D1*
X3303Y5306D1*
X3335Y5321D1*
X3380Y5328D1*
X3690D1*
X3701Y5338D1*
X3731Y5357D1*
X3764Y5370D1*
X3798Y5377D1*
X3833D1*
X3867Y5372D1*
X3900Y5361D1*
X3931Y5344D1*
X3958Y5322D1*
X3981Y5295D1*
X3997Y5268D1*
X4013Y5277D1*
X4041Y5290D1*
X4061Y5308D1*
X4091Y5327D1*
X4124Y5340D1*
X4158Y5347D1*
X4193D1*
X4227Y5342D1*
X4260Y5331D1*
X4291Y5314D1*
X4318Y5292D1*
X4341Y5265D1*
X4359Y5235D1*
X4371Y5202D1*
X4378Y5150D1*
X4375Y5115D1*
X5885Y885D2*
X5876Y851D1*
X5861Y820D1*
X5840Y791D1*
X5815Y767D1*
X5786Y747D1*
X5755Y733D1*
X5721Y725D1*
X5686Y722D1*
X5651Y726D1*
X5617Y736D1*
X5586Y752D1*
X5558Y773D1*
X5534Y798D1*
X5515Y827D1*
X5502Y860D1*
X5494Y894D1*
X5492Y929D1*
X5497Y963D1*
X5508Y997D1*
X5524Y1027D1*
X5545Y1055D1*
X5571Y1078D1*
X5601Y1097D1*
X5634Y1110D1*
X5668Y1117D1*
X5703D1*
X5737Y1112D1*
X5770Y1101D1*
X5801Y1084D1*
X5828Y1062D1*
X5851Y1035D1*
X5869Y1005D1*
X5881Y972D1*
X5888Y920D1*
X5885Y885D1*
X803Y4302D2*
X807Y4333D1*
X818Y4367D1*
X834Y4397D1*
X855Y4425D1*
X881Y4448D1*
X911Y4467D1*
X944Y4480D1*
X978Y4487D1*
X1013D1*
X1047Y4482D1*
X1080Y4471D1*
X1111Y4454D1*
X1138Y4432D1*
X1161Y4405D1*
X1179Y4375D1*
X1191Y4342D1*
X1198Y4296D1*
X5970Y3048D2*
X5963Y3013D1*
X5950Y2981D1*
X5934Y2950D1*
X5912Y2922D1*
X5888Y2898D1*
X5859Y2877D1*
X5828Y2861D1*
X5796Y2849D1*
X5761Y2842D1*
X5726Y2840D1*
X5692Y2843D1*
X5658Y2851D1*
X5625Y2864D1*
X5595Y2881D1*
X5567Y2902D1*
X5543Y2928D1*
X5523Y2956D1*
X5507Y2987D1*
X5495Y3020D1*
X5489Y3055D1*
X5487Y3090D1*
X5491Y3125D1*
X5499Y3158D1*
X5513Y3191D1*
X5530Y3221D1*
X5552Y3248D1*
X5578Y3272D1*
X5607Y3292D1*
X5638Y3307D1*
X5671Y3318D1*
X5706Y3324D1*
X5741Y3325D1*
X5776Y3321D1*
X5809Y3312D1*
X5841Y3298D1*
X5871Y3280D1*
X5898Y3258D1*
X5922Y3232D1*
X5941Y3203D1*
X5956Y3171D1*
X5966Y3138D1*
X5973Y3082D1*
X5970Y3048D1*
X4725Y3785D2*
X4716Y3751D1*
X4701Y3720D1*
X4680Y3691D1*
X4655Y3667D1*
X4626Y3647D1*
X4595Y3633D1*
X4561Y3625D1*
X4526Y3622D1*
X4491Y3626D1*
X4457Y3636D1*
X4426Y3652D1*
X4398Y3673D1*
X4374Y3698D1*
X4355Y3727D1*
X4342Y3760D1*
X4334Y3794D1*
X4332Y3829D1*
X4337Y3863D1*
X4348Y3897D1*
X4364Y3927D1*
X4385Y3955D1*
X4411Y3978D1*
X4441Y3997D1*
X4474Y4010D1*
X4508Y4017D1*
X4543D1*
X4577Y4012D1*
X4610Y4001D1*
X4641Y3984D1*
X4668Y3962D1*
X4691Y3935D1*
X4709Y3905D1*
X4721Y3872D1*
X4728Y3820D1*
X4725Y3785D1*
X4716Y3751D1*
X4701Y3720D1*
X4680Y3691D1*
X4655Y3667D1*
X4626Y3647D1*
X4595Y3633D1*
X4561Y3625D1*
X4526Y3622D1*
X4491Y3626D1*
X4457Y3636D1*
X4426Y3652D1*
X4398Y3673D1*
X4374Y3698D1*
X4355Y3727D1*
X4342Y3760D1*
X4334Y3794D1*
X4332Y3829D1*
X4337Y3863D1*
X4348Y3897D1*
X4364Y3927D1*
X4385Y3955D1*
X4411Y3978D1*
X4441Y3997D1*
X4474Y4010D1*
X4508Y4017D1*
X4543D1*
X4577Y4012D1*
X4610Y4001D1*
X4641Y3984D1*
X4668Y3962D1*
X4691Y3935D1*
X4709Y3905D1*
X4721Y3872D1*
X4728Y3820D1*
X4725Y3785D1*
X1132Y4965D2*
X1123Y4931D1*
X1108Y4900D1*
X1088Y4871D1*
X1063Y4847D1*
X1034Y4827D1*
X1002Y4813D1*
X968Y4805D1*
X933Y4802D1*
X898Y4806D1*
X865Y4816D1*
X834Y4832D1*
X806Y4853D1*
X782Y4878D1*
X763Y4907D1*
X749Y4940D1*
X741Y4974D1*
X740Y5009D1*
X744Y5043D1*
X755Y5077D1*
X771Y5107D1*
X793Y5135D1*
X819Y5158D1*
X849Y5177D1*
X881Y5190D1*
X915Y5197D1*
X950D1*
X985Y5192D1*
X1018Y5181D1*
X1049Y5164D1*
X1076Y5142D1*
X1098Y5115D1*
X1116Y5085D1*
X1128Y5052D1*
X1135Y5000D1*
X1132Y4965D1*
M02*
