G04 DipTrace Beta 2.3.5.2*
%INsubMicroLRSv2_0603.GTL*%
%MOIN*%
%ADD13C,0.008*%
%ADD14C,0.01*%
%ADD15C,0.005*%
%ADD16C,0.025*%
%ADD17C,0.012*%
%ADD18C,0.015*%
%ADD19C,0.007*%
%ADD22R,0.0394X0.0433*%
%ADD23R,0.0433X0.0394*%
%ADD24R,0.0315X0.0315*%
%ADD26R,0.0472X0.0315*%
%ADD29R,0.0472X0.0217*%
%ADD30R,0.0394X0.0413*%
%ADD31R,0.0413X0.0866*%
%ADD32R,0.071X0.041*%
%ADD33R,0.049X0.024*%
%ADD35C,0.0394*%
%ADD36C,0.018*%
%ADD37C,0.027*%
%ADD38C,0.03*%
%FSLAX44Y44*%
G04*
G70*
G90*
G75*
G01*
%LNTop*%
%LPD*%
X2917Y2287D2*
D13*
Y1963D1*
X3060Y1820D1*
X3193Y2759D2*
X3491D1*
X3500Y2750D1*
X4750Y3130D2*
X4441Y2821D1*
X4490D1*
X4730Y2170D2*
D14*
X5390D1*
X5690Y2470D1*
X5870D1*
X6150D1*
X6170Y2490D1*
X5870Y2380D2*
Y2470D1*
X3193Y3350D2*
D13*
X2327D1*
X2228Y3251D1*
X3193Y2956D2*
X2524D1*
X2228Y3251D1*
X1264Y3153D2*
X2130D1*
X2228Y3251D1*
X3810Y5960D2*
D15*
X4100D1*
X4340D1*
X410Y2950D2*
D13*
X613Y3153D1*
X880D1*
X1264D1*
X410Y5939D2*
D15*
X400Y5929D1*
Y5630D1*
X1040Y5586D2*
X727D1*
X410Y5902D1*
Y5939D1*
X4080Y5950D2*
Y5960D1*
X4100D1*
X6020Y5320D2*
D16*
X6010Y5330D1*
X5600D1*
X6030D2*
X6340D1*
X6391Y3681D2*
X6339Y3630D1*
X5810D1*
X5229Y3681D2*
X5281Y3630D1*
X5810D1*
X700Y4900D2*
D15*
X579Y4779D1*
X410D1*
X2560Y5331D2*
X2361Y5530D1*
X2220D1*
X880Y3000D2*
D13*
Y3153D1*
X1539Y4216D2*
X1525Y4230D1*
Y4525D1*
X1736Y4216D2*
X1750Y4230D1*
Y4500D1*
X1812Y4562D1*
X3193Y3744D2*
X3634D1*
X4003Y4113D1*
X4483D1*
X4760Y4390D1*
Y4632D1*
X4672D1*
X3193Y3940D2*
X3420D1*
X3740Y4260D1*
Y4620D1*
X3728Y4632D1*
X2970Y5130D2*
Y5080D1*
X2990Y5060D1*
Y4850D1*
X3188Y2182D2*
X3280Y2090D1*
Y1530D1*
X2510Y760D1*
Y520D1*
X6150Y5900D2*
D15*
X6080Y5970D1*
X5970D1*
Y4690D2*
D16*
Y4370D1*
X5880Y4280D1*
X5810D1*
X3780Y5480D2*
D13*
X3820D1*
Y5180D1*
X2700Y4500D2*
Y4236D1*
X2720Y4216D1*
X4360Y5470D2*
Y5330D1*
X4180Y5150D1*
X3290Y4520D2*
X3100D1*
X2900Y4320D1*
Y4199D1*
X2917Y4216D1*
X4931Y5960D2*
Y5470D1*
X5029D1*
X3219Y5960D2*
Y5589D1*
X3111Y5480D1*
X1264Y3350D2*
X679D1*
X410Y3619D1*
X4800Y940D2*
X4680Y820D1*
Y390D1*
X2130Y4216D2*
Y4442D1*
X2168Y4480D1*
X2312D1*
Y4230D1*
X2327Y4216D1*
X2321Y4850D2*
Y4488D1*
X2312Y4480D1*
X3193Y2563D2*
X3195Y2560D1*
X3340D1*
X3520Y2380D1*
Y1900D1*
X3831Y1589D1*
X4250D1*
Y920D2*
X3910D1*
X3510Y520D1*
X4286Y390D2*
D14*
X3510D1*
Y520D1*
X3980Y2821D2*
D13*
X4000D1*
Y2231D1*
X4061Y2170D1*
X2327Y2287D2*
Y2000D1*
X3720Y2170D2*
X4061D1*
X4381Y2490D1*
X4710D1*
X5030Y2810D1*
X5040D1*
X2524Y2287D2*
Y1776D1*
X2580Y1720D1*
X5690Y920D2*
X6120Y490D1*
X6170D1*
X5850Y480D2*
D15*
X5860Y490D1*
X6170D1*
X1264Y3940D2*
D13*
X1110D1*
X1000Y4050D1*
Y4290D1*
X6170Y1490D2*
X5880D1*
X5500Y1870D1*
X5140D1*
X2812Y1812D2*
X2720Y1905D1*
Y2287D1*
X5860Y1520D2*
D15*
X5890Y1490D1*
X6170D1*
X1264Y3744D2*
D17*
X1006D1*
X640Y4110D1*
X410D1*
X2560Y6000D2*
D18*
X2104D1*
X2064Y5960D1*
X3193Y3547D2*
D17*
X3453D1*
X3525Y3475D1*
Y3225D1*
X3453Y3153D1*
X3193D1*
X3453D2*
X3643D1*
X3980Y3491D1*
D18*
X4490D1*
X2064Y5960D2*
D16*
X1730D1*
X1688D1*
X410Y4110D2*
D18*
X480D1*
X1245Y4875D1*
X1375D1*
X1600Y5100D1*
Y5830D1*
X1730Y5960D1*
X4490Y3491D2*
D17*
X4530Y3531D1*
Y3820D1*
X420Y1811D2*
D18*
X1510Y721D1*
Y520D1*
X1500Y500D2*
X1510Y520D1*
X1040Y5960D2*
D14*
X1170D1*
X1380Y5750D1*
Y5380D1*
X1200Y5200D1*
X1052D1*
X1040Y5212D1*
X410Y5270D2*
D13*
Y5250D1*
X938D1*
X976Y5212D1*
X1040D1*
X420Y2520D2*
D18*
X610D1*
X700Y2430D1*
X850D1*
X937Y5000D2*
Y5109D1*
X1040Y5212D1*
D36*
X3500Y2750D3*
X4750Y3130D3*
X950Y3550D3*
X3500Y2750D3*
X1525Y4525D3*
X1190Y1930D3*
X2970Y5130D3*
X3820Y5180D3*
X2700Y4500D3*
X4180Y5150D3*
X3290Y4520D3*
X2327Y2000D3*
X2580Y1720D3*
X5690Y920D3*
X1000Y4290D3*
D3*
X2812Y1812D3*
D37*
X1688Y5960D3*
X5730Y3082D3*
D36*
X4530Y3820D3*
D3*
X937Y5000D3*
X400Y5630D3*
X5140Y1870D3*
X4080Y5950D3*
X840Y2730D3*
X3060Y1820D3*
X1500Y500D3*
X6020Y5320D3*
X5810Y3630D3*
X500Y500D3*
X700Y4900D3*
X2220Y5530D3*
X850Y2430D3*
X875Y1937D3*
D38*
X6150Y5900D3*
D36*
X1812Y4562D3*
X313Y687D3*
X5150Y1050D3*
X1910Y5530D3*
X3720Y2170D3*
X3188Y2182D3*
X5860Y1520D3*
X5870Y2380D3*
X5850Y480D3*
X1313Y688D3*
X1688D3*
X1313Y313D3*
X1688D3*
X2550Y3250D3*
X2020Y3800D3*
X5460Y5990D3*
X5480Y5620D3*
X5460Y5030D3*
X688Y687D3*
X313Y313D3*
X688D3*
X2500Y500D3*
X2313Y687D3*
X2688D3*
X2313Y313D3*
X2688D3*
X3500Y500D3*
X3313Y687D3*
X3688D3*
X3313Y313D3*
X3688D3*
X5180Y4680D3*
X5460D3*
X4450Y5090D3*
X5190Y5030D3*
X1850Y4820D3*
X5250Y4312D3*
X6438Y5125D3*
X1625Y2688D3*
X880Y3000D3*
X162Y6076D2*
D19*
X689D1*
X3492D2*
X4658D1*
X5203D2*
X5500D1*
X6440D2*
X6531D1*
X162Y6007D2*
X689D1*
X3492D2*
X4658D1*
X5203D2*
X5500D1*
X6440D2*
X6531D1*
X162Y5938D2*
X689D1*
X3492D2*
X4658D1*
X5203D2*
X5500D1*
X6440D2*
X6531D1*
X162Y5869D2*
X689D1*
X3492D2*
X4658D1*
X5203D2*
X5500D1*
X6440D2*
X6531D1*
X162Y5801D2*
X689D1*
X3492D2*
X4658D1*
X5203D2*
X5500D1*
X6440D2*
X6531D1*
X162Y5732D2*
X1168D1*
X2117D2*
X2249D1*
X5360D2*
X5500D1*
X6440D2*
X6531D1*
X162Y5663D2*
X1215D1*
X1790D2*
X2779D1*
X5360D2*
X5500D1*
X6440D2*
X6531D1*
X162Y5595D2*
X1215D1*
X1790D2*
X2779D1*
X5360D2*
X5529D1*
X6412D2*
X6531D1*
X721Y5526D2*
X1215D1*
X1790D2*
X2779D1*
X5360D2*
X5529D1*
X6412D2*
X6531D1*
X721Y5457D2*
X1215D1*
X1790D2*
X2779D1*
X5360D2*
X5529D1*
X6412D2*
X6531D1*
X2415Y5389D2*
X2779D1*
X5360D2*
X5529D1*
X6412D2*
X6531D1*
X2415Y5320D2*
X2779D1*
X5360D2*
X5529D1*
X6412D2*
X6531D1*
X2415Y5251D2*
X2779D1*
X5360D2*
X5529D1*
X6412D2*
X6531D1*
X2415Y5183D2*
X2772D1*
X5360D2*
X5529D1*
X6412D2*
X6531D1*
X4381Y5114D2*
X5529D1*
X6412D2*
X6531D1*
X4355Y5045D2*
X4454D1*
X4891D2*
X5529D1*
X6412D2*
X6531D1*
X1742Y4977D2*
X1989D1*
X3980D2*
X4078D1*
X4282D2*
X4421D1*
X4925D2*
X5500D1*
X6440D2*
X6531D1*
X162Y4908D2*
X756D1*
X1673D2*
X1989D1*
X3980D2*
X4420D1*
X4925D2*
X5500D1*
X6440D2*
X6531D1*
X162Y4839D2*
X816D1*
X1604D2*
X1989D1*
X3980D2*
X4420D1*
X4925D2*
X5500D1*
X6440D2*
X6531D1*
X162Y4770D2*
X875D1*
X1536D2*
X1989D1*
X3980D2*
X4420D1*
X4925D2*
X5500D1*
X6440D2*
X6531D1*
X162Y4702D2*
X807D1*
X1621D2*
X1666D1*
X3980D2*
X4420D1*
X4925D2*
X5500D1*
X6440D2*
X6531D1*
X162Y4633D2*
X738D1*
X1268D2*
X1353D1*
X3980D2*
X4420D1*
X4925D2*
X5500D1*
X6440D2*
X6531D1*
X162Y4564D2*
X669D1*
X1199D2*
X1324D1*
X3980D2*
X4420D1*
X4925D2*
X5498D1*
X6440D2*
X6531D1*
X162Y4496D2*
X600D1*
X1131D2*
X1322D1*
X3980D2*
X4420D1*
X4925D2*
X5498D1*
X6440D2*
X6531D1*
X1149Y4427D2*
X1346D1*
X3980D2*
X4420D1*
X4925D2*
X5498D1*
X6440D2*
X6531D1*
X3980Y4358D2*
X4420D1*
X4925D2*
X5498D1*
X6210D2*
X6531D1*
X3980Y4290D2*
X4421D1*
X4925D2*
X5498D1*
X6196D2*
X6531D1*
X4893Y4221D2*
X5498D1*
X6155D2*
X6531D1*
X4738Y4152D2*
X5498D1*
X6121D2*
X6531D1*
X4670Y4084D2*
X5498D1*
X6121D2*
X6531D1*
X4601Y4015D2*
X5498D1*
X6121D2*
X6531D1*
X4690Y3946D2*
X6531D1*
X4726Y3878D2*
X6531D1*
X4801Y3809D2*
X6531D1*
X4801Y3740D2*
X6531D1*
X4801Y3671D2*
X6531D1*
X4801Y3603D2*
X6531D1*
X4801Y3534D2*
X6531D1*
X4801Y3465D2*
X6531D1*
X4801Y3397D2*
X6531D1*
X4801Y3328D2*
X6531D1*
X162Y3259D2*
X554D1*
X4906D2*
X5557D1*
X5904D2*
X6531D1*
X162Y3191D2*
X1088D1*
X4946D2*
X5506D1*
X5954D2*
X6531D1*
X162Y3122D2*
X1088D1*
X4954D2*
X5484D1*
X5977D2*
X6531D1*
X162Y3053D2*
X1013D1*
X5230D2*
X5482D1*
X5978D2*
X6531D1*
X162Y2985D2*
X984D1*
X3362D2*
X3668D1*
X5297D2*
X5501D1*
X162Y2916D2*
X765D1*
X914D2*
X986D1*
X3614D2*
X3668D1*
X5333D2*
X5546D1*
X162Y2847D2*
X674D1*
X5349D2*
X5644D1*
X5350Y2779D2*
X5630D1*
X5335Y2710D2*
X5630D1*
X5300Y2641D2*
X5630D1*
X5238Y2572D2*
X5563D1*
X4940Y2504D2*
X5494D1*
X5061Y2435D2*
X5425D1*
X5061Y2366D2*
X5356D1*
X4562Y1817D2*
X4942D1*
X4562Y1748D2*
X4977D1*
X3435Y1680D2*
X3525D1*
X4562D2*
X5080D1*
X5199D2*
X5475D1*
X3435Y1611D2*
X3594D1*
X4562D2*
X5543D1*
X162Y1542D2*
X424D1*
X3435D2*
X3662D1*
X4562D2*
X5612D1*
X162Y1473D2*
X493D1*
X3423D2*
X3732D1*
X4562D2*
X5630D1*
X162Y1405D2*
X561D1*
X3371D2*
X3938D1*
X4562D2*
X5630D1*
X162Y1336D2*
X630D1*
X3302D2*
X3938D1*
X4562D2*
X5630D1*
X162Y1267D2*
X699D1*
X3233D2*
X3938D1*
X4562D2*
X5630D1*
X162Y1199D2*
X768D1*
X3165D2*
X3938D1*
X5112D2*
X5632D1*
X162Y1130D2*
X837D1*
X3096D2*
X3938D1*
X5112D2*
X5645D1*
X162Y1061D2*
X904D1*
X3027D2*
X3860D1*
X5112D2*
X5545D1*
X162Y993D2*
X973D1*
X2958D2*
X3063D1*
X5112D2*
X5499D1*
X162Y924D2*
X1005D1*
X5112D2*
X5485D1*
X162Y855D2*
X978D1*
X5112D2*
X5496D1*
X162Y787D2*
X970D1*
X5112D2*
X5537D1*
X162Y718D2*
X970D1*
X5112D2*
X5630D1*
X162Y649D2*
X970D1*
X5112D2*
X5630D1*
X162Y581D2*
X970D1*
X5068D2*
X5630D1*
X162Y512D2*
X970D1*
X5068D2*
X5630D1*
X162Y443D2*
X970D1*
X5068D2*
X5630D1*
X162Y374D2*
X970D1*
X5068D2*
X5630D1*
X162Y306D2*
X970D1*
X5068D2*
X5630D1*
X162Y237D2*
X971D1*
X5068D2*
X5630D1*
X162Y168D2*
X982D1*
X5067D2*
X5635D1*
X3945Y1067D2*
Y1244D1*
X4495Y1246D1*
Y1264D1*
X5105D1*
Y616D1*
X5058D1*
X5061Y595D1*
X5060Y178D1*
X5090Y155D1*
X5644Y156D1*
X5638Y193D1*
X5637Y250D1*
Y730D1*
X5617Y736D1*
X5586Y752D1*
X5558Y773D1*
X5534Y798D1*
X5515Y827D1*
X5502Y860D1*
X5494Y894D1*
X5492Y929D1*
X5497Y963D1*
X5508Y997D1*
X5524Y1027D1*
X5545Y1055D1*
X5571Y1078D1*
X5601Y1097D1*
X5634Y1110D1*
X5657Y1115D1*
X5645Y1151D1*
X5639Y1182D1*
X5637Y1220D1*
Y1525D1*
X5439Y1722D1*
X5271D1*
X5236Y1697D1*
X5205Y1683D1*
X5171Y1675D1*
X5136Y1672D1*
X5101Y1676D1*
X5067Y1686D1*
X5036Y1702D1*
X5008Y1723D1*
X4984Y1748D1*
X4965Y1777D1*
X4952Y1810D1*
X4944Y1844D1*
X4943Y1864D1*
X4669Y1865D1*
X4554D1*
X4555Y1265D1*
X3945D1*
Y1441D1*
X3831D1*
X3796Y1446D1*
X3763Y1458D1*
X3726Y1485D1*
X3428Y1783D1*
Y1530D1*
X3424Y1495D1*
X3412Y1463D1*
X3385Y1425D1*
X2951Y992D1*
X2980Y964D1*
X3002Y933D1*
X3010Y921D1*
X3030Y951D1*
X3055Y979D1*
X3079Y1000D1*
X3110Y1021D1*
X3145Y1036D1*
X3176Y1046D1*
X3213Y1052D1*
X3270Y1053D1*
X3806Y1052D1*
X3836Y1048D1*
X3818Y1051D1*
X4903Y2475D2*
X5054D1*
Y2327D1*
X5324Y2328D1*
X5578Y2582D1*
X5606Y2603D1*
X5638Y2619D1*
X5637Y2766D1*
X5639Y2798D1*
X5647Y2834D1*
X5653Y2853D1*
X5625Y2864D1*
X5595Y2881D1*
X5567Y2902D1*
X5543Y2928D1*
X5523Y2956D1*
X5507Y2987D1*
X5495Y3020D1*
X5489Y3055D1*
X5487Y3090D1*
X5491Y3125D1*
X5499Y3158D1*
X5513Y3191D1*
X5530Y3221D1*
X5552Y3248D1*
X5578Y3272D1*
X5607Y3292D1*
X5638Y3307D1*
X5671Y3318D1*
X5706Y3324D1*
X5741Y3325D1*
X5776Y3321D1*
X5809Y3312D1*
X5841Y3298D1*
X5871Y3280D1*
X5898Y3258D1*
X5922Y3232D1*
X5941Y3203D1*
X5956Y3171D1*
X5966Y3138D1*
X5973Y3082D1*
X5970Y3048D1*
X5965Y3023D1*
X6461Y3022D1*
X6493Y3018D1*
X6529Y3009D1*
X6538Y3005D1*
Y6144D1*
X6433Y6143D1*
Y5657D1*
X6405D1*
Y5025D1*
Y5002D1*
X6433Y5003D1*
Y4377D1*
X6202D1*
X6200Y4335D1*
X6192Y4301D1*
X6180Y4269D1*
X6162Y4238D1*
X6135Y4205D1*
X6115Y4186D1*
Y3966D1*
X5505D1*
X5506Y4594D1*
X5507Y5003D1*
X5535D1*
Y5635D1*
Y5658D1*
X5507Y5657D1*
Y6144D1*
X5196D1*
Y5774D1*
X5354Y5775D1*
Y5165D1*
X4705D1*
Y5696D1*
X4684Y5670D1*
Y5165D1*
X4403D1*
X4377Y5138D1*
X4375Y5115D1*
X4366Y5081D1*
X4351Y5050D1*
X4330Y5021D1*
X4305Y4997D1*
X4276Y4977D1*
X4245Y4963D1*
X4211Y4955D1*
X4176Y4952D1*
X4141Y4956D1*
X4107Y4966D1*
X4076Y4982D1*
X4048Y5003D1*
X4024Y5028D1*
X4005Y5057D1*
X3994Y5085D1*
X3970Y5051D1*
X3951Y5032D1*
X3969Y4995D1*
X3973Y4967D1*
Y4298D1*
X3965Y4257D1*
X4003Y4260D1*
X4422D1*
X4431Y4270D1*
X4427Y4298D1*
Y4967D1*
X4432Y5001D1*
X4449Y5032D1*
X4474Y5056D1*
X4511Y5072D1*
X4570Y5075D1*
X4810D1*
X4845Y5069D1*
X4875Y5053D1*
X4899Y5028D1*
X4915Y4991D1*
X4918Y4932D1*
Y4298D1*
X4912Y4263D1*
X4896Y4233D1*
X4871Y4209D1*
X4834Y4193D1*
X4775Y4190D1*
X4770D1*
X4588Y4009D1*
X4610Y4001D1*
X4641Y3984D1*
X4668Y3962D1*
X4691Y3935D1*
X4709Y3905D1*
X4721Y3872D1*
X4728Y3820D1*
X4727Y3815D1*
X4795D1*
Y3322D1*
X4830Y3311D1*
X4861Y3294D1*
X4888Y3272D1*
X4911Y3245D1*
X4929Y3215D1*
X4941Y3182D1*
X4948Y3130D1*
X4945Y3098D1*
X4970Y3106D1*
X5004Y3113D1*
X5039Y3115D1*
X5074Y3113D1*
X5109Y3107D1*
X5142Y3097D1*
X5175Y3083D1*
X5205Y3066D1*
X5233Y3045D1*
X5259Y3022D1*
X5282Y2995D1*
X5301Y2966D1*
X5318Y2935D1*
X5330Y2903D1*
X5339Y2869D1*
X5345Y2810D1*
X5343Y2775D1*
X5337Y2741D1*
X5327Y2707D1*
X5313Y2675D1*
X5296Y2644D1*
X5275Y2616D1*
X5251Y2591D1*
X5225Y2568D1*
X5196Y2548D1*
X5165Y2532D1*
X5132Y2520D1*
X5098Y2511D1*
X5064Y2506D1*
X5029D1*
X4994Y2509D1*
X4948Y2520D1*
X4903Y2474D1*
X155Y4434D2*
X546D1*
X915Y4803D1*
X865Y4816D1*
X834Y4832D1*
X806Y4853D1*
X782Y4878D1*
X763Y4907D1*
X749Y4940D1*
X741Y4974D1*
X740Y4997D1*
X714Y4996D1*
X715Y4946D1*
X156D1*
X155Y4499D1*
Y4435D1*
X525Y3295D2*
X156D1*
X155Y2924D1*
Y2785D1*
X650D1*
X658Y2807D1*
X674Y2837D1*
X695Y2865D1*
X721Y2888D1*
X751Y2907D1*
X784Y2920D1*
X818Y2927D1*
X853D1*
X887Y2922D1*
X920Y2911D1*
X951Y2894D1*
X978Y2872D1*
X1001Y2845D1*
X1008Y2835D1*
X1017Y2851D1*
X1019Y2861D1*
X1001Y2896D1*
X991Y2930D1*
X990Y2969D1*
X996Y3004D1*
X1012Y3040D1*
X1032Y3068D1*
X1063Y3094D1*
X1093Y3111D1*
X1085Y3107D1*
X1095Y3125D1*
Y3194D1*
X1081Y3201D1*
X949Y3202D1*
X679D1*
X645Y3206D1*
X612Y3218D1*
X575Y3245D1*
X525Y3296D1*
X155Y5594D2*
X715D1*
Y5427D1*
X871Y5428D1*
X1205D1*
X1222Y5445D1*
Y5685D1*
X1162Y5744D1*
X696D1*
Y6145D1*
X623Y6144D1*
X155D1*
Y5594D1*
X2787Y5676D2*
X2255D1*
Y5745D1*
X2151Y5744D1*
X2095Y5729D1*
X2029Y5727D1*
X1783D1*
Y5429D1*
X2350Y5428D1*
X2408D1*
Y5154D1*
X2486Y5155D1*
X2645D1*
Y4690D1*
X2666Y4720D1*
Y5155D1*
X2774D1*
X2787Y5203D1*
X2786Y5675D1*
X3485Y6145D2*
Y5784D1*
X4104Y5785D1*
X4106Y5775D1*
X4665D1*
Y6144D1*
X3485D1*
X426Y1546D2*
X155D1*
Y155D1*
X994D1*
X984Y186D1*
X978Y223D1*
X977Y280D1*
X978Y816D1*
X984Y853D1*
X995Y890D1*
X1009Y919D1*
X1022Y939D1*
X1026Y946D1*
X427Y1546D1*
X1998Y4996D2*
X1750D1*
X1729Y4971D1*
X1504Y4746D1*
X1477Y4724D1*
X1447Y4707D1*
X1413Y4696D1*
X1375Y4692D1*
X1321D1*
X1094Y4465D1*
X1138Y4432D1*
X1161Y4404D1*
X1305Y4405D1*
X1367D1*
X1350Y4432D1*
X1337Y4465D1*
X1329Y4499D1*
X1327Y4534D1*
X1332Y4568D1*
X1343Y4602D1*
X1359Y4632D1*
X1380Y4660D1*
X1406Y4683D1*
X1436Y4702D1*
X1469Y4715D1*
X1503Y4722D1*
X1538D1*
X1572Y4717D1*
X1605Y4706D1*
X1636Y4689D1*
X1650Y4677D1*
X1668Y4697D1*
X1694Y4721D1*
X1724Y4739D1*
X1756Y4752D1*
X1790Y4759D1*
X1825Y4760D1*
X1860Y4755D1*
X1893Y4743D1*
X1924Y4726D1*
X1951Y4704D1*
X1973Y4678D1*
X1991Y4647D1*
X1997Y4632D1*
X1996Y4997D1*
X3381Y2908D2*
X3411Y2927D1*
X3444Y2940D1*
X3478Y2947D1*
X3513D1*
X3547Y2942D1*
X3580Y2931D1*
X3611Y2914D1*
X3638Y2892D1*
X3661Y2865D1*
X3675Y2841D1*
Y2988D1*
X3608Y2985D1*
X3356D1*
X3355Y2916D1*
X3376Y2908D1*
X3381D1*
X3411Y2927D1*
X3444Y2940D1*
X3478Y2947D1*
X3513D1*
X3547Y2942D1*
X3580Y2931D1*
X3611Y2914D1*
X3638Y2892D1*
X3661Y2865D1*
X3676Y2840D1*
X4587Y4009D2*
X4610Y4001D1*
X4641Y3984D1*
X4668Y3962D1*
X4691Y3935D1*
X4709Y3905D1*
X4721Y3872D1*
X4728Y3820D1*
X4727Y3815D1*
G36*
X5895Y2915D2*
X6445D1*
X6461Y2914D1*
X6476Y2912D1*
X6491Y2908D1*
X6506Y2902D1*
X6520Y2895D1*
X6533Y2886D1*
X6545Y2876D1*
X6556Y2865D1*
X6566Y2853D1*
X6575Y2840D1*
X6582Y2826D1*
X6588Y2811D1*
X6592Y2796D1*
X6594Y2781D1*
X6595Y2765D1*
Y2215D1*
X6594Y2199D1*
X6592Y2184D1*
X6588Y2169D1*
X6582Y2154D1*
X6575Y2140D1*
X6566Y2127D1*
X6556Y2115D1*
X6545Y2104D1*
X6533Y2094D1*
X6520Y2085D1*
X6506Y2078D1*
X6491Y2072D1*
X6476Y2068D1*
X6461Y2066D1*
X6445Y2065D1*
X5895D1*
X5879Y2066D1*
X5864Y2068D1*
X5849Y2072D1*
X5834Y2078D1*
X5820Y2085D1*
X5807Y2094D1*
X5795Y2104D1*
X5784Y2115D1*
X5774Y2127D1*
X5765Y2140D1*
X5758Y2154D1*
X5752Y2169D1*
X5748Y2184D1*
X5746Y2199D1*
X5745Y2215D1*
Y2765D1*
X5746Y2781D1*
X5748Y2796D1*
X5752Y2811D1*
X5758Y2826D1*
X5765Y2840D1*
X5774Y2853D1*
X5784Y2865D1*
X5795Y2876D1*
X5807Y2886D1*
X5820Y2895D1*
X5834Y2902D1*
X5849Y2908D1*
X5864Y2912D1*
X5879Y2914D1*
X5895Y2915D1*
G37*
G36*
X5745Y1215D2*
Y1765D1*
X5746Y1781D1*
X5748Y1796D1*
X5752Y1811D1*
X5758Y1826D1*
X5765Y1840D1*
X5774Y1853D1*
X5784Y1865D1*
X5795Y1876D1*
X5807Y1886D1*
X5820Y1895D1*
X5834Y1902D1*
X5849Y1908D1*
X5864Y1912D1*
X5879Y1914D1*
X5895Y1915D1*
X6445D1*
X6461Y1914D1*
X6476Y1912D1*
X6491Y1908D1*
X6506Y1902D1*
X6520Y1895D1*
X6533Y1886D1*
X6545Y1876D1*
X6556Y1865D1*
X6566Y1853D1*
X6575Y1840D1*
X6582Y1826D1*
X6588Y1811D1*
X6592Y1796D1*
X6594Y1781D1*
X6595Y1765D1*
Y1215D1*
X6594Y1199D1*
X6592Y1184D1*
X6588Y1169D1*
X6582Y1154D1*
X6575Y1140D1*
X6566Y1127D1*
X6556Y1115D1*
X6545Y1104D1*
X6533Y1094D1*
X6520Y1085D1*
X6506Y1078D1*
X6491Y1072D1*
X6476Y1068D1*
X6461Y1066D1*
X6445Y1065D1*
X5895D1*
X5879Y1066D1*
X5864Y1068D1*
X5849Y1072D1*
X5834Y1078D1*
X5820Y1085D1*
X5807Y1094D1*
X5795Y1104D1*
X5784Y1115D1*
X5774Y1127D1*
X5765Y1140D1*
X5758Y1154D1*
X5752Y1169D1*
X5748Y1184D1*
X5746Y1199D1*
X5745Y1215D1*
G37*
G36*
X6445Y915D2*
X5895D1*
X5879Y914D1*
X5864Y912D1*
X5849Y908D1*
X5834Y902D1*
X5820Y895D1*
X5807Y886D1*
X5795Y876D1*
X5784Y865D1*
X5774Y853D1*
X5765Y840D1*
X5758Y826D1*
X5752Y811D1*
X5748Y796D1*
X5746Y781D1*
X5745Y765D1*
Y215D1*
X5746Y199D1*
X5748Y184D1*
X5752Y169D1*
X5758Y154D1*
X5765Y140D1*
X5774Y127D1*
X5784Y115D1*
X5795Y104D1*
X5807Y94D1*
X5820Y85D1*
X5834Y78D1*
X5849Y72D1*
X5864Y68D1*
X5879Y66D1*
X5895Y65D1*
X6445D1*
X6461Y66D1*
X6476Y68D1*
X6491Y72D1*
X6506Y78D1*
X6520Y85D1*
X6533Y94D1*
X6545Y104D1*
X6556Y115D1*
X6566Y127D1*
X6575Y140D1*
X6582Y154D1*
X6588Y169D1*
X6592Y184D1*
X6594Y199D1*
X6595Y215D1*
Y765D1*
X6594Y781D1*
X6592Y796D1*
X6588Y811D1*
X6582Y826D1*
X6575Y840D1*
X6566Y853D1*
X6556Y865D1*
X6545Y876D1*
X6533Y886D1*
X6520Y895D1*
X6506Y902D1*
X6491Y908D1*
X6476Y912D1*
X6461Y914D1*
X6445Y915D1*
G37*
G36*
X85Y245D2*
Y795D1*
X86Y811D1*
X88Y826D1*
X92Y841D1*
X98Y856D1*
X105Y870D1*
X114Y883D1*
X124Y895D1*
X135Y906D1*
X147Y916D1*
X160Y925D1*
X174Y932D1*
X189Y938D1*
X204Y942D1*
X219Y944D1*
X235Y945D1*
X785D1*
X801Y944D1*
X816Y942D1*
X831Y938D1*
X846Y932D1*
X860Y925D1*
X873Y916D1*
X885Y906D1*
X896Y895D1*
X906Y883D1*
X915Y870D1*
X922Y856D1*
X928Y841D1*
X932Y826D1*
X934Y811D1*
X935Y795D1*
Y245D1*
X934Y229D1*
X932Y214D1*
X928Y199D1*
X922Y184D1*
X915Y170D1*
X906Y157D1*
X896Y145D1*
X885Y134D1*
X873Y124D1*
X860Y115D1*
X846Y108D1*
X831Y102D1*
X816Y98D1*
X801Y96D1*
X785Y95D1*
X235D1*
X219Y96D1*
X204Y98D1*
X189Y102D1*
X174Y108D1*
X160Y115D1*
X147Y124D1*
X135Y134D1*
X124Y145D1*
X114Y157D1*
X105Y170D1*
X98Y184D1*
X92Y199D1*
X88Y214D1*
X86Y229D1*
X85Y245D1*
G37*
G36*
X1785Y95D2*
X1235D1*
X1219Y96D1*
X1204Y98D1*
X1189Y102D1*
X1174Y108D1*
X1160Y115D1*
X1147Y124D1*
X1135Y134D1*
X1124Y145D1*
X1114Y157D1*
X1105Y170D1*
X1098Y184D1*
X1092Y199D1*
X1088Y214D1*
X1086Y229D1*
X1085Y245D1*
Y795D1*
X1086Y811D1*
X1088Y826D1*
X1092Y841D1*
X1098Y856D1*
X1105Y870D1*
X1114Y883D1*
X1124Y895D1*
X1135Y906D1*
X1147Y916D1*
X1160Y925D1*
X1174Y932D1*
X1189Y938D1*
X1204Y942D1*
X1219Y944D1*
X1235Y945D1*
X1785D1*
X1801Y944D1*
X1816Y942D1*
X1831Y938D1*
X1846Y932D1*
X1860Y925D1*
X1873Y916D1*
X1885Y906D1*
X1896Y895D1*
X1906Y883D1*
X1915Y870D1*
X1922Y856D1*
X1928Y841D1*
X1932Y826D1*
X1934Y811D1*
X1935Y795D1*
Y245D1*
X1934Y229D1*
X1932Y214D1*
X1928Y199D1*
X1922Y184D1*
X1915Y170D1*
X1906Y157D1*
X1896Y145D1*
X1885Y134D1*
X1873Y124D1*
X1860Y115D1*
X1846Y108D1*
X1831Y102D1*
X1816Y98D1*
X1801Y96D1*
X1785Y95D1*
G37*
G36*
X2085Y795D2*
Y245D1*
X2086Y229D1*
X2088Y214D1*
X2092Y199D1*
X2098Y184D1*
X2105Y170D1*
X2114Y157D1*
X2124Y145D1*
X2135Y134D1*
X2147Y124D1*
X2160Y115D1*
X2174Y108D1*
X2189Y102D1*
X2204Y98D1*
X2219Y96D1*
X2235Y95D1*
X2785D1*
X2801Y96D1*
X2816Y98D1*
X2831Y102D1*
X2846Y108D1*
X2860Y115D1*
X2873Y124D1*
X2885Y134D1*
X2896Y145D1*
X2906Y157D1*
X2915Y170D1*
X2922Y184D1*
X2928Y199D1*
X2932Y214D1*
X2934Y229D1*
X2935Y245D1*
Y795D1*
X2934Y811D1*
X2932Y826D1*
X2928Y841D1*
X2922Y856D1*
X2915Y870D1*
X2906Y883D1*
X2896Y895D1*
X2885Y906D1*
X2873Y916D1*
X2860Y925D1*
X2846Y932D1*
X2831Y938D1*
X2816Y942D1*
X2801Y944D1*
X2785Y945D1*
X2235D1*
X2219Y944D1*
X2204Y942D1*
X2189Y938D1*
X2174Y932D1*
X2160Y925D1*
X2147Y916D1*
X2135Y906D1*
X2124Y895D1*
X2114Y883D1*
X2105Y870D1*
X2098Y856D1*
X2092Y841D1*
X2088Y826D1*
X2086Y811D1*
X2085Y795D1*
G37*
G36*
X3235Y95D2*
X3785D1*
X3801Y96D1*
X3816Y98D1*
X3831Y102D1*
X3846Y108D1*
X3860Y115D1*
X3873Y124D1*
X3885Y134D1*
X3896Y145D1*
X3906Y157D1*
X3915Y170D1*
X3922Y184D1*
X3928Y199D1*
X3932Y214D1*
X3934Y229D1*
X3935Y245D1*
Y795D1*
X3934Y811D1*
X3932Y826D1*
X3928Y841D1*
X3922Y856D1*
X3915Y870D1*
X3906Y883D1*
X3896Y895D1*
X3885Y906D1*
X3873Y916D1*
X3860Y925D1*
X3846Y932D1*
X3831Y938D1*
X3816Y942D1*
X3801Y944D1*
X3785Y945D1*
X3235D1*
X3219Y944D1*
X3204Y942D1*
X3189Y938D1*
X3174Y932D1*
X3160Y925D1*
X3147Y916D1*
X3135Y906D1*
X3124Y895D1*
X3114Y883D1*
X3105Y870D1*
X3098Y856D1*
X3092Y841D1*
X3088Y826D1*
X3086Y811D1*
X3085Y795D1*
Y245D1*
X3086Y229D1*
X3088Y214D1*
X3092Y199D1*
X3098Y184D1*
X3105Y170D1*
X3114Y157D1*
X3124Y145D1*
X3135Y134D1*
X3147Y124D1*
X3160Y115D1*
X3174Y108D1*
X3189Y102D1*
X3204Y98D1*
X3219Y96D1*
X3235Y95D1*
G37*
D22*
X4800Y940D3*
Y1609D3*
D23*
X4730Y2170D3*
X4061D3*
D22*
X410Y4110D3*
Y4779D3*
Y2950D3*
Y3619D3*
Y5270D3*
Y5939D3*
X2560Y6000D3*
Y5331D3*
G36*
X4611Y390D2*
X4407Y185D1*
X4953D1*
Y595D1*
X4407D1*
X4611Y390D1*
G37*
G36*
X4048Y595D2*
X4321D1*
X4525Y390D1*
X4321Y185D1*
X4048D1*
Y595D1*
G37*
D24*
X3810Y5960D3*
X3219D3*
X4340D3*
X4931D3*
D26*
X420Y2520D3*
Y1811D3*
D29*
X1040Y5960D3*
Y5586D3*
Y5212D3*
X2064D3*
Y5960D3*
D22*
X3980Y2821D3*
Y3491D3*
D23*
X2990Y4850D3*
X2321D3*
D22*
X4250Y920D3*
Y1589D3*
D23*
X4360Y5470D3*
X5029D3*
X3780Y5480D3*
X3111D3*
D22*
X4490Y2821D3*
Y3491D3*
D30*
X5810Y4280D3*
D31*
X5229Y3681D3*
X6391D3*
D32*
X5970Y4690D3*
Y5970D3*
D33*
X5600Y5330D3*
X6340D3*
G36*
X3301Y2503D2*
X3327Y2509D1*
X3347Y2526D1*
X3359Y2549D1*
Y2576D1*
X3347Y2599D1*
X3327Y2616D1*
X3301Y2622D1*
X3085D1*
X3059Y2616D1*
X3038Y2599D1*
X3027Y2576D1*
Y2549D1*
X3038Y2526D1*
X3059Y2509D1*
X3085Y2503D1*
X3301D1*
G37*
G36*
Y2700D2*
X3327Y2706D1*
X3347Y2723D1*
X3359Y2746D1*
Y2772D1*
X3347Y2796D1*
X3327Y2813D1*
X3301Y2818D1*
X3085D1*
X3059Y2813D1*
X3038Y2796D1*
X3027Y2772D1*
Y2746D1*
X3038Y2723D1*
X3059Y2706D1*
X3085Y2700D1*
X3301D1*
G37*
G36*
Y2897D2*
X3327Y2903D1*
X3347Y2919D1*
X3359Y2943D1*
Y2969D1*
X3347Y2993D1*
X3327Y3009D1*
X3301Y3015D1*
X3085D1*
X3059Y3009D1*
X3038Y2993D1*
X3027Y2969D1*
Y2943D1*
X3038Y2919D1*
X3059Y2903D1*
X3085Y2897D1*
X3301D1*
G37*
G36*
Y3094D2*
X3327Y3100D1*
X3347Y3116D1*
X3359Y3140D1*
Y3166D1*
X3347Y3190D1*
X3327Y3206D1*
X3301Y3212D1*
X3085D1*
X3059Y3206D1*
X3038Y3190D1*
X3027Y3166D1*
Y3140D1*
X3038Y3116D1*
X3059Y3100D1*
X3085Y3094D1*
X3301D1*
G37*
G36*
Y3291D2*
X3327Y3297D1*
X3347Y3313D1*
X3359Y3337D1*
Y3363D1*
X3347Y3387D1*
X3327Y3403D1*
X3301Y3409D1*
X3085D1*
X3059Y3403D1*
X3038Y3387D1*
X3027Y3363D1*
Y3337D1*
X3038Y3313D1*
X3059Y3297D1*
X3085Y3291D1*
X3301D1*
G37*
G36*
Y3488D2*
X3327Y3494D1*
X3347Y3510D1*
X3359Y3534D1*
Y3560D1*
X3347Y3584D1*
X3327Y3600D1*
X3301Y3606D1*
X3085D1*
X3059Y3600D1*
X3038Y3584D1*
X3027Y3560D1*
Y3534D1*
X3038Y3510D1*
X3059Y3494D1*
X3085Y3488D1*
X3301D1*
G37*
G36*
Y3685D2*
X3327Y3690D1*
X3347Y3707D1*
X3359Y3730D1*
Y3757D1*
X3347Y3780D1*
X3327Y3797D1*
X3301Y3803D1*
X3085D1*
X3059Y3797D1*
X3038Y3780D1*
X3027Y3757D1*
Y3730D1*
X3038Y3707D1*
X3059Y3690D1*
X3085Y3685D1*
X3301D1*
G37*
G36*
Y3881D2*
X3327Y3887D1*
X3347Y3904D1*
X3359Y3927D1*
Y3954D1*
X3347Y3977D1*
X3327Y3994D1*
X3301Y4000D1*
X3085D1*
X3059Y3994D1*
X3038Y3977D1*
X3027Y3954D1*
Y3927D1*
X3038Y3904D1*
X3059Y3887D1*
X3085Y3881D1*
X3301D1*
G37*
G36*
X2976Y4324D2*
X2970Y4350D1*
X2954Y4370D1*
X2930Y4382D1*
X2904D1*
X2880Y4370D1*
X2864Y4350D1*
X2858Y4324D1*
Y4108D1*
X2864Y4082D1*
X2880Y4062D1*
X2904Y4050D1*
X2930D1*
X2954Y4062D1*
X2970Y4082D1*
X2976Y4108D1*
Y4324D1*
G37*
G36*
X2779D2*
X2774Y4350D1*
X2757Y4370D1*
X2734Y4382D1*
X2707D1*
X2684Y4370D1*
X2667Y4350D1*
X2661Y4324D1*
Y4108D1*
X2667Y4082D1*
X2684Y4062D1*
X2707Y4050D1*
X2734D1*
X2757Y4062D1*
X2774Y4082D1*
X2779Y4108D1*
Y4324D1*
G37*
G36*
X2583D2*
X2577Y4350D1*
X2560Y4370D1*
X2537Y4382D1*
X2510D1*
X2487Y4370D1*
X2470Y4350D1*
X2464Y4324D1*
Y4108D1*
X2470Y4082D1*
X2487Y4062D1*
X2510Y4050D1*
X2537D1*
X2560Y4062D1*
X2577Y4082D1*
X2583Y4108D1*
Y4324D1*
G37*
G36*
X2386D2*
X2380Y4350D1*
X2364Y4370D1*
X2340Y4382D1*
X2314D1*
X2290Y4370D1*
X2273Y4350D1*
X2268Y4324D1*
Y4108D1*
X2273Y4082D1*
X2290Y4062D1*
X2314Y4050D1*
X2340D1*
X2364Y4062D1*
X2380Y4082D1*
X2386Y4108D1*
Y4324D1*
G37*
G36*
X2189D2*
X2183Y4350D1*
X2167Y4370D1*
X2143Y4382D1*
X2117D1*
X2093Y4370D1*
X2077Y4350D1*
X2071Y4324D1*
Y4108D1*
X2077Y4082D1*
X2093Y4062D1*
X2117Y4050D1*
X2143D1*
X2167Y4062D1*
X2183Y4082D1*
X2189Y4108D1*
Y4324D1*
G37*
G36*
X1992D2*
X1986Y4350D1*
X1970Y4370D1*
X1946Y4382D1*
X1920D1*
X1896Y4370D1*
X1880Y4350D1*
X1874Y4324D1*
Y4108D1*
X1880Y4082D1*
X1896Y4062D1*
X1920Y4050D1*
X1946D1*
X1970Y4062D1*
X1986Y4082D1*
X1992Y4108D1*
Y4324D1*
G37*
G36*
X1795D2*
X1789Y4350D1*
X1773Y4370D1*
X1749Y4382D1*
X1723D1*
X1699Y4370D1*
X1683Y4350D1*
X1677Y4324D1*
Y4108D1*
X1683Y4082D1*
X1699Y4062D1*
X1723Y4050D1*
X1749D1*
X1773Y4062D1*
X1789Y4082D1*
X1795Y4108D1*
Y4324D1*
G37*
G36*
X1598D2*
X1592Y4350D1*
X1576Y4370D1*
X1552Y4382D1*
X1526D1*
X1502Y4370D1*
X1486Y4350D1*
X1480Y4324D1*
Y4108D1*
X1486Y4082D1*
X1502Y4062D1*
X1526Y4050D1*
X1552D1*
X1576Y4062D1*
X1592Y4082D1*
X1598Y4108D1*
Y4324D1*
G37*
G36*
X1372Y3881D2*
X1398Y3887D1*
X1418Y3904D1*
X1430Y3927D1*
Y3954D1*
X1418Y3977D1*
X1398Y3994D1*
X1372Y4000D1*
X1155D1*
X1130Y3994D1*
X1109Y3977D1*
X1098Y3954D1*
Y3927D1*
X1109Y3904D1*
X1130Y3887D1*
X1155Y3881D1*
X1372D1*
G37*
G36*
Y3685D2*
X1398Y3690D1*
X1418Y3707D1*
X1430Y3730D1*
Y3757D1*
X1418Y3780D1*
X1398Y3797D1*
X1372Y3803D1*
X1155D1*
X1130Y3797D1*
X1109Y3780D1*
X1098Y3757D1*
Y3730D1*
X1109Y3707D1*
X1130Y3690D1*
X1155Y3685D1*
X1372D1*
G37*
G36*
Y3488D2*
X1398Y3494D1*
X1418Y3510D1*
X1430Y3534D1*
Y3560D1*
X1418Y3584D1*
X1398Y3600D1*
X1372Y3606D1*
X1155D1*
X1130Y3600D1*
X1109Y3584D1*
X1098Y3560D1*
Y3534D1*
X1109Y3510D1*
X1130Y3494D1*
X1155Y3488D1*
X1372D1*
G37*
G36*
Y3291D2*
X1398Y3297D1*
X1418Y3313D1*
X1430Y3337D1*
Y3363D1*
X1418Y3387D1*
X1398Y3403D1*
X1372Y3409D1*
X1155D1*
X1130Y3403D1*
X1109Y3387D1*
X1098Y3363D1*
Y3337D1*
X1109Y3313D1*
X1130Y3297D1*
X1155Y3291D1*
X1372D1*
G37*
G36*
Y3094D2*
X1398Y3100D1*
X1418Y3116D1*
X1430Y3140D1*
Y3166D1*
X1418Y3190D1*
X1398Y3206D1*
X1372Y3212D1*
X1155D1*
X1130Y3206D1*
X1109Y3190D1*
X1098Y3166D1*
Y3140D1*
X1109Y3116D1*
X1130Y3100D1*
X1155Y3094D1*
X1372D1*
G37*
G36*
Y2897D2*
X1398Y2903D1*
X1418Y2919D1*
X1430Y2943D1*
Y2969D1*
X1418Y2993D1*
X1398Y3009D1*
X1372Y3015D1*
X1155D1*
X1130Y3009D1*
X1109Y2993D1*
X1098Y2969D1*
Y2943D1*
X1109Y2919D1*
X1130Y2903D1*
X1155Y2897D1*
X1372D1*
G37*
G36*
Y2700D2*
X1398Y2706D1*
X1418Y2723D1*
X1430Y2746D1*
Y2772D1*
X1418Y2796D1*
X1398Y2813D1*
X1372Y2818D1*
X1155D1*
X1130Y2813D1*
X1109Y2796D1*
X1098Y2772D1*
Y2746D1*
X1109Y2723D1*
X1130Y2706D1*
X1155Y2700D1*
X1372D1*
G37*
G36*
Y2503D2*
X1398Y2509D1*
X1418Y2526D1*
X1430Y2549D1*
Y2576D1*
X1418Y2599D1*
X1398Y2616D1*
X1372Y2622D1*
X1155D1*
X1130Y2616D1*
X1109Y2599D1*
X1098Y2576D1*
Y2549D1*
X1109Y2526D1*
X1130Y2509D1*
X1155Y2503D1*
X1372D1*
G37*
G36*
X1598Y2395D2*
X1592Y2421D1*
X1576Y2441D1*
X1552Y2453D1*
X1526D1*
X1502Y2441D1*
X1486Y2421D1*
X1480Y2395D1*
Y2179D1*
X1486Y2153D1*
X1502Y2132D1*
X1526Y2121D1*
X1552D1*
X1576Y2132D1*
X1592Y2153D1*
X1598Y2179D1*
Y2395D1*
G37*
G36*
X1795D2*
X1789Y2421D1*
X1773Y2441D1*
X1749Y2453D1*
X1723D1*
X1699Y2441D1*
X1683Y2421D1*
X1677Y2395D1*
Y2179D1*
X1683Y2153D1*
X1699Y2132D1*
X1723Y2121D1*
X1749D1*
X1773Y2132D1*
X1789Y2153D1*
X1795Y2179D1*
Y2395D1*
G37*
G36*
X1992D2*
X1986Y2421D1*
X1970Y2441D1*
X1946Y2453D1*
X1920D1*
X1896Y2441D1*
X1880Y2421D1*
X1874Y2395D1*
Y2179D1*
X1880Y2153D1*
X1896Y2132D1*
X1920Y2121D1*
X1946D1*
X1970Y2132D1*
X1986Y2153D1*
X1992Y2179D1*
Y2395D1*
G37*
G36*
X2189D2*
X2183Y2421D1*
X2167Y2441D1*
X2143Y2453D1*
X2117D1*
X2093Y2441D1*
X2077Y2421D1*
X2071Y2395D1*
Y2179D1*
X2077Y2153D1*
X2093Y2132D1*
X2117Y2121D1*
X2143D1*
X2167Y2132D1*
X2183Y2153D1*
X2189Y2179D1*
Y2395D1*
G37*
G36*
X2386D2*
X2380Y2421D1*
X2364Y2441D1*
X2340Y2453D1*
X2314D1*
X2290Y2441D1*
X2273Y2421D1*
X2268Y2395D1*
Y2179D1*
X2273Y2153D1*
X2290Y2132D1*
X2314Y2121D1*
X2340D1*
X2364Y2132D1*
X2380Y2153D1*
X2386Y2179D1*
Y2395D1*
G37*
G36*
X2583D2*
X2577Y2421D1*
X2560Y2441D1*
X2537Y2453D1*
X2510D1*
X2487Y2441D1*
X2470Y2421D1*
X2464Y2395D1*
Y2179D1*
X2470Y2153D1*
X2487Y2132D1*
X2510Y2121D1*
X2537D1*
X2560Y2132D1*
X2577Y2153D1*
X2583Y2179D1*
Y2395D1*
G37*
G36*
X2779D2*
X2774Y2421D1*
X2757Y2441D1*
X2734Y2453D1*
X2707D1*
X2684Y2441D1*
X2667Y2421D1*
X2661Y2395D1*
Y2179D1*
X2667Y2153D1*
X2684Y2132D1*
X2707Y2121D1*
X2734D1*
X2757Y2132D1*
X2774Y2153D1*
X2779Y2179D1*
Y2395D1*
G37*
G36*
X2976D2*
X2970Y2421D1*
X2954Y2441D1*
X2930Y2453D1*
X2904D1*
X2880Y2441D1*
X2864Y2421D1*
X2858Y2395D1*
Y2179D1*
X2864Y2153D1*
X2880Y2132D1*
X2904Y2121D1*
X2930D1*
X2954Y2132D1*
X2970Y2153D1*
X2976Y2179D1*
Y2395D1*
G37*
G36*
X2868Y2612D2*
X1588D1*
Y3891D1*
X2868D1*
Y2612D1*
G37*
D35*
X5040Y2810D3*
G36*
X4535Y4298D2*
X4810D1*
Y4967D1*
X4535D1*
Y4298D1*
G37*
G36*
X4062D2*
X4338D1*
Y4967D1*
X4062D1*
Y4298D1*
G37*
G36*
X3590D2*
X3865D1*
Y4967D1*
X3590D1*
Y4298D1*
G37*
M02*
