M48
INCH
T01C0.01
T02C0.015
T03C0.018
%
T01
X+000400Y+005630
X+000700Y+004900
X+000937Y+005000
X+001000Y+004290
X+001525Y+004525
X+001812Y+004562
X+001850Y+004820
X+001910Y+005530
X+002220Y+005530
X+002970Y+005130
X+002700Y+004500
X+003290Y+004520
X+003820Y+005180
X+004180Y+005150
X+004450Y+005090
X+005190Y+005030
X+005460Y+005030
X+005460Y+004680
X+005180Y+004680
X+005250Y+004312
X+004530Y+003820
X+004750Y+003130
X+005810Y+003630
X+005870Y+002380
X+005860Y+001520
X+005690Y+000920
X+005850Y+000480
X+005150Y+001050
X+005140Y+001870
X+003720Y+002170
X+003188Y+002182
X+003060Y+001820
X+002812Y+001812
X+002580Y+001720
X+002327Y+002000
X+001625Y+002688
X+000840Y+002730
X+000880Y+003000
X+000950Y+003550
X+002020Y+003800
X+002550Y+003250
X+003500Y+002750
X+003313Y+000687
X+003500Y+000500
X+003313Y+000313
X+003688Y+000313
X+003688Y+000687
X+002688Y+000687
X+002500Y+000500
X+002313Y+000687
X+002313Y+000313
X+002688Y+000313
X+001688Y+000313
X+001500Y+000500
X+001313Y+000313
X+001313Y+000688
X+001688Y+000688
X+000688Y+000687
X+000500Y+000500
X+000313Y+000687
X+000313Y+000313
X+000688Y+000313
X+000875Y+001937
X+001190Y+001930
X+000850Y+002430
X+004080Y+005950
X+005460Y+005990
X+005480Y+005620
X+006020Y+005320
X+006438Y+005125
T02
X+001688Y+005960
X+005730Y+003082
T03
X+006150Y+005900
T00
M30
