G04 DipTrace Beta 2.3.5.2*
%INsubMicroLRSv2_0603.GTS*%
%MOIN*%
%ADD22R,0.0394X0.0433*%
%ADD23R,0.0433X0.0394*%
%ADD24R,0.0315X0.0315*%
%ADD26R,0.0472X0.0315*%
%ADD29R,0.0472X0.0217*%
%ADD30R,0.0394X0.0413*%
%ADD31R,0.0413X0.0866*%
%ADD32R,0.071X0.041*%
%ADD33R,0.049X0.024*%
%ADD35C,0.0394*%
%FSLAX44Y44*%
G04*
G70*
G90*
G75*
G01*
%LNTopMask*%
%LPD*%
G36*
X5895Y2915D2*
X6445D1*
X6461Y2914D1*
X6476Y2912D1*
X6491Y2908D1*
X6506Y2902D1*
X6520Y2895D1*
X6533Y2886D1*
X6545Y2876D1*
X6556Y2865D1*
X6566Y2853D1*
X6575Y2840D1*
X6582Y2826D1*
X6588Y2811D1*
X6592Y2796D1*
X6594Y2781D1*
X6595Y2765D1*
Y2215D1*
X6594Y2199D1*
X6592Y2184D1*
X6588Y2169D1*
X6582Y2154D1*
X6575Y2140D1*
X6566Y2127D1*
X6556Y2115D1*
X6545Y2104D1*
X6533Y2094D1*
X6520Y2085D1*
X6506Y2078D1*
X6491Y2072D1*
X6476Y2068D1*
X6461Y2066D1*
X6445Y2065D1*
X5895D1*
X5879Y2066D1*
X5864Y2068D1*
X5849Y2072D1*
X5834Y2078D1*
X5820Y2085D1*
X5807Y2094D1*
X5795Y2104D1*
X5784Y2115D1*
X5774Y2127D1*
X5765Y2140D1*
X5758Y2154D1*
X5752Y2169D1*
X5748Y2184D1*
X5746Y2199D1*
X5745Y2215D1*
Y2765D1*
X5746Y2781D1*
X5748Y2796D1*
X5752Y2811D1*
X5758Y2826D1*
X5765Y2840D1*
X5774Y2853D1*
X5784Y2865D1*
X5795Y2876D1*
X5807Y2886D1*
X5820Y2895D1*
X5834Y2902D1*
X5849Y2908D1*
X5864Y2912D1*
X5879Y2914D1*
X5895Y2915D1*
G37*
G36*
X5745Y1215D2*
Y1765D1*
X5746Y1781D1*
X5748Y1796D1*
X5752Y1811D1*
X5758Y1826D1*
X5765Y1840D1*
X5774Y1853D1*
X5784Y1865D1*
X5795Y1876D1*
X5807Y1886D1*
X5820Y1895D1*
X5834Y1902D1*
X5849Y1908D1*
X5864Y1912D1*
X5879Y1914D1*
X5895Y1915D1*
X6445D1*
X6461Y1914D1*
X6476Y1912D1*
X6491Y1908D1*
X6506Y1902D1*
X6520Y1895D1*
X6533Y1886D1*
X6545Y1876D1*
X6556Y1865D1*
X6566Y1853D1*
X6575Y1840D1*
X6582Y1826D1*
X6588Y1811D1*
X6592Y1796D1*
X6594Y1781D1*
X6595Y1765D1*
Y1215D1*
X6594Y1199D1*
X6592Y1184D1*
X6588Y1169D1*
X6582Y1154D1*
X6575Y1140D1*
X6566Y1127D1*
X6556Y1115D1*
X6545Y1104D1*
X6533Y1094D1*
X6520Y1085D1*
X6506Y1078D1*
X6491Y1072D1*
X6476Y1068D1*
X6461Y1066D1*
X6445Y1065D1*
X5895D1*
X5879Y1066D1*
X5864Y1068D1*
X5849Y1072D1*
X5834Y1078D1*
X5820Y1085D1*
X5807Y1094D1*
X5795Y1104D1*
X5784Y1115D1*
X5774Y1127D1*
X5765Y1140D1*
X5758Y1154D1*
X5752Y1169D1*
X5748Y1184D1*
X5746Y1199D1*
X5745Y1215D1*
G37*
G36*
X6445Y915D2*
X5895D1*
X5879Y914D1*
X5864Y912D1*
X5849Y908D1*
X5834Y902D1*
X5820Y895D1*
X5807Y886D1*
X5795Y876D1*
X5784Y865D1*
X5774Y853D1*
X5765Y840D1*
X5758Y826D1*
X5752Y811D1*
X5748Y796D1*
X5746Y781D1*
X5745Y765D1*
Y215D1*
X5746Y199D1*
X5748Y184D1*
X5752Y169D1*
X5758Y154D1*
X5765Y140D1*
X5774Y127D1*
X5784Y115D1*
X5795Y104D1*
X5807Y94D1*
X5820Y85D1*
X5834Y78D1*
X5849Y72D1*
X5864Y68D1*
X5879Y66D1*
X5895Y65D1*
X6445D1*
X6461Y66D1*
X6476Y68D1*
X6491Y72D1*
X6506Y78D1*
X6520Y85D1*
X6533Y94D1*
X6545Y104D1*
X6556Y115D1*
X6566Y127D1*
X6575Y140D1*
X6582Y154D1*
X6588Y169D1*
X6592Y184D1*
X6594Y199D1*
X6595Y215D1*
Y765D1*
X6594Y781D1*
X6592Y796D1*
X6588Y811D1*
X6582Y826D1*
X6575Y840D1*
X6566Y853D1*
X6556Y865D1*
X6545Y876D1*
X6533Y886D1*
X6520Y895D1*
X6506Y902D1*
X6491Y908D1*
X6476Y912D1*
X6461Y914D1*
X6445Y915D1*
G37*
G36*
X85Y245D2*
Y795D1*
X86Y811D1*
X88Y826D1*
X92Y841D1*
X98Y856D1*
X105Y870D1*
X114Y883D1*
X124Y895D1*
X135Y906D1*
X147Y916D1*
X160Y925D1*
X174Y932D1*
X189Y938D1*
X204Y942D1*
X219Y944D1*
X235Y945D1*
X785D1*
X801Y944D1*
X816Y942D1*
X831Y938D1*
X846Y932D1*
X860Y925D1*
X873Y916D1*
X885Y906D1*
X896Y895D1*
X906Y883D1*
X915Y870D1*
X922Y856D1*
X928Y841D1*
X932Y826D1*
X934Y811D1*
X935Y795D1*
Y245D1*
X934Y229D1*
X932Y214D1*
X928Y199D1*
X922Y184D1*
X915Y170D1*
X906Y157D1*
X896Y145D1*
X885Y134D1*
X873Y124D1*
X860Y115D1*
X846Y108D1*
X831Y102D1*
X816Y98D1*
X801Y96D1*
X785Y95D1*
X235D1*
X219Y96D1*
X204Y98D1*
X189Y102D1*
X174Y108D1*
X160Y115D1*
X147Y124D1*
X135Y134D1*
X124Y145D1*
X114Y157D1*
X105Y170D1*
X98Y184D1*
X92Y199D1*
X88Y214D1*
X86Y229D1*
X85Y245D1*
G37*
G36*
X1785Y95D2*
X1235D1*
X1219Y96D1*
X1204Y98D1*
X1189Y102D1*
X1174Y108D1*
X1160Y115D1*
X1147Y124D1*
X1135Y134D1*
X1124Y145D1*
X1114Y157D1*
X1105Y170D1*
X1098Y184D1*
X1092Y199D1*
X1088Y214D1*
X1086Y229D1*
X1085Y245D1*
Y795D1*
X1086Y811D1*
X1088Y826D1*
X1092Y841D1*
X1098Y856D1*
X1105Y870D1*
X1114Y883D1*
X1124Y895D1*
X1135Y906D1*
X1147Y916D1*
X1160Y925D1*
X1174Y932D1*
X1189Y938D1*
X1204Y942D1*
X1219Y944D1*
X1235Y945D1*
X1785D1*
X1801Y944D1*
X1816Y942D1*
X1831Y938D1*
X1846Y932D1*
X1860Y925D1*
X1873Y916D1*
X1885Y906D1*
X1896Y895D1*
X1906Y883D1*
X1915Y870D1*
X1922Y856D1*
X1928Y841D1*
X1932Y826D1*
X1934Y811D1*
X1935Y795D1*
Y245D1*
X1934Y229D1*
X1932Y214D1*
X1928Y199D1*
X1922Y184D1*
X1915Y170D1*
X1906Y157D1*
X1896Y145D1*
X1885Y134D1*
X1873Y124D1*
X1860Y115D1*
X1846Y108D1*
X1831Y102D1*
X1816Y98D1*
X1801Y96D1*
X1785Y95D1*
G37*
G36*
X2085Y795D2*
Y245D1*
X2086Y229D1*
X2088Y214D1*
X2092Y199D1*
X2098Y184D1*
X2105Y170D1*
X2114Y157D1*
X2124Y145D1*
X2135Y134D1*
X2147Y124D1*
X2160Y115D1*
X2174Y108D1*
X2189Y102D1*
X2204Y98D1*
X2219Y96D1*
X2235Y95D1*
X2785D1*
X2801Y96D1*
X2816Y98D1*
X2831Y102D1*
X2846Y108D1*
X2860Y115D1*
X2873Y124D1*
X2885Y134D1*
X2896Y145D1*
X2906Y157D1*
X2915Y170D1*
X2922Y184D1*
X2928Y199D1*
X2932Y214D1*
X2934Y229D1*
X2935Y245D1*
Y795D1*
X2934Y811D1*
X2932Y826D1*
X2928Y841D1*
X2922Y856D1*
X2915Y870D1*
X2906Y883D1*
X2896Y895D1*
X2885Y906D1*
X2873Y916D1*
X2860Y925D1*
X2846Y932D1*
X2831Y938D1*
X2816Y942D1*
X2801Y944D1*
X2785Y945D1*
X2235D1*
X2219Y944D1*
X2204Y942D1*
X2189Y938D1*
X2174Y932D1*
X2160Y925D1*
X2147Y916D1*
X2135Y906D1*
X2124Y895D1*
X2114Y883D1*
X2105Y870D1*
X2098Y856D1*
X2092Y841D1*
X2088Y826D1*
X2086Y811D1*
X2085Y795D1*
G37*
G36*
X3235Y95D2*
X3785D1*
X3801Y96D1*
X3816Y98D1*
X3831Y102D1*
X3846Y108D1*
X3860Y115D1*
X3873Y124D1*
X3885Y134D1*
X3896Y145D1*
X3906Y157D1*
X3915Y170D1*
X3922Y184D1*
X3928Y199D1*
X3932Y214D1*
X3934Y229D1*
X3935Y245D1*
Y795D1*
X3934Y811D1*
X3932Y826D1*
X3928Y841D1*
X3922Y856D1*
X3915Y870D1*
X3906Y883D1*
X3896Y895D1*
X3885Y906D1*
X3873Y916D1*
X3860Y925D1*
X3846Y932D1*
X3831Y938D1*
X3816Y942D1*
X3801Y944D1*
X3785Y945D1*
X3235D1*
X3219Y944D1*
X3204Y942D1*
X3189Y938D1*
X3174Y932D1*
X3160Y925D1*
X3147Y916D1*
X3135Y906D1*
X3124Y895D1*
X3114Y883D1*
X3105Y870D1*
X3098Y856D1*
X3092Y841D1*
X3088Y826D1*
X3086Y811D1*
X3085Y795D1*
Y245D1*
X3086Y229D1*
X3088Y214D1*
X3092Y199D1*
X3098Y184D1*
X3105Y170D1*
X3114Y157D1*
X3124Y145D1*
X3135Y134D1*
X3147Y124D1*
X3160Y115D1*
X3174Y108D1*
X3189Y102D1*
X3204Y98D1*
X3219Y96D1*
X3235Y95D1*
G37*
D22*
X4800Y940D3*
Y1609D3*
D23*
X4730Y2170D3*
X4061D3*
D22*
X410Y4110D3*
Y4779D3*
Y2950D3*
Y3619D3*
Y5270D3*
Y5939D3*
X2560Y6000D3*
Y5331D3*
G36*
X4611Y390D2*
X4407Y185D1*
X4953D1*
Y595D1*
X4407D1*
X4611Y390D1*
G37*
G36*
X4048Y595D2*
X4321D1*
X4525Y390D1*
X4321Y185D1*
X4048D1*
Y595D1*
G37*
D24*
X3810Y5960D3*
X3219D3*
X4340D3*
X4931D3*
D26*
X420Y2520D3*
Y1811D3*
D29*
X1040Y5960D3*
Y5586D3*
Y5212D3*
X2064D3*
Y5960D3*
D22*
X3980Y2821D3*
Y3491D3*
D23*
X2990Y4850D3*
X2321D3*
D22*
X4250Y920D3*
Y1589D3*
D23*
X4360Y5470D3*
X5029D3*
X3780Y5480D3*
X3111D3*
D22*
X4490Y2821D3*
Y3491D3*
D30*
X5810Y4280D3*
D31*
X5229Y3681D3*
X6391D3*
D32*
X5970Y4690D3*
Y5970D3*
D33*
X5600Y5330D3*
X6340D3*
G36*
X3301Y2503D2*
X3327Y2509D1*
X3347Y2526D1*
X3359Y2549D1*
Y2576D1*
X3347Y2599D1*
X3327Y2616D1*
X3301Y2622D1*
X3085D1*
X3059Y2616D1*
X3038Y2599D1*
X3027Y2576D1*
Y2549D1*
X3038Y2526D1*
X3059Y2509D1*
X3085Y2503D1*
X3301D1*
G37*
G36*
Y2700D2*
X3327Y2706D1*
X3347Y2723D1*
X3359Y2746D1*
Y2772D1*
X3347Y2796D1*
X3327Y2813D1*
X3301Y2818D1*
X3085D1*
X3059Y2813D1*
X3038Y2796D1*
X3027Y2772D1*
Y2746D1*
X3038Y2723D1*
X3059Y2706D1*
X3085Y2700D1*
X3301D1*
G37*
G36*
Y2897D2*
X3327Y2903D1*
X3347Y2919D1*
X3359Y2943D1*
Y2969D1*
X3347Y2993D1*
X3327Y3009D1*
X3301Y3015D1*
X3085D1*
X3059Y3009D1*
X3038Y2993D1*
X3027Y2969D1*
Y2943D1*
X3038Y2919D1*
X3059Y2903D1*
X3085Y2897D1*
X3301D1*
G37*
G36*
Y3094D2*
X3327Y3100D1*
X3347Y3116D1*
X3359Y3140D1*
Y3166D1*
X3347Y3190D1*
X3327Y3206D1*
X3301Y3212D1*
X3085D1*
X3059Y3206D1*
X3038Y3190D1*
X3027Y3166D1*
Y3140D1*
X3038Y3116D1*
X3059Y3100D1*
X3085Y3094D1*
X3301D1*
G37*
G36*
Y3291D2*
X3327Y3297D1*
X3347Y3313D1*
X3359Y3337D1*
Y3363D1*
X3347Y3387D1*
X3327Y3403D1*
X3301Y3409D1*
X3085D1*
X3059Y3403D1*
X3038Y3387D1*
X3027Y3363D1*
Y3337D1*
X3038Y3313D1*
X3059Y3297D1*
X3085Y3291D1*
X3301D1*
G37*
G36*
Y3488D2*
X3327Y3494D1*
X3347Y3510D1*
X3359Y3534D1*
Y3560D1*
X3347Y3584D1*
X3327Y3600D1*
X3301Y3606D1*
X3085D1*
X3059Y3600D1*
X3038Y3584D1*
X3027Y3560D1*
Y3534D1*
X3038Y3510D1*
X3059Y3494D1*
X3085Y3488D1*
X3301D1*
G37*
G36*
Y3685D2*
X3327Y3690D1*
X3347Y3707D1*
X3359Y3730D1*
Y3757D1*
X3347Y3780D1*
X3327Y3797D1*
X3301Y3803D1*
X3085D1*
X3059Y3797D1*
X3038Y3780D1*
X3027Y3757D1*
Y3730D1*
X3038Y3707D1*
X3059Y3690D1*
X3085Y3685D1*
X3301D1*
G37*
G36*
Y3881D2*
X3327Y3887D1*
X3347Y3904D1*
X3359Y3927D1*
Y3954D1*
X3347Y3977D1*
X3327Y3994D1*
X3301Y4000D1*
X3085D1*
X3059Y3994D1*
X3038Y3977D1*
X3027Y3954D1*
Y3927D1*
X3038Y3904D1*
X3059Y3887D1*
X3085Y3881D1*
X3301D1*
G37*
G36*
X2976Y4324D2*
X2970Y4350D1*
X2954Y4370D1*
X2930Y4382D1*
X2904D1*
X2880Y4370D1*
X2864Y4350D1*
X2858Y4324D1*
Y4108D1*
X2864Y4082D1*
X2880Y4062D1*
X2904Y4050D1*
X2930D1*
X2954Y4062D1*
X2970Y4082D1*
X2976Y4108D1*
Y4324D1*
G37*
G36*
X2779D2*
X2774Y4350D1*
X2757Y4370D1*
X2734Y4382D1*
X2707D1*
X2684Y4370D1*
X2667Y4350D1*
X2661Y4324D1*
Y4108D1*
X2667Y4082D1*
X2684Y4062D1*
X2707Y4050D1*
X2734D1*
X2757Y4062D1*
X2774Y4082D1*
X2779Y4108D1*
Y4324D1*
G37*
G36*
X2583D2*
X2577Y4350D1*
X2560Y4370D1*
X2537Y4382D1*
X2510D1*
X2487Y4370D1*
X2470Y4350D1*
X2464Y4324D1*
Y4108D1*
X2470Y4082D1*
X2487Y4062D1*
X2510Y4050D1*
X2537D1*
X2560Y4062D1*
X2577Y4082D1*
X2583Y4108D1*
Y4324D1*
G37*
G36*
X2386D2*
X2380Y4350D1*
X2364Y4370D1*
X2340Y4382D1*
X2314D1*
X2290Y4370D1*
X2273Y4350D1*
X2268Y4324D1*
Y4108D1*
X2273Y4082D1*
X2290Y4062D1*
X2314Y4050D1*
X2340D1*
X2364Y4062D1*
X2380Y4082D1*
X2386Y4108D1*
Y4324D1*
G37*
G36*
X2189D2*
X2183Y4350D1*
X2167Y4370D1*
X2143Y4382D1*
X2117D1*
X2093Y4370D1*
X2077Y4350D1*
X2071Y4324D1*
Y4108D1*
X2077Y4082D1*
X2093Y4062D1*
X2117Y4050D1*
X2143D1*
X2167Y4062D1*
X2183Y4082D1*
X2189Y4108D1*
Y4324D1*
G37*
G36*
X1992D2*
X1986Y4350D1*
X1970Y4370D1*
X1946Y4382D1*
X1920D1*
X1896Y4370D1*
X1880Y4350D1*
X1874Y4324D1*
Y4108D1*
X1880Y4082D1*
X1896Y4062D1*
X1920Y4050D1*
X1946D1*
X1970Y4062D1*
X1986Y4082D1*
X1992Y4108D1*
Y4324D1*
G37*
G36*
X1795D2*
X1789Y4350D1*
X1773Y4370D1*
X1749Y4382D1*
X1723D1*
X1699Y4370D1*
X1683Y4350D1*
X1677Y4324D1*
Y4108D1*
X1683Y4082D1*
X1699Y4062D1*
X1723Y4050D1*
X1749D1*
X1773Y4062D1*
X1789Y4082D1*
X1795Y4108D1*
Y4324D1*
G37*
G36*
X1598D2*
X1592Y4350D1*
X1576Y4370D1*
X1552Y4382D1*
X1526D1*
X1502Y4370D1*
X1486Y4350D1*
X1480Y4324D1*
Y4108D1*
X1486Y4082D1*
X1502Y4062D1*
X1526Y4050D1*
X1552D1*
X1576Y4062D1*
X1592Y4082D1*
X1598Y4108D1*
Y4324D1*
G37*
G36*
X1372Y3881D2*
X1398Y3887D1*
X1418Y3904D1*
X1430Y3927D1*
Y3954D1*
X1418Y3977D1*
X1398Y3994D1*
X1372Y4000D1*
X1155D1*
X1130Y3994D1*
X1109Y3977D1*
X1098Y3954D1*
Y3927D1*
X1109Y3904D1*
X1130Y3887D1*
X1155Y3881D1*
X1372D1*
G37*
G36*
Y3685D2*
X1398Y3690D1*
X1418Y3707D1*
X1430Y3730D1*
Y3757D1*
X1418Y3780D1*
X1398Y3797D1*
X1372Y3803D1*
X1155D1*
X1130Y3797D1*
X1109Y3780D1*
X1098Y3757D1*
Y3730D1*
X1109Y3707D1*
X1130Y3690D1*
X1155Y3685D1*
X1372D1*
G37*
G36*
Y3488D2*
X1398Y3494D1*
X1418Y3510D1*
X1430Y3534D1*
Y3560D1*
X1418Y3584D1*
X1398Y3600D1*
X1372Y3606D1*
X1155D1*
X1130Y3600D1*
X1109Y3584D1*
X1098Y3560D1*
Y3534D1*
X1109Y3510D1*
X1130Y3494D1*
X1155Y3488D1*
X1372D1*
G37*
G36*
Y3291D2*
X1398Y3297D1*
X1418Y3313D1*
X1430Y3337D1*
Y3363D1*
X1418Y3387D1*
X1398Y3403D1*
X1372Y3409D1*
X1155D1*
X1130Y3403D1*
X1109Y3387D1*
X1098Y3363D1*
Y3337D1*
X1109Y3313D1*
X1130Y3297D1*
X1155Y3291D1*
X1372D1*
G37*
G36*
Y3094D2*
X1398Y3100D1*
X1418Y3116D1*
X1430Y3140D1*
Y3166D1*
X1418Y3190D1*
X1398Y3206D1*
X1372Y3212D1*
X1155D1*
X1130Y3206D1*
X1109Y3190D1*
X1098Y3166D1*
Y3140D1*
X1109Y3116D1*
X1130Y3100D1*
X1155Y3094D1*
X1372D1*
G37*
G36*
Y2897D2*
X1398Y2903D1*
X1418Y2919D1*
X1430Y2943D1*
Y2969D1*
X1418Y2993D1*
X1398Y3009D1*
X1372Y3015D1*
X1155D1*
X1130Y3009D1*
X1109Y2993D1*
X1098Y2969D1*
Y2943D1*
X1109Y2919D1*
X1130Y2903D1*
X1155Y2897D1*
X1372D1*
G37*
G36*
Y2700D2*
X1398Y2706D1*
X1418Y2723D1*
X1430Y2746D1*
Y2772D1*
X1418Y2796D1*
X1398Y2813D1*
X1372Y2818D1*
X1155D1*
X1130Y2813D1*
X1109Y2796D1*
X1098Y2772D1*
Y2746D1*
X1109Y2723D1*
X1130Y2706D1*
X1155Y2700D1*
X1372D1*
G37*
G36*
Y2503D2*
X1398Y2509D1*
X1418Y2526D1*
X1430Y2549D1*
Y2576D1*
X1418Y2599D1*
X1398Y2616D1*
X1372Y2622D1*
X1155D1*
X1130Y2616D1*
X1109Y2599D1*
X1098Y2576D1*
Y2549D1*
X1109Y2526D1*
X1130Y2509D1*
X1155Y2503D1*
X1372D1*
G37*
G36*
X1598Y2395D2*
X1592Y2421D1*
X1576Y2441D1*
X1552Y2453D1*
X1526D1*
X1502Y2441D1*
X1486Y2421D1*
X1480Y2395D1*
Y2179D1*
X1486Y2153D1*
X1502Y2132D1*
X1526Y2121D1*
X1552D1*
X1576Y2132D1*
X1592Y2153D1*
X1598Y2179D1*
Y2395D1*
G37*
G36*
X1795D2*
X1789Y2421D1*
X1773Y2441D1*
X1749Y2453D1*
X1723D1*
X1699Y2441D1*
X1683Y2421D1*
X1677Y2395D1*
Y2179D1*
X1683Y2153D1*
X1699Y2132D1*
X1723Y2121D1*
X1749D1*
X1773Y2132D1*
X1789Y2153D1*
X1795Y2179D1*
Y2395D1*
G37*
G36*
X1992D2*
X1986Y2421D1*
X1970Y2441D1*
X1946Y2453D1*
X1920D1*
X1896Y2441D1*
X1880Y2421D1*
X1874Y2395D1*
Y2179D1*
X1880Y2153D1*
X1896Y2132D1*
X1920Y2121D1*
X1946D1*
X1970Y2132D1*
X1986Y2153D1*
X1992Y2179D1*
Y2395D1*
G37*
G36*
X2189D2*
X2183Y2421D1*
X2167Y2441D1*
X2143Y2453D1*
X2117D1*
X2093Y2441D1*
X2077Y2421D1*
X2071Y2395D1*
Y2179D1*
X2077Y2153D1*
X2093Y2132D1*
X2117Y2121D1*
X2143D1*
X2167Y2132D1*
X2183Y2153D1*
X2189Y2179D1*
Y2395D1*
G37*
G36*
X2386D2*
X2380Y2421D1*
X2364Y2441D1*
X2340Y2453D1*
X2314D1*
X2290Y2441D1*
X2273Y2421D1*
X2268Y2395D1*
Y2179D1*
X2273Y2153D1*
X2290Y2132D1*
X2314Y2121D1*
X2340D1*
X2364Y2132D1*
X2380Y2153D1*
X2386Y2179D1*
Y2395D1*
G37*
G36*
X2583D2*
X2577Y2421D1*
X2560Y2441D1*
X2537Y2453D1*
X2510D1*
X2487Y2441D1*
X2470Y2421D1*
X2464Y2395D1*
Y2179D1*
X2470Y2153D1*
X2487Y2132D1*
X2510Y2121D1*
X2537D1*
X2560Y2132D1*
X2577Y2153D1*
X2583Y2179D1*
Y2395D1*
G37*
G36*
X2779D2*
X2774Y2421D1*
X2757Y2441D1*
X2734Y2453D1*
X2707D1*
X2684Y2441D1*
X2667Y2421D1*
X2661Y2395D1*
Y2179D1*
X2667Y2153D1*
X2684Y2132D1*
X2707Y2121D1*
X2734D1*
X2757Y2132D1*
X2774Y2153D1*
X2779Y2179D1*
Y2395D1*
G37*
G36*
X2976D2*
X2970Y2421D1*
X2954Y2441D1*
X2930Y2453D1*
X2904D1*
X2880Y2441D1*
X2864Y2421D1*
X2858Y2395D1*
Y2179D1*
X2864Y2153D1*
X2880Y2132D1*
X2904Y2121D1*
X2930D1*
X2954Y2132D1*
X2970Y2153D1*
X2976Y2179D1*
Y2395D1*
G37*
G36*
X2868Y2612D2*
X1588D1*
Y3891D1*
X2868D1*
Y2612D1*
G37*
D35*
X5040Y2810D3*
G36*
X4535Y4298D2*
X4810D1*
Y4967D1*
X4535D1*
Y4298D1*
G37*
G36*
X4062D2*
X4338D1*
Y4967D1*
X4062D1*
Y4298D1*
G37*
G36*
X3590D2*
X3865D1*
Y4967D1*
X3590D1*
Y4298D1*
G37*
M02*
