G04 DipTrace Beta 2.3.5.2*
%INsubMicroLRS.GTO*%
%MOIN*%
%ADD13C,0.008*%
%ADD37C,0.0062*%
%FSLAX44Y44*%
G04*
G70*
G90*
G75*
G01*
%LNTop TopSilk*%
%LPD*%
X1240Y4100D2*
D13*
Y4240D1*
Y4250D2*
X1350D1*
X3080D2*
X3210D1*
Y4150D1*
X3080Y2290D2*
X3200Y2410D1*
X1230Y2400D2*
Y2280D1*
X1360D1*
X240Y2870D2*
X630D1*
X3620Y6090D2*
Y5840D1*
X4580Y6090D2*
Y5830D1*
X1011Y1416D2*
D37*
X992Y1454D1*
X953Y1493D1*
X915Y1512D1*
X839D1*
X800Y1493D1*
X762Y1454D1*
X743Y1416D1*
X724Y1359D1*
Y1263D1*
X743Y1206D1*
X762Y1167D1*
X800Y1129D1*
X839Y1110D1*
X915D1*
X953Y1129D1*
X992Y1167D1*
X1011Y1206D1*
Y1263D1*
X915D1*
X1734Y1512D2*
X1887Y1110D1*
X2040Y1512D1*
X2814Y1311D2*
X2986D1*
X3043Y1330D1*
X3063Y1350D1*
X3082Y1388D1*
Y1445D1*
X3063Y1483D1*
X3043Y1503D1*
X2986Y1522D1*
X2814D1*
Y1120D1*
X4744Y1340D2*
X4916D1*
X4973Y1360D1*
X4993Y1379D1*
X5012Y1417D1*
Y1455D1*
X4993Y1493D1*
X4973Y1513D1*
X4916Y1532D1*
X4744D1*
Y1130D1*
X4878Y1340D2*
X5012Y1130D1*
X5878Y1502D2*
Y1100D1*
X5744Y1502D2*
X6012D1*
X3804Y1542D2*
Y1140D1*
X3938D1*
X3995Y1159D1*
X4034Y1197D1*
X4053Y1236D1*
X4072Y1293D1*
Y1389D1*
X4053Y1446D1*
X4034Y1484D1*
X3995Y1523D1*
X3938Y1542D1*
X3804D1*
M02*
