M48
INCH
T01C0.01
T02C0.015
T03C0.018
%
T01
X+000438Y+006000
X+000438Y+004938
X+000937Y+005000
X+001000Y+004290
X+001525Y+004525
X+001812Y+004562
X+002700Y+004500
X+003125Y+004500
X+003062Y+005125
X+003840Y+005188
X+004125Y+005188
X+004100Y+005950
X+002125Y+005563
X+002563Y+003687
X+003812Y+003938
X+003500Y+002750
X+003750Y+002188
X+003188Y+002187
X+003188Y+001812
X+002812Y+001812
X+002525Y+001787
X+002312Y+002000
X+001190Y+001930
X+000875Y+001937
X+000850Y+002430
X+000840Y+002730
X+000950Y+003550
X+000880Y+000530
X+000375Y+000500
X+001890Y+000540
X+002890Y+000530
X+003870Y+000540
X+004390Y+001050
X+004860Y+000550
X+005438Y+001062
X+005800Y+000550
X+005000Y+002000
X+005750Y+003500
X+006000Y+005250
T02
X+005880Y+002730
X+001688Y+005937
T03
X+006150Y+005900
T00
M30
