G04 DipTrace Beta 2.3.5.2*
%INsubMicroLRS.G3L*%
%MOIN*%
%ADD13C,0.008*%
%ADD18C,0.007*%
%ADD32C,0.018*%
%ADD34C,0.027*%
%ADD35C,0.03*%
%FSLAX44Y44*%
G04*
G70*
G90*
G75*
G01*
%LNInner2*%
%LPD*%
X3500Y2750D2*
D13*
X4250D1*
X5000Y2000D1*
X3500Y2750D2*
X1500D1*
X950Y3300D1*
Y3550D1*
X1812Y4562D2*
Y4382D1*
X1578Y4148D1*
X1148D1*
X688Y3687D1*
Y3242D1*
X1062Y2868D1*
Y2125D1*
X875Y1937D1*
X2312Y2000D2*
X3563D1*
X3750Y2188D1*
X3840Y5188D2*
X3388D1*
X2700Y4500D1*
X4125Y5188D2*
X3937Y5000D1*
X3625D1*
X3125Y4500D1*
X1000Y4290D2*
X438Y3727D1*
Y3152D1*
X860Y2730D1*
X840D1*
D32*
X3188Y1812D3*
X3500Y2750D3*
X5000Y2000D3*
X950Y3550D3*
X3500Y2750D3*
X1525Y4525D3*
X1190Y1930D3*
X2312Y2000D3*
X3750Y2188D3*
X3840Y5188D3*
X2700Y4500D3*
X4125Y5188D3*
X3125Y4500D3*
X3188Y2187D3*
X3062Y5125D3*
X4390Y1050D3*
X2525Y1787D3*
X1000Y4290D3*
X5438Y1062D3*
X2812Y1812D3*
D34*
X5880Y2730D3*
X1688Y5937D3*
X5880Y2730D3*
D32*
X937Y5000D3*
X438Y6000D3*
X4100Y5950D3*
X840Y2730D3*
X2563Y3687D3*
X3812Y3938D3*
X6000Y5250D3*
X5750Y3500D3*
X375Y500D3*
X438Y4938D3*
X2125Y5563D3*
X850Y2430D3*
X875Y1937D3*
D35*
X6150Y5900D3*
D32*
X1812Y4562D3*
X880Y530D3*
X1890Y540D3*
X2890Y530D3*
X3870Y540D3*
X4860Y550D3*
X5800D3*
X162Y6076D2*
D18*
X1481D1*
X1894D2*
X5954D1*
X6346D2*
X6531D1*
X162Y6007D2*
X1448D1*
X1927D2*
X5908D1*
X6391D2*
X6531D1*
X162Y5938D2*
X1438D1*
X1938D2*
X5889D1*
X6412D2*
X6531D1*
X162Y5869D2*
X1448D1*
X1928D2*
X5887D1*
X6413D2*
X6531D1*
X162Y5801D2*
X1480D1*
X1895D2*
X5905D1*
X6395D2*
X6531D1*
X162Y5732D2*
X1552D1*
X1824D2*
X5948D1*
X6352D2*
X6531D1*
X162Y5663D2*
X6041D1*
X6259D2*
X6531D1*
X162Y5595D2*
X6531D1*
X162Y5526D2*
X6531D1*
X162Y5457D2*
X6531D1*
X162Y5389D2*
X6531D1*
X162Y5320D2*
X3023D1*
X3103D2*
X3315D1*
X4278D2*
X6531D1*
X162Y5251D2*
X2904D1*
X4319D2*
X6531D1*
X162Y5183D2*
X855D1*
X1020D2*
X2867D1*
X4330D2*
X6531D1*
X162Y5114D2*
X769D1*
X1106D2*
X2858D1*
X4316D2*
X6531D1*
X162Y5045D2*
X738D1*
X1137D2*
X2874D1*
X4270D2*
X6531D1*
X162Y4977D2*
X734D1*
X1140D2*
X2924D1*
X4130D2*
X6531D1*
X162Y4908D2*
X756D1*
X1120D2*
X2892D1*
X4061D2*
X6531D1*
X162Y4839D2*
X816D1*
X1059D2*
X2823D1*
X3680D2*
X6531D1*
X162Y4770D2*
X2755D1*
X3611D2*
X6531D1*
X162Y4702D2*
X1429D1*
X1621D2*
X1666D1*
X1960D2*
X2686D1*
X3542D2*
X6531D1*
X162Y4633D2*
X1353D1*
X2004D2*
X2547D1*
X3474D2*
X6531D1*
X162Y4564D2*
X1324D1*
X2018D2*
X2506D1*
X3406D2*
X6531D1*
X162Y4496D2*
X1322D1*
X2006D2*
X2496D1*
X3337D2*
X6531D1*
X162Y4427D2*
X851D1*
X1149D2*
X1346D1*
X1967D2*
X2509D1*
X2890D2*
X2934D1*
X3316D2*
X6531D1*
X162Y4358D2*
X807D1*
X1193D2*
X1412D1*
X1965D2*
X2555D1*
X2844D2*
X2980D1*
X3270D2*
X6531D1*
X162Y4290D2*
X784D1*
X1934D2*
X6531D1*
X162Y4221D2*
X715D1*
X1867D2*
X6531D1*
X162Y4152D2*
X646D1*
X1798D2*
X6531D1*
X162Y4084D2*
X577D1*
X1730D2*
X6531D1*
X162Y4015D2*
X509D1*
X1649D2*
X6531D1*
X162Y3946D2*
X441D1*
X1162D2*
X6531D1*
X162Y3878D2*
X372D1*
X1093D2*
X6531D1*
X162Y3809D2*
X307D1*
X1024D2*
X6531D1*
X162Y3740D2*
X283D1*
X1011D2*
X6531D1*
X162Y3671D2*
X283D1*
X1113D2*
X6531D1*
X162Y3603D2*
X283D1*
X1148D2*
X6531D1*
X162Y3534D2*
X283D1*
X1153D2*
X6531D1*
X162Y3465D2*
X283D1*
X1136D2*
X6531D1*
X162Y3397D2*
X283D1*
X1104D2*
X6531D1*
X162Y3328D2*
X283D1*
X1138D2*
X6531D1*
X162Y3259D2*
X283D1*
X1206D2*
X6531D1*
X162Y3191D2*
X283D1*
X1275D2*
X6531D1*
X162Y3122D2*
X286D1*
X1344D2*
X6531D1*
X162Y3053D2*
X321D1*
X1413D2*
X6531D1*
X162Y2985D2*
X389D1*
X1482D2*
X6531D1*
X162Y2916D2*
X458D1*
X1549D2*
X3386D1*
X3614D2*
X5717D1*
X6044D2*
X6531D1*
X162Y2847D2*
X527D1*
X4369D2*
X5660D1*
X6099D2*
X6531D1*
X162Y2779D2*
X596D1*
X1217D2*
X1255D1*
X4437D2*
X5635D1*
X6125D2*
X6531D1*
X162Y2710D2*
X636D1*
X1217D2*
X1324D1*
X4506D2*
X5632D1*
X6129D2*
X6531D1*
X162Y2641D2*
X656D1*
X1217D2*
X1393D1*
X4575D2*
X5647D1*
X6113D2*
X6531D1*
X162Y2572D2*
X706D1*
X1217D2*
X3406D1*
X3594D2*
X4212D1*
X4644D2*
X5688D1*
X6071D2*
X6531D1*
X162Y2504D2*
X659D1*
X1217D2*
X4281D1*
X4713D2*
X5786D1*
X5974D2*
X6531D1*
X162Y2435D2*
X645D1*
X1217D2*
X4349D1*
X4780D2*
X6531D1*
X162Y2366D2*
X656D1*
X1217D2*
X3096D1*
X3279D2*
X3658D1*
X3841D2*
X4417D1*
X4849D2*
X6531D1*
X162Y2298D2*
X697D1*
X1217D2*
X3016D1*
X3358D2*
X3579D1*
X3921D2*
X4486D1*
X4918D2*
X6531D1*
X162Y2229D2*
X908D1*
X1217D2*
X2987D1*
X3388D2*
X3550D1*
X3950D2*
X4555D1*
X4987D2*
X6531D1*
X162Y2160D2*
X882D1*
X1217D2*
X2189D1*
X2435D2*
X2985D1*
X3390D2*
X3507D1*
X3952D2*
X4624D1*
X5123D2*
X6531D1*
X162Y2092D2*
X745D1*
X1311D2*
X2130D1*
X3929D2*
X4692D1*
X5182D2*
X6531D1*
X162Y2023D2*
X690D1*
X1371D2*
X2110D1*
X3867D2*
X4761D1*
X5204D2*
X6531D1*
X162Y1954D2*
X671D1*
X1393D2*
X2113D1*
X3733D2*
X4800D1*
X5199D2*
X6531D1*
X162Y1886D2*
X677D1*
X1390D2*
X2145D1*
X3663D2*
X4832D1*
X5169D2*
X6531D1*
X162Y1817D2*
X712D1*
X1359D2*
X2231D1*
X3392D2*
X4918D1*
X5081D2*
X6531D1*
X162Y1748D2*
X811D1*
X939D2*
X1106D1*
X1275D2*
X2324D1*
X3381D2*
X6531D1*
X162Y1680D2*
X2352D1*
X2966D2*
X3034D1*
X3341D2*
X6531D1*
X162Y1611D2*
X2429D1*
X2620D2*
X6531D1*
X162Y1542D2*
X6531D1*
X162Y1473D2*
X6531D1*
X162Y1405D2*
X6531D1*
X162Y1336D2*
X6531D1*
X162Y1267D2*
X6531D1*
X162Y1199D2*
X4252D1*
X4528D2*
X5287D1*
X5588D2*
X6531D1*
X162Y1130D2*
X4202D1*
X4578D2*
X5244D1*
X5630D2*
X6531D1*
X162Y1061D2*
X4186D1*
X4594D2*
X5232D1*
X5642D2*
X6531D1*
X162Y993D2*
X4194D1*
X4586D2*
X5245D1*
X5629D2*
X6531D1*
X162Y924D2*
X4230D1*
X4550D2*
X5289D1*
X5585D2*
X6531D1*
X162Y855D2*
X4349D1*
X4431D2*
X6531D1*
X162Y787D2*
X6531D1*
X162Y718D2*
X1797D1*
X1984D2*
X2822D1*
X2958D2*
X3777D1*
X3963D2*
X4749D1*
X4972D2*
X5688D1*
X5911D2*
X6531D1*
X162Y649D2*
X1718D1*
X2061D2*
X2725D1*
X3054D2*
X3698D1*
X4042D2*
X4682D1*
X5038D2*
X5622D1*
X5978D2*
X6531D1*
X162Y581D2*
X1690D1*
X2091D2*
X2692D1*
X3088D2*
X3669D1*
X4071D2*
X4658D1*
X5063D2*
X5598D1*
X6002D2*
X6531D1*
X162Y512D2*
X1687D1*
X2093D2*
X2686D1*
X3094D2*
X3667D1*
X4073D2*
X4659D1*
X5061D2*
X5599D1*
X6001D2*
X6531D1*
X162Y443D2*
X1710D1*
X2069D2*
X2706D1*
X3074D2*
X3691D1*
X4050D2*
X4687D1*
X5033D2*
X5627D1*
X5974D2*
X6531D1*
X162Y374D2*
X1775D1*
X2006D2*
X2762D1*
X3019D2*
X3755D1*
X3985D2*
X4762D1*
X4958D2*
X5703D1*
X5898D2*
X6531D1*
X162Y306D2*
X6531D1*
X162Y237D2*
X6531D1*
X162Y168D2*
X6531D1*
X716Y2577D2*
X684Y2608D1*
X665Y2637D1*
X652Y2670D1*
X644Y2704D1*
X643Y2740D1*
X483Y2898D1*
X333Y3048D1*
X311Y3075D1*
X297Y3107D1*
X290Y3152D1*
Y3727D1*
X294Y3762D1*
X306Y3795D1*
X333Y3832D1*
X802Y4301D1*
X807Y4333D1*
X818Y4367D1*
X834Y4397D1*
X855Y4425D1*
X881Y4448D1*
X911Y4467D1*
X944Y4480D1*
X978Y4487D1*
X1013D1*
X1047Y4482D1*
X1080Y4471D1*
X1111Y4454D1*
X1138Y4432D1*
X1161Y4405D1*
X1179Y4375D1*
X1191Y4342D1*
X1198Y4296D1*
X1517D1*
X1550Y4329D1*
X1521Y4327D1*
X1486Y4331D1*
X1452Y4341D1*
X1421Y4357D1*
X1393Y4378D1*
X1369Y4403D1*
X1350Y4432D1*
X1337Y4465D1*
X1329Y4499D1*
X1327Y4534D1*
X1332Y4568D1*
X1343Y4602D1*
X1359Y4632D1*
X1380Y4660D1*
X1406Y4683D1*
X1436Y4702D1*
X1469Y4715D1*
X1503Y4722D1*
X1538D1*
X1572Y4717D1*
X1605Y4706D1*
X1636Y4689D1*
X1650Y4677D1*
X1668Y4697D1*
X1694Y4721D1*
X1724Y4739D1*
X1756Y4752D1*
X1790Y4759D1*
X1825Y4760D1*
X1860Y4755D1*
X1893Y4743D1*
X1924Y4726D1*
X1951Y4704D1*
X1973Y4678D1*
X1991Y4647D1*
X2003Y4615D1*
X2010Y4562D1*
X2007Y4528D1*
X1998Y4494D1*
X1983Y4462D1*
X1960Y4432D1*
Y4382D1*
X1956Y4348D1*
X1944Y4315D1*
X1917Y4278D1*
X1683Y4044D1*
X1655Y4022D1*
X1623Y4007D1*
X1578Y4000D1*
X1210D1*
X956Y3747D1*
X997Y3742D1*
X1030Y3731D1*
X1061Y3714D1*
X1088Y3692D1*
X1111Y3665D1*
X1129Y3635D1*
X1141Y3602D1*
X1148Y3550D1*
X1145Y3515D1*
X1136Y3481D1*
X1121Y3450D1*
X1098Y3419D1*
Y3361D1*
X1561Y2898D1*
X3369D1*
X3411Y2927D1*
X3444Y2940D1*
X3478Y2947D1*
X3513D1*
X3547Y2942D1*
X3580Y2931D1*
X3611Y2914D1*
X3630Y2898D1*
X4250D1*
X4285Y2894D1*
X4317Y2882D1*
X4355Y2855D1*
X5013Y2197D1*
X5047Y2192D1*
X5080Y2181D1*
X5111Y2164D1*
X5138Y2142D1*
X5161Y2115D1*
X5179Y2085D1*
X5191Y2052D1*
X5198Y2000D1*
X5195Y1965D1*
X5186Y1931D1*
X5171Y1900D1*
X5150Y1871D1*
X5125Y1847D1*
X5096Y1827D1*
X5065Y1813D1*
X5031Y1805D1*
X4996Y1802D1*
X4961Y1806D1*
X4927Y1816D1*
X4896Y1832D1*
X4868Y1853D1*
X4844Y1878D1*
X4825Y1907D1*
X4812Y1940D1*
X4804Y1974D1*
X4803Y1988D1*
X4189Y2602D1*
X3690D1*
X3632D1*
X3596Y2577D1*
X3565Y2563D1*
X3531Y2555D1*
X3496Y2552D1*
X3461Y2556D1*
X3427Y2566D1*
X3396Y2582D1*
X3369Y2602D1*
X1500D1*
X1465Y2606D1*
X1433Y2618D1*
X1395Y2645D1*
X1211Y2830D1*
X1210Y2127D1*
X1237Y2122D1*
X1270Y2111D1*
X1301Y2094D1*
X1328Y2072D1*
X1351Y2045D1*
X1369Y2015D1*
X1381Y1982D1*
X1388Y1930D1*
X1385Y1895D1*
X1376Y1861D1*
X1361Y1830D1*
X1340Y1801D1*
X1315Y1777D1*
X1286Y1757D1*
X1255Y1743D1*
X1221Y1735D1*
X1186Y1732D1*
X1151Y1736D1*
X1117Y1746D1*
X1086Y1762D1*
X1058Y1783D1*
X1030Y1814D1*
X1000Y1784D1*
X971Y1765D1*
X940Y1751D1*
X906Y1742D1*
X871Y1740D1*
X836Y1744D1*
X802Y1753D1*
X771Y1769D1*
X743Y1790D1*
X719Y1816D1*
X700Y1845D1*
X687Y1877D1*
X679Y1911D1*
X677Y1946D1*
X682Y1981D1*
X693Y2014D1*
X709Y2045D1*
X730Y2072D1*
X756Y2096D1*
X786Y2114D1*
X819Y2127D1*
X863Y2134D1*
X915Y2187D1*
Y2243D1*
X881Y2235D1*
X846Y2232D1*
X811Y2236D1*
X777Y2246D1*
X746Y2262D1*
X718Y2283D1*
X694Y2308D1*
X675Y2337D1*
X662Y2370D1*
X654Y2404D1*
X652Y2439D1*
X657Y2473D1*
X668Y2507D1*
X684Y2537D1*
X705Y2565D1*
X718Y2576D1*
X6405Y5865D2*
X6398Y5831D1*
X6387Y5798D1*
X6371Y5767D1*
X6351Y5738D1*
X6327Y5712D1*
X6300Y5690D1*
X6270Y5672D1*
X6238Y5658D1*
X6205Y5648D1*
X6170Y5643D1*
X6135D1*
X6100Y5647D1*
X6066Y5656D1*
X6034Y5670D1*
X6004Y5687D1*
X5977Y5709D1*
X5952Y5734D1*
X5932Y5763D1*
X5915Y5793D1*
X5903Y5826D1*
X5895Y5860D1*
X5892Y5895D1*
X5894Y5930D1*
X5900Y5964D1*
X5911Y5998D1*
X5927Y6029D1*
X5946Y6058D1*
X5970Y6084D1*
X5996Y6107D1*
X6026Y6126D1*
X6069Y6144D1*
X1814D1*
X1856Y6113D1*
X1879Y6087D1*
X1899Y6058D1*
X1914Y6026D1*
X1924Y5993D1*
X1930Y5937D1*
X1928Y5903D1*
X1920Y5868D1*
X1908Y5836D1*
X1891Y5805D1*
X1870Y5777D1*
X1845Y5753D1*
X1817Y5732D1*
X1786Y5716D1*
X1753Y5704D1*
X1719Y5697D1*
X1684Y5695D1*
X1649Y5698D1*
X1615Y5706D1*
X1582Y5719D1*
X1552Y5736D1*
X1525Y5757D1*
X1500Y5783D1*
X1480Y5811D1*
X1464Y5842D1*
X1453Y5875D1*
X1446Y5910D1*
X1445Y5945D1*
X1448Y5980D1*
X1457Y6013D1*
X1470Y6046D1*
X1488Y6076D1*
X1510Y6103D1*
X1536Y6127D1*
X1562Y6145D1*
X938Y6144D1*
X155D1*
Y155D1*
X6538D1*
Y6144D1*
X6233D1*
X6261Y6133D1*
X6292Y6115D1*
X6320Y6094D1*
X6344Y6069D1*
X6365Y6042D1*
X6383Y6011D1*
X6396Y5979D1*
X6404Y5945D1*
X6408Y5900D1*
X6405Y5865D1*
X2085Y505D2*
X2076Y471D1*
X2061Y440D1*
X2040Y411D1*
X2015Y387D1*
X1986Y367D1*
X1955Y353D1*
X1921Y345D1*
X1886Y342D1*
X1851Y346D1*
X1817Y356D1*
X1786Y372D1*
X1758Y393D1*
X1734Y418D1*
X1715Y447D1*
X1702Y480D1*
X1694Y514D1*
X1692Y549D1*
X1697Y583D1*
X1708Y617D1*
X1724Y647D1*
X1745Y675D1*
X1771Y698D1*
X1801Y717D1*
X1834Y730D1*
X1868Y737D1*
X1903D1*
X1937Y732D1*
X1970Y721D1*
X2001Y704D1*
X2028Y682D1*
X2051Y655D1*
X2069Y625D1*
X2081Y592D1*
X2088Y540D1*
X2085Y505D1*
X3085Y495D2*
X3076Y461D1*
X3061Y430D1*
X3040Y401D1*
X3015Y377D1*
X2986Y357D1*
X2955Y343D1*
X2921Y335D1*
X2886Y332D1*
X2851Y336D1*
X2817Y346D1*
X2786Y362D1*
X2758Y383D1*
X2734Y408D1*
X2715Y437D1*
X2702Y470D1*
X2694Y504D1*
X2692Y539D1*
X2697Y573D1*
X2708Y607D1*
X2724Y637D1*
X2745Y665D1*
X2771Y688D1*
X2801Y707D1*
X2834Y720D1*
X2868Y727D1*
X2903D1*
X2937Y722D1*
X2970Y711D1*
X3001Y694D1*
X3028Y672D1*
X3051Y645D1*
X3069Y615D1*
X3081Y582D1*
X3088Y530D1*
X3085Y495D1*
X4065Y505D2*
X4056Y471D1*
X4041Y440D1*
X4020Y411D1*
X3995Y387D1*
X3966Y367D1*
X3935Y353D1*
X3901Y345D1*
X3866Y342D1*
X3831Y346D1*
X3797Y356D1*
X3766Y372D1*
X3738Y393D1*
X3714Y418D1*
X3695Y447D1*
X3682Y480D1*
X3674Y514D1*
X3672Y549D1*
X3677Y583D1*
X3688Y617D1*
X3704Y647D1*
X3725Y675D1*
X3751Y698D1*
X3781Y717D1*
X3814Y730D1*
X3848Y737D1*
X3883D1*
X3917Y732D1*
X3950Y721D1*
X3981Y704D1*
X4008Y682D1*
X4031Y655D1*
X4049Y625D1*
X4061Y592D1*
X4068Y540D1*
X4065Y505D1*
X5055Y515D2*
X5046Y481D1*
X5031Y450D1*
X5010Y421D1*
X4985Y397D1*
X4956Y377D1*
X4925Y363D1*
X4891Y355D1*
X4856Y352D1*
X4821Y356D1*
X4787Y366D1*
X4756Y382D1*
X4728Y403D1*
X4704Y428D1*
X4685Y457D1*
X4672Y490D1*
X4664Y524D1*
X4662Y559D1*
X4667Y593D1*
X4678Y627D1*
X4694Y657D1*
X4715Y685D1*
X4741Y708D1*
X4771Y727D1*
X4804Y740D1*
X4838Y747D1*
X4873D1*
X4907Y742D1*
X4940Y731D1*
X4971Y714D1*
X4998Y692D1*
X5021Y665D1*
X5039Y635D1*
X5051Y602D1*
X5058Y550D1*
X5055Y515D1*
X5995D2*
X5986Y481D1*
X5971Y450D1*
X5950Y421D1*
X5925Y397D1*
X5896Y377D1*
X5865Y363D1*
X5831Y355D1*
X5796Y352D1*
X5761Y356D1*
X5727Y366D1*
X5696Y382D1*
X5668Y403D1*
X5644Y428D1*
X5625Y457D1*
X5612Y490D1*
X5604Y524D1*
X5602Y559D1*
X5607Y593D1*
X5618Y627D1*
X5634Y657D1*
X5655Y685D1*
X5681Y708D1*
X5711Y727D1*
X5744Y740D1*
X5778Y747D1*
X5813D1*
X5847Y742D1*
X5880Y731D1*
X5911Y714D1*
X5938Y692D1*
X5961Y665D1*
X5979Y635D1*
X5991Y602D1*
X5998Y550D1*
X5995Y515D1*
X3382Y1778D2*
X3373Y1744D1*
X3358Y1712D1*
X3338Y1684D1*
X3313Y1659D1*
X3284Y1640D1*
X3252Y1626D1*
X3218Y1617D1*
X3183Y1615D1*
X3148Y1619D1*
X3115Y1628D1*
X3084Y1644D1*
X3056Y1665D1*
X3032Y1691D1*
X3013Y1720D1*
X3000Y1749D1*
X2983Y1712D1*
X2963Y1684D1*
X2938Y1659D1*
X2909Y1640D1*
X2877Y1626D1*
X2843Y1617D1*
X2808Y1615D1*
X2773Y1619D1*
X2740Y1628D1*
X2709Y1644D1*
X2680Y1666D1*
X2650Y1634D1*
X2621Y1615D1*
X2590Y1601D1*
X2556Y1592D1*
X2521Y1590D1*
X2486Y1594D1*
X2452Y1603D1*
X2421Y1619D1*
X2393Y1640D1*
X2369Y1666D1*
X2350Y1695D1*
X2337Y1727D1*
X2329Y1761D1*
X2328Y1804D1*
X2308Y1802D1*
X2273Y1806D1*
X2240Y1816D1*
X2209Y1832D1*
X2181Y1853D1*
X2157Y1878D1*
X2138Y1907D1*
X2124Y1940D1*
X2116Y1974D1*
X2115Y2009D1*
X2119Y2043D1*
X2130Y2077D1*
X2146Y2107D1*
X2168Y2135D1*
X2194Y2158D1*
X2224Y2177D1*
X2256Y2190D1*
X2290Y2197D1*
X2325D1*
X2360Y2192D1*
X2393Y2181D1*
X2424Y2164D1*
X2443Y2148D1*
X2994D1*
X2990Y2196D1*
X2994Y2231D1*
X3005Y2264D1*
X3021Y2295D1*
X3043Y2322D1*
X3069Y2346D1*
X3099Y2364D1*
X3131Y2377D1*
X3165Y2384D1*
X3200Y2385D1*
X3235Y2380D1*
X3268Y2368D1*
X3299Y2351D1*
X3326Y2329D1*
X3348Y2303D1*
X3366Y2272D1*
X3378Y2240D1*
X3385Y2187D1*
X3381Y2147D1*
X3501Y2148D1*
X3553Y2200D1*
X3557Y2231D1*
X3568Y2264D1*
X3584Y2295D1*
X3605Y2323D1*
X3631Y2346D1*
X3661Y2364D1*
X3694Y2377D1*
X3728Y2384D1*
X3763Y2385D1*
X3797Y2380D1*
X3830Y2368D1*
X3861Y2351D1*
X3888Y2329D1*
X3911Y2303D1*
X3929Y2272D1*
X3941Y2240D1*
X3948Y2188D1*
X3945Y2153D1*
X3936Y2119D1*
X3921Y2087D1*
X3900Y2059D1*
X3875Y2034D1*
X3846Y2015D1*
X3815Y2001D1*
X3781Y1992D1*
X3762Y1991D1*
X3667Y1895D1*
X3640Y1874D1*
X3608Y1859D1*
X3563Y1852D1*
X3382D1*
X3385Y1812D1*
X3382Y1778D1*
X3631Y2602D2*
X3596Y2577D1*
X3565Y2563D1*
X3531Y2555D1*
X3496Y2552D1*
X3461Y2556D1*
X3427Y2566D1*
X3396Y2582D1*
X3369Y2602D1*
Y2897D2*
X3381Y2908D1*
X3411Y2927D1*
X3444Y2940D1*
X3478Y2947D1*
X3513D1*
X3547Y2942D1*
X3580Y2931D1*
X3611Y2914D1*
X3630Y2898D1*
X3423Y5335D2*
X3708D1*
X3751Y5364D1*
X3784Y5377D1*
X3818Y5384D1*
X3853Y5385D1*
X3887Y5380D1*
X3920Y5368D1*
X3951Y5351D1*
X3982Y5325D1*
X4006Y5346D1*
X4036Y5364D1*
X4069Y5377D1*
X4103Y5384D1*
X4138Y5385D1*
X4172Y5380D1*
X4205Y5368D1*
X4236Y5351D1*
X4263Y5329D1*
X4286Y5303D1*
X4304Y5272D1*
X4316Y5240D1*
X4323Y5188D1*
X4320Y5153D1*
X4311Y5119D1*
X4296Y5087D1*
X4275Y5059D1*
X4250Y5034D1*
X4221Y5015D1*
X4190Y5001D1*
X4156Y4992D1*
X4137Y4991D1*
X4042Y4895D1*
X4015Y4874D1*
X3983Y4859D1*
X3937Y4852D1*
X3687D1*
X3322Y4488D1*
X3320Y4465D1*
X3311Y4431D1*
X3296Y4400D1*
X3275Y4371D1*
X3250Y4347D1*
X3221Y4327D1*
X3190Y4313D1*
X3156Y4305D1*
X3121Y4302D1*
X3086Y4306D1*
X3052Y4316D1*
X3021Y4332D1*
X2993Y4353D1*
X2969Y4378D1*
X2950Y4407D1*
X2937Y4440D1*
X2929Y4474D1*
Y4521D1*
X2897Y4488D1*
X2895Y4465D1*
X2886Y4431D1*
X2871Y4400D1*
X2850Y4371D1*
X2825Y4347D1*
X2796Y4327D1*
X2765Y4313D1*
X2731Y4305D1*
X2696Y4302D1*
X2661Y4306D1*
X2627Y4316D1*
X2596Y4332D1*
X2568Y4353D1*
X2544Y4378D1*
X2525Y4407D1*
X2512Y4440D1*
X2504Y4474D1*
X2502Y4509D1*
X2507Y4543D1*
X2518Y4577D1*
X2534Y4607D1*
X2555Y4635D1*
X2581Y4658D1*
X2611Y4677D1*
X2644Y4690D1*
X2688Y4697D1*
X2952Y4961D1*
X2931Y4978D1*
X2907Y5003D1*
X2888Y5032D1*
X2874Y5065D1*
X2866Y5099D1*
X2865Y5134D1*
X2869Y5168D1*
X2880Y5202D1*
X2896Y5232D1*
X2918Y5260D1*
X2944Y5283D1*
X2974Y5302D1*
X3006Y5315D1*
X3040Y5322D1*
X3075D1*
X3110Y5317D1*
X3143Y5306D1*
X3174Y5289D1*
X3201Y5267D1*
X3226Y5235D1*
X3283Y5292D1*
X3310Y5314D1*
X3342Y5328D1*
X3388Y5335D1*
X3423D1*
X4585Y1015D2*
X4576Y981D1*
X4561Y950D1*
X4540Y921D1*
X4515Y897D1*
X4486Y877D1*
X4455Y863D1*
X4421Y855D1*
X4386Y852D1*
X4351Y856D1*
X4317Y866D1*
X4286Y882D1*
X4258Y903D1*
X4234Y928D1*
X4215Y957D1*
X4202Y990D1*
X4194Y1024D1*
X4192Y1059D1*
X4197Y1093D1*
X4208Y1127D1*
X4224Y1157D1*
X4245Y1185D1*
X4271Y1208D1*
X4301Y1227D1*
X4334Y1240D1*
X4368Y1247D1*
X4403D1*
X4437Y1242D1*
X4470Y1231D1*
X4501Y1214D1*
X4528Y1192D1*
X4551Y1165D1*
X4569Y1135D1*
X4581Y1102D1*
X4588Y1050D1*
X4585Y1015D1*
X5632Y1028D2*
X5623Y994D1*
X5608Y962D1*
X5588Y934D1*
X5563Y909D1*
X5534Y890D1*
X5502Y876D1*
X5468Y867D1*
X5433Y865D1*
X5398Y869D1*
X5365Y878D1*
X5334Y894D1*
X5306Y915D1*
X5282Y941D1*
X5263Y970D1*
X5249Y1002D1*
X5241Y1036D1*
X5240Y1071D1*
X5244Y1106D1*
X5255Y1139D1*
X5271Y1170D1*
X5293Y1197D1*
X5319Y1221D1*
X5349Y1239D1*
X5381Y1252D1*
X5415Y1259D1*
X5450Y1260D1*
X5485Y1255D1*
X5518Y1243D1*
X5549Y1226D1*
X5576Y1204D1*
X5598Y1178D1*
X5616Y1147D1*
X5628Y1115D1*
X5635Y1062D1*
X5632Y1028D1*
X6120Y2696D2*
X6113Y2661D1*
X6100Y2629D1*
X6084Y2598D1*
X6062Y2570D1*
X6038Y2546D1*
X6009Y2525D1*
X5978Y2508D1*
X5946Y2497D1*
X5911Y2490D1*
X5876Y2488D1*
X5842Y2491D1*
X5808Y2499D1*
X5775Y2511D1*
X5745Y2529D1*
X5717Y2550D1*
X5693Y2576D1*
X5673Y2604D1*
X5657Y2635D1*
X5645Y2668D1*
X5639Y2703D1*
X5637Y2738D1*
X5641Y2772D1*
X5649Y2806D1*
X5663Y2839D1*
X5680Y2869D1*
X5702Y2896D1*
X5728Y2920D1*
X5757Y2940D1*
X5788Y2955D1*
X5821Y2966D1*
X5856Y2972D1*
X5891Y2973D1*
X5926Y2969D1*
X5959Y2960D1*
X5991Y2946D1*
X6021Y2928D1*
X6048Y2905D1*
X6072Y2880D1*
X6091Y2850D1*
X6106Y2819D1*
X6116Y2785D1*
X6123Y2730D1*
X6120Y2696D1*
X6113Y2661D1*
X6100Y2629D1*
X6084Y2598D1*
X6062Y2570D1*
X6038Y2546D1*
X6009Y2525D1*
X5978Y2508D1*
X5946Y2497D1*
X5911Y2490D1*
X5876Y2488D1*
X5842Y2491D1*
X5808Y2499D1*
X5775Y2511D1*
X5745Y2529D1*
X5717Y2550D1*
X5693Y2576D1*
X5673Y2604D1*
X5657Y2635D1*
X5645Y2668D1*
X5639Y2703D1*
X5637Y2738D1*
X5641Y2772D1*
X5649Y2806D1*
X5663Y2839D1*
X5680Y2869D1*
X5702Y2896D1*
X5728Y2920D1*
X5757Y2940D1*
X5788Y2955D1*
X5821Y2966D1*
X5856Y2972D1*
X5891Y2973D1*
X5926Y2969D1*
X5959Y2960D1*
X5991Y2946D1*
X6021Y2928D1*
X6048Y2905D1*
X6072Y2880D1*
X6091Y2850D1*
X6106Y2819D1*
X6116Y2785D1*
X6123Y2730D1*
X6120Y2696D1*
X1132Y4965D2*
X1123Y4931D1*
X1108Y4900D1*
X1088Y4871D1*
X1063Y4847D1*
X1034Y4827D1*
X1002Y4813D1*
X968Y4805D1*
X933Y4802D1*
X898Y4806D1*
X865Y4816D1*
X834Y4832D1*
X806Y4853D1*
X782Y4878D1*
X763Y4907D1*
X749Y4940D1*
X741Y4974D1*
X740Y5009D1*
X744Y5043D1*
X755Y5077D1*
X771Y5107D1*
X793Y5135D1*
X819Y5158D1*
X849Y5177D1*
X881Y5190D1*
X915Y5197D1*
X950D1*
X985Y5192D1*
X1018Y5181D1*
X1049Y5164D1*
X1076Y5142D1*
X1098Y5115D1*
X1116Y5085D1*
X1128Y5052D1*
X1135Y5000D1*
X1132Y4965D1*
M02*
